<?xml version="1.0" standalone="yes"?><svg
xmlns="http://www.w3.org/2000/svg" version="1.1"
viewBox="-2 -2 24 24" width="128" height="128"><rect
x="-3" y="-3" width="26" height="26" style="fill:#fff"/><path
style="fill-rule:evenodd" d="M1
0.5q0-.5 .5-.5h0q.5 0 .5 .5v19q0 .5 .5 .5h0q.5 0 .5-.5v-19q0-.5 .5-.5h0q.5 0 .5 .5v19q0 .5 .5 .5h0q.5 0 .5-.5v-19q0-.5 .5-.5h0q.5 0 .5 .5v19q0 .5 .5 .5h0q.5 0 .5-.5v-19q0-.5 .5-.5h0q.5 0 .5 .5v19q0 .5 .5 .5h0q.5 0 .5-.5v-19q0-.5 .5-.5h0q.5 0 .5 .5v19q0 .5 .5 .5h0q.5 0 .5-.5v-19q0-.5 .5-.5h0q.5 0 .5 .5v19q0 .5 .5 .5h0q.5 0 .5-.5v-19q0-.5 .5-.5h0q.5 0 .5 .5v19q0 .5 .5 .5h0q.5 0 .5-.5v-19q0-.5 .5-.5h0q.5 0 .5 .5v19q0 .5 .5 .5h0q.5 0 .5-.5v-19q0-.5 .5-.5h0q.5 0 .5 .5v19q0 .5 .5 .5h0q.5 0 .5-.5v-19q0-.5 .5-.5h0q.5 0 .5 .5v0q0 .5-.5 .5h-19q-.5 0-.5 .5v0q0 .5 .5 .5h19q.5 0 .5 .5v0q0 .5-.5 .5h-19q-.5 0-.5 .5v0q0 .5 .5 .5h19q.5 0 .5 .5v0q0 .5-.5 .5h-19q-.5 0-.5 .5v0q0 .5 .5 .5h19q.5 0 .5 .5v0q0 .5-.5 .5h-19q-.5 0-.5 .5v0q0 .5 .5 .5h19q.5 0 .5 .5v0q0 .5-.5 .5h-19q-.5 0-.5 .5v0q0 .5 .5 .5h19q.5 0 .5 .5v0q0 .5-.5 .5h-19q-.5 0-.5 .5v0q0 .5 .5 .5h19q.5 0 .5 .5v0q0 .5-.5 .5h-19q-.5 0-.5 .5v0q0 .5 .5 .5h19q.5 0 .5 .5v0q0 .5-.5 .5h-19q-.5 0-.5 .5v0q0 .5 .5 .5h19q.5 0 .5 .5v0q0 .5-.5 .5h-19q-.5 0-.5 .5v0q0 .5 .5 .5h19q.5 0 .5 .5v0q0 .5-.5 .5h-19q-.5 0-.5 .5v0q0 .5 .5 .5h0q.5 0 .5-.5z"/></svg>