<?xml version="1.0" standalone="yes"?><svg
xmlns="http://www.w3.org/2000/svg" version="1.1"
viewBox="-1 -1 12 12" width="128" height="128"><rect
x="-2" y="-2" width="14" height="14" style="fill:#fff"/><path
style="fill-rule:evenodd" d="M0
0.5q0-.5 .5-.5h0q.5 0 .5 .5v0q0 .5-.5 .5h0q-.5 0-.5-.5zM6
0.5q0-.5 .5-.5h1q.5 0 .5 .5v0q0 .5-.5 .5h-1q-.5 0-.5-.5zM9
0.5q0-.5 .5-.5h0q.5 0 .5 .5v0q0 .5-.5 .5h0q-.5 0-.5-.5zM2
1.5q0-.5 .5-.5h2q.5 0 .5 .5v2q0 .5-.5 .5h-2q-.5 0-.5-.5zM0
2.5q0-.5 .5-.5h0q.5 0 .5 .5v5q0 .5-.5 .5h0q-.5 0-.5-.5zM3
2.5q0-.5 .5-.5h0q.5 0 .5 .5v0q0 .5-.5 .5h0q-.5 0-.5-.5zM7
2.5q0-.5 .5-.5h0q.5 0 .5 .5v2q0 .5-.5 .5h0q-.5 0-.5-.5zM6
3.5q0-.5 .5-.5h2q.5 0 .5 .5v0q0 .5-.5 .5h-2q-.5 0-.5-.5zM3
5.5q0-.5 .5-.5h1q.5 0 .5 .5v2q0 .5-.5 .5h-2q-.5 0-.5-.5v-1q0-.5 .5-.5h1q.5 0 .5 .5v0q0 .5-.5 .5h0q-.5 0-.5-.5zM9
5.5q0-.5 .5-.5h0q.5 0 .5 .5v0q0 .5-.5 .5h0q-.5 0-.5-.5zM7
6.5q0-.5 .5-.5h0q.5 0 .5 .5v1q0 .5 .5 .5h0q.5 0 .5-.5v0q0-.5-.5-.5h-2q-.5 0-.5 .5v0q0 .5 .5 .5h0q.5 0 .5-.5zM0
9.5q0-.5 .5-.5h0q.5 0 .5 .5v0q0 .5-.5 .5h0q-.5 0-.5-.5zM2
9.5q0-.5 .5-.5h5q.5 0 .5 .5v0q0 .5-.5 .5h-5q-.5 0-.5-.5zM9
9.5q0-.5 .5-.5h0q.5 0 .5 .5v0q0 .5-.5 .5h0q-.5 0-.5-.5z"/></svg>