<?xml version="1.0" standalone="yes"?><svg
xmlns="http://www.w3.org/2000/svg" version="1.1"
viewBox="-4 -4 49 49" width="128" height="128"><rect
x="-5" y="-5" width="51" height="51" style="fill:#fff"/><path
style="fill-rule:evenodd" d="M0
0.5q0-.5 .5-.5h6q.5 0 .5 .5v6q0 .5-.5 .5h-6q-.5 0-.5-.5zM9
0.5q0-.5 .5-.5h0q.5 0 .5 .5v1q0 .5 .5 .5h0q.5 0 .5 .5v0q0 .5 .5 .5h2q.5 0 .5 .5v1q0 .5-.5 .5h0q-.5 0-.5-.5v0q0-.5 .5-.5h2q.5 0 .5-.5v0q0-.5 .5-.5h0q.5 0 .5 .5v0q0 .5 .5 .5h0q.5 0 .5 .5v2q0 .5-.5 .5h-3q-.5 0-.5-.5v0q0-.5 .5-.5h2q.5 0 .5 .5v1q0 .5-.5 .5h-2q-.5 0-.5 .5v2q0 .5 .5 .5h0q.5 0 .5 .5v0q0 .5 .5 .5h1q.5 0 .5 .5v0q0 .5 .5 .5h2q.5 0 .5 .5v0q0 .5 .5 .5h0q.5 0 .5-.5v-1q0-.5-.5-.5h-2q-.5 0-.5 .5v2q0 .5 .5 .5h0q.5 0 .5-.5v0q0-.5-.5-.5h-3q-.5 0-.5-.5v0q0-.5-.5-.5h0q-.5 0-.5 .5v0q0 .5-.5 .5h-2q-.5 0-.5-.5v-1q0-.5 .5-.5h1q.5 0 .5 .5v2q0 .5-.5 .5h0q-.5 0-.5 .5v0q0 .5-.5 .5h0q-.5 0-.5 .5v1q0 .5 .5 .5h0q.5 0 .5-.5v0q0-.5 .5-.5h0q.5 0 .5 .5v0q0 .5 .5 .5h1q.5 0 .5-.5v-2q0-.5 .5-.5h0q.5 0 .5-.5v-4q0-.5 .5-.5h0q.5 0 .5 .5v0q0 .5 .5 .5h0q.5 0 .5-.5v-1q0-.5 .5-.5h0q.5 0 .5-.5v-2q0-.5 .5-.5h0q.5 0 .5 .5v0q0 .5 .5 .5h0q.5 0 .5-.5v-2q0-.5-.5-.5h-1q-.5 0-.5-.5v0q0-.5-.5-.5h0q-.5 0-.5-.5v0q0-.5-.5-.5h0q-.5 0-.5-.5v-1q0-.5-.5-.5h-2q-.5 0-.5 .5v0q0 .5-.5 .5h-2q-.5 0-.5-.5v0q0-.5 .5-.5h1q.5 0 .5 .5v1q0 .5-.5 .5h0q-.5 0-.5 .5v1q0 .5-.5 .5h0q-.5 0-.5 .5v4q0 .5 .5 .5h4q.5 0 .5-.5v-3q0-.5 .5-.5h3q.5 0 .5-.5v-1q0-.5 .5-.5h2q.5 0 .5-.5v-1q0-.5-.5-.5h-1q-.5 0-.5 .5v0q0 .5 .5 .5h0q.5 0 .5 .5v1q0 .5 .5 .5h0q.5 0 .5 .5v0q0 .5 .5 .5h0q.5 0 .5-.5v0q0-.5 .5-.5h1q.5 0 .5-.5v0q0-.5-.5-.5h-1q-.5 0-.5-.5v-2q0-.5-.5-.5h-4q-.5 0-.5 .5v1q0 .5 .5 .5h0q.5 0 .5-.5v0q0-.5-.5-.5h-3q-.5 0-.5 .5v0q0 .5-.5 .5h0q-.5 0-.5 .5v7q0 .5-.5 .5h-6q-.5 0-.5-.5v0q0-.5-.5-.5h-2q-.5 0-.5 .5v0q0 .5-.5 .5h0q-.5 0-.5-.5v0q0-.5-.5-.5h-3q-.5 0-.5-.5v0q0-.5 .5-.5h1q.5 0 .5 .5v5q0 .5-.5 .5h-1q-.5 0-.5-.5v0q0-.5 .5-.5h3q.5 0 .5 .5v2q0 .5-.5 .5h-2q-.5 0-.5 .5v0q0 .5-.5 .5h0q-.5 0-.5 .5v1q0 .5 .5 .5h0q.5 0 .5 .5v0q0 .5 .5 .5h1q.5 0 .5-.5v0q0-.5 .5-.5h1q.5 0 .5-.5v0q0-.5 .5-.5h1q.5 0 .5 .5v2q0 .5-.5 .5h-1q-.5 0-.5 .5v0q0 .5-.5 .5h0q-.5 0-.5 .5v0q0 .5-.5 .5h-3q-.5 0-.5 .5v4q0 .5 .5 .5h0q.5 0 .5 .5v3q0 .5-.5 .5h0q-.5 0-.5-.5v-1q0-.5 .5-.5h3q.5 0 .5-.5v0q0-.5 .5-.5h0q.5 0 .5 .5v2q0 .5 .5 .5h2q.5 0 .5 .5v0q0 .5-.5 .5h-1q-.5 0-.5-.5v-1q0-.5 .5-.5h1q.5 0 .5-.5v-1q0-.5 .5-.5h0q.5 0 .5 .5v0q0 .5 .5 .5h0q.5 0 .5-.5v0q0-.5 .5-.5h5q.5 0 .5-.5v-2q0-.5 .5-.5h1q.5 0 .5 .5v0q0 .5-.5 .5h0q-.5 0-.5-.5v-1q0-.5-.5-.5h-2q-.5 0-.5 .5v7q0 .5-.5 .5h-1q-.5 0-.5-.5v-1q0-.5 .5-.5h0q.5 0 .5 .5v0q0 .5 .5 .5h2q.5 0 .5 .5v0q0 .5-.5 .5h0q-.5 0-.5-.5v-1q0-.5 .5-.5h0q.5 0 .5-.5v0q0-.5 .5-.5h0q.5 0 .5 .5v0q0 .5 .5 .5h0q.5 0 .5-.5v0q0-.5 .5-.5h0q.5 0 .5-.5v-2q0-.5 .5-.5h0q.5 0 .5 .5v2q0 .5 .5 .5h0q.5 0 .5-.5v0q0-.5 .5-.5h0q.5 0 .5-.5v0q0-.5-.5-.5h-6q-.5 0-.5-.5v0q0-.5-.5-.5h-2q-.5 0-.5 .5v2q0 .5 .5 .5h0q.5 0 .5-.5v-4q0-.5-.5-.5h-1q-.5 0-.5-.5v0q0-.5-.5-.5h-7q-.5 0-.5-.5v-2q0-.5-.5-.5h0q-.5 0-.5 .5v0q0 .5-.5 .5h-1q-.5 0-.5-.5v0q0-.5 .5-.5h0q.5 0 .5 .5v3q0 .5 .5 .5h5q.5 0 .5-.5v-2q0-.5-.5-.5h0q-.5 0-.5-.5v-2q0-.5 .5-.5h1q.5 0 .5-.5v-1q0-.5 .5-.5h1q.5 0 .5-.5v-3q0-.5 .5-.5h1q.5 0 .5-.5v-7q0-.5-.5-.5h-2q-.5 0-.5-.5zM26
0.5q0-.5 .5-.5h0q.5 0 .5 .5v1q0 .5-.5 .5h0q-.5 0-.5-.5zM30
0.5q0-.5 .5-.5h0q.5 0 .5 .5v0q0 .5-.5 .5h0q-.5 0-.5-.5zM32
0.5q0-.5 .5-.5h0q.5 0 .5 .5v0q0 .5-.5 .5h0q-.5 0-.5-.5zM34
0.5q0-.5 .5-.5h6q.5 0 .5 .5v6q0 .5-.5 .5h-6q-.5 0-.5-.5zM1
1.5q0-.5 .5-.5h4q.5 0 .5 .5v4q0 .5-.5 .5h-4q-.5 0-.5-.5zM25
1.5q0-.5 .5-.5h3q.5 0 .5 .5v3q0 .5 .5 .5h0q.5 0 .5-.5v0q0-.5 .5-.5h2q.5 0 .5 .5v3q0 .5 .5 .5h0q.5 0 .5 .5v0q0 .5-.5 .5h0q-.5 0-.5 .5v0q0 .5 .5 .5h4q.5 0 .5-.5v-1q0-.5-.5-.5h0q-.5 0-.5 .5v2q0 .5-.5 .5h-1q-.5 0-.5-.5v-1q0-.5 .5-.5h0q.5 0 .5 .5v4q0 .5 .5 .5h0q.5 0 .5 .5v0q0 .5-.5 .5h-1q-.5 0-.5-.5v-2q0-.5-.5-.5h-1q-.5 0-.5-.5v0q0-.5 .5-.5h0q.5 0 .5 .5v4q0 .5 .5 .5h0q.5 0 .5 .5v2q0 .5 .5 .5h0q.5 0 .5-.5v0q0-.5-.5-.5h-1q-.5 0-.5-.5v0q0-.5-.5-.5h0q-.5 0-.5 .5v2q0 .5-.5 .5h0q-.5 0-.5-.5v0q0-.5 .5-.5h1q.5 0 .5 .5v1q0 .5 .5 .5h1q.5 0 .5 .5v3q0 .5 .5 .5h2q.5 0 .5-.5v0q0-.5-.5-.5h0q-.5 0-.5-.5v0q0-.5-.5-.5h-3q-.5 0-.5-.5v0q0-.5-.5-.5h0q-.5 0-.5-.5v0q0-.5-.5-.5h-1q-.5 0-.5 .5v0q0 .5 .5 .5h0q.5 0 .5 .5v1q0 .5-.5 .5h-2q-.5 0-.5 .5v2q0 .5-.5 .5h-1q-.5 0-.5 .5v1q0 .5 .5 .5h1q.5 0 .5-.5v0q0-.5-.5-.5h-2q-.5 0-.5 .5v0q0 .5-.5 .5h-1q-.5 0-.5 .5v2q0 .5-.5 .5h0q-.5 0-.5-.5v0q0-.5 .5-.5h1q.5 0 .5-.5v0q0-.5-.5-.5h-2q-.5 0-.5 .5v1q0 .5-.5 .5h0q-.5 0-.5 .5v0q0 .5-.5 .5h-2q-.5 0-.5-.5v0q0-.5 .5-.5h1q.5 0 .5 .5v2q0 .5-.5 .5h0q-.5 0-.5 .5v3q0 .5 .5 .5h0q.5 0 .5-.5v-2q0-.5-.5-.5h-4q-.5 0-.5 .5v2q0 .5 .5 .5h0q.5 0 .5 .5v0q0 .5 .5 .5h0q.5 0 .5-.5v-2q0-.5-.5-.5h-2q-.5 0-.5 .5v3q0 .5 .5 .5h4q.5 0 .5-.5v0q0-.5 .5-.5h1q.5 0 .5 .5v0q0 .5 .5 .5h0q.5 0 .5-.5v0q0-.5 .5-.5h3q.5 0 .5 .5v0q0 .5 .5 .5h0q.5 0 .5-.5v-1q0-.5-.5-.5h-3q-.5 0-.5 .5v1q0 .5 .5 .5h0q.5 0 .5-.5v-7q0-.5-.5-.5h0q-.5 0-.5 .5v3q0 .5 .5 .5h4q.5 0 .5-.5v0q0-.5-.5-.5h0q-.5 0-.5-.5v-1q0-.5-.5-.5h-1q-.5 0-.5 .5v1q0 .5 .5 .5h0q.5 0 .5 .5v1q0 .5-.5 .5h-3q-.5 0-.5 .5v0q0 .5-.5 .5h0q-.5 0-.5-.5v0q0-.5-.5-.5h-4q-.5 0-.5-.5v-3q0-.5-.5-.5h-3q-.5 0-.5 .5v4q0 .5-.5 .5h0q-.5 0-.5 .5v1q0 .5 .5 .5h1q.5 0 .5-.5v0q0-.5-.5-.5h-2q-.5 0-.5 .5v0q0 .5-.5 .5h-1q-.5 0-.5-.5v-1q0-.5 .5-.5h0q.5 0 .5-.5v0q0-.5-.5-.5h0q-.5 0-.5-.5v-2q0-.5 .5-.5h8q.5 0 .5-.5v0q0-.5 .5-.5h0q.5 0 .5 .5v2q0 .5 .5 .5h3q.5 0 .5-.5v0q0-.5-.5-.5h0q-.5 0-.5-.5v0q0-.5 .5-.5h7q.5 0 .5-.5v0q0-.5 .5-.5h0q.5 0 .5-.5v-4q0-.5 .5-.5h1q.5 0 .5 .5v1q0 .5 .5 .5h0q.5 0 .5-.5v-4q0-.5-.5-.5h-1q-.5 0-.5-.5v0q0-.5 .5-.5h0q.5 0 .5 .5v2q0 .5 .5 .5h2q.5 0 .5-.5v0q0-.5 .5-.5h0q.5 0 .5-.5v0q0-.5-.5-.5h0q-.5 0-.5-.5v0q0-.5-.5-.5h0q-.5 0-.5-.5v0q0-.5-.5-.5h0q-.5 0-.5-.5v0q0-.5-.5-.5h-2q-.5 0-.5 .5v1q0 .5-.5 .5h-1q-.5 0-.5 .5v0q0 .5 .5 .5h1q.5 0 .5 .5v0q0 .5 .5 .5h0q.5 0 .5 .5v3q0 .5-.5 .5h-1q-.5 0-.5 .5v1q0 .5-.5 .5h0q-.5 0-.5-.5v0q0-.5-.5-.5h-2q-.5 0-.5 .5v0q0 .5 .5 .5h0q.5 0 .5-.5v-1q0-.5 .5-.5h1q.5 0 .5-.5v0q0-.5 .5-.5h8q.5 0 .5-.5v-3q0-.5 .5-.5h0q.5 0 .5 .5v0q0 .5 .5 .5h0q.5 0 .5-.5v0q0-.5 .5-.5h0q.5 0 .5-.5v-3q0-.5 .5-.5h0q.5 0 .5 .5v0q0 .5-.5 .5h-1q-.5 0-.5-.5v0q0-.5-.5-.5h-1q-.5 0-.5 .5v1q0 .5-.5 .5h-1q-.5 0-.5-.5v-3q0-.5 .5-.5h3q.5 0 .5-.5v-2q0-.5-.5-.5h0q-.5 0-.5-.5v-1q0-.5 .5-.5h0q.5 0 .5-.5v0q0-.5 .5-.5h0q.5 0 .5-.5v-1q0-.5 .5-.5h0q.5 0 .5 .5v0q0 .5-.5 .5h-1q-.5 0-.5-.5v-1q0-.5-.5-.5h0q-.5 0-.5 .5v1q0 .5-.5 .5h-4q-.5 0-.5 .5v0q0 .5-.5 .5h-2q-.5 0-.5-.5v-2q0-.5 .5-.5h1q.5 0 .5 .5v4q0 .5 .5 .5h0q.5 0 .5-.5v0q0-.5-.5-.5h-3q-.5 0-.5 .5v0q0 .5-.5 .5h-4q-.5 0-.5-.5v0q0-.5-.5-.5h-1q-.5 0-.5-.5v0q0-.5 .5-.5h4q.5 0 .5-.5v-2q0-.5 .5-.5h0q.5 0 .5 .5v2q0 .5 .5 .5h0q.5 0 .5-.5v0q0-.5-.5-.5h-3q-.5 0-.5 .5v1q0 .5 .5 .5h2q.5 0 .5 .5v1q0 .5-.5 .5h0q-.5 0-.5 .5v2q0 .5 .5 .5h0q.5 0 .5-.5v-1q0-.5-.5-.5h-1q-.5 0-.5 .5v0q0 .5 .5 .5h2q.5 0 .5-.5v0q0-.5 .5-.5h1q.5 0 .5 .5v1q0 .5-.5 .5h0q-.5 0-.5-.5v-3q0-.5 .5-.5h0q.5 0 .5-.5v-3q0-.5-.5-.5h-4q-.5 0-.5-.5v0q0-.5-.5-.5h0q-.5 0-.5-.5v0q0-.5 .5-.5h1q.5 0 .5-.5v0q0-.5-.5-.5h-1q-.5 0-.5-.5v-2q0-.5-.5-.5h0q-.5 0-.5 .5v0q0 .5 .5 .5h1q.5 0 .5-.5v0q0-.5 .5-.5h0q.5 0 .5 .5v1q0 .5 .5 .5h1q.5 0 .5 .5v1q0 .5 .5 .5h0q.5 0 .5-.5v-1q0-.5 .5-.5h1q.5 0 .5-.5v-5q0-.5 .5-.5h0q.5 0 .5 .5v0q0 .5-.5 .5h-2q-.5 0-.5-.5v0q0-.5 .5-.5h0q.5 0 .5 .5v4q0 .5-.5 .5h0q-.5 0-.5-.5v0q0-.5-.5-.5h0q-.5 0-.5 .5v0q0 .5-.5 .5h0q-.5 0-.5-.5v-1q0-.5-.5-.5h-2q-.5 0-.5-.5zM35
1.5q0-.5 .5-.5h4q.5 0 .5 .5v4q0 .5-.5 .5h-4q-.5 0-.5-.5zM2
2.5q0-.5 .5-.5h2q.5 0 .5 .5v2q0 .5-.5 .5h-2q-.5 0-.5-.5zM36
2.5q0-.5 .5-.5h2q.5 0 .5 .5v2q0 .5-.5 .5h-2q-.5 0-.5-.5zM8
3.5q0-.5 .5-.5h1q.5 0 .5 .5v0q0 .5-.5 .5h-1q-.5 0-.5-.5zM8
6.5q0-.5 .5-.5h0q.5 0 .5 .5v1q0 .5 .5 .5h0q.5 0 .5 .5v2q0 .5 .5 .5h2q.5 0 .5-.5v-4q0-.5-.5-.5h-2q-.5 0-.5 .5v0q0 .5-.5 .5h-1q-.5 0-.5-.5zM22
6.5q0-.5 .5-.5h0q.5 0 .5 .5v2q0 .5-.5 .5h-2q-.5 0-.5 .5v1q0 .5-.5 .5h0q-.5 0-.5-.5v0q0-.5 .5-.5h3q.5 0 .5 .5v1q0 .5-.5 .5h0q-.5 0-.5-.5zM3
8.5q0-.5 .5-.5h3q.5 0 .5 .5v1q0 .5-.5 .5h0q-.5 0-.5 .5v6q0 .5 .5 .5h0q.5 0 .5-.5v0q0-.5-.5-.5h-1q-.5 0-.5-.5v-2q0-.5 .5-.5h3q.5 0 .5-.5v0q0-.5-.5-.5h0q-.5 0-.5-.5v0q0-.5-.5-.5h-2q-.5 0-.5 .5v0q0 .5 .5 .5h1q.5 0 .5 .5v2q0 .5-.5 .5h-4q-.5 0-.5 .5v2q0 .5 .5 .5h0q.5 0 .5-.5v0q0-.5 .5-.5h0q.5 0 .5 .5v2q0 .5 .5 .5h3q.5 0 .5 .5v2q0 .5-.5 .5h-2q-.5 0-.5 .5v3q0 .5 .5 .5h3q.5 0 .5-.5v0q0-.5 .5-.5h0q.5 0 .5-.5v-2q0-.5-.5-.5h0q-.5 0-.5 .5v1q0 .5-.5 .5h0q-.5 0-.5 .5v2q0 .5 .5 .5h2q.5 0 .5-.5v-1q0-.5 .5-.5h3q.5 0 .5-.5v-2q0-.5-.5-.5h0q-.5 0-.5-.5v0q0-.5-.5-.5h0q-.5 0-.5 .5v0q0 .5-.5 .5h-1q-.5 0-.5-.5v-2q0-.5-.5-.5h0q-.5 0-.5 .5v1q0 .5 .5 .5h1q.5 0 .5-.5v-2q0-.5-.5-.5h-2q-.5 0-.5-.5v-4q0-.5-.5-.5h-5q-.5 0-.5-.5v-1q0-.5 .5-.5h0q.5 0 .5-.5v0q0-.5-.5-.5h-2q-.5 0-.5 .5v0q0 .5-.5 .5h0q-.5 0-.5-.5v-1q0-.5 .5-.5h2q.5 0 .5-.5zM31
9.5q0-.5 .5-.5h0q.5 0 .5 .5v0q0 .5-.5 .5h0q-.5 0-.5-.5zM39
9.5q0-.5 .5-.5h1q.5 0 .5 .5v0q0 .5-.5 .5h-1q-.5 0-.5-.5zM36
16.5q0-.5 .5-.5h0q.5 0 .5 .5v0q0 .5-.5 .5h0q-.5 0-.5-.5zM40
16.5q0-.5 .5-.5h0q.5 0 .5 .5v0q0 .5-.5 .5h0q-.5 0-.5-.5zM13
19.5q0-.5 .5-.5h0q.5 0 .5 .5v1q0 .5-.5 .5h0q-.5 0-.5-.5zM37
19.5q0-.5 .5-.5h0q.5 0 .5 .5v1q0 .5-.5 .5h0q-.5 0-.5-.5zM27
21.5q0-.5 .5-.5h2q.5 0 .5 .5v0q0 .5-.5 .5h-3q-.5 0-.5 .5v0q0 .5 .5 .5h1q.5 0 .5 .5v0q0 .5-.5 .5h-1q-.5 0-.5 .5v0q0 .5 .5 .5h0q.5 0 .5-.5zM24
25.5q0-.5 .5-.5h0q.5 0 .5 .5v0q0 .5-.5 .5h0q-.5 0-.5-.5zM2
26.5q0-.5 .5-.5h0q.5 0 .5 .5v0q0 .5-.5 .5h0q-.5 0-.5-.5zM6
26.5q0-.5 .5-.5h0q.5 0 .5 .5v1q0 .5-.5 .5h0q-.5 0-.5-.5zM22
26.5q0-.5 .5-.5h0q.5 0 .5 .5v0q0 .5-.5 .5h0q-.5 0-.5-.5zM24
27.5q0-.5 .5-.5h0q.5 0 .5 .5v0q0 .5-.5 .5h0q-.5 0-.5-.5zM40
27.5q0-.5 .5-.5h0q.5 0 .5 .5v0q0 .5-.5 .5h-2q-.5 0-.5 .5v0q0 .5-.5 .5h-3q-.5 0-.5 .5v1q0 .5 .5 .5h2q.5 0 .5 .5v1q0 .5 .5 .5h0q.5 0 .5 .5v1q0 .5-.5 .5h0q-.5 0-.5 .5v0q0 .5 .5 .5h2q.5 0 .5 .5v0q0 .5-.5 .5h-5q-.5 0-.5 .5v3q0 .5-.5 .5h-1q-.5 0-.5-.5v0q0-.5 .5-.5h0q.5 0 .5-.5v-2q0-.5-.5-.5h0q-.5 0-.5 .5v1q0 .5 .5 .5h2q.5 0 .5 .5v1q0 .5 .5 .5h1q.5 0 .5-.5v-1q0-.5 .5-.5h2q.5 0 .5-.5v0q0-.5-.5-.5h-1q-.5 0-.5 .5v2q0 .5 .5 .5h0q.5 0 .5-.5v-5q0-.5 .5-.5h1q.5 0 .5 .5v4q0 .5-.5 .5h-4q-.5 0-.5-.5v-1q0-.5-.5-.5h-5q-.5 0-.5-.5v-2q0-.5 .5-.5h0q.5 0 .5 .5v0q0 .5 .5 .5h0q.5 0 .5-.5v-1q0-.5-.5-.5h0q-.5 0-.5-.5v0q0-.5 .5-.5h0q.5 0 .5-.5v0q0-.5 .5-.5h5q.5 0 .5-.5v-1q0-.5 .5-.5h2q.5 0 .5-.5v0q0-.5-.5-.5h0q-.5 0-.5-.5zM6
29.5q0-.5 .5-.5h0q.5 0 .5 .5v0q0 .5-.5 .5h0q-.5 0-.5-.5zM2
31.5q0-.5 .5-.5h1q.5 0 .5 .5v1q0 .5-.5 .5h0q-.5 0-.5-.5v0q0-.5-.5-.5h0q-.5 0-.5-.5zM10
31.5q0-.5 .5-.5h0q.5 0 .5 .5v0q0 .5-.5 .5h-1q-.5 0-.5 .5v4q0 .5 .5 .5h3q.5 0 .5 .5v0q0 .5-.5 .5h-1q-.5 0-.5-.5v-1q0-.5-.5-.5h0q-.5 0-.5-.5zM39
31.5q0-.5 .5-.5h0q.5 0 .5 .5v0q0 .5 .5 .5h0q.5 0 .5 .5v1q0 .5-.5 .5h-1q-.5 0-.5-.5zM33
33.5q0-.5 .5-.5h2q.5 0 .5 .5v2q0 .5-.5 .5h-2q-.5 0-.5-.5zM0
34.5q0-.5 .5-.5h6q.5 0 .5 .5v6q0 .5-.5 .5h-6q-.5 0-.5-.5zM34
34.5q0-.5 .5-.5h0q.5 0 .5 .5v0q0 .5-.5 .5h0q-.5 0-.5-.5zM1
35.5q0-.5 .5-.5h4q.5 0 .5 .5v4q0 .5-.5 .5h-4q-.5 0-.5-.5zM2
36.5q0-.5 .5-.5h2q.5 0 .5 .5v2q0 .5-.5 .5h-2q-.5 0-.5-.5zM30
39.5q0-.5 .5-.5h0q.5 0 .5 .5v1q0 .5-.5 .5h-1q-.5 0-.5-.5v0q0-.5 .5-.5h0q.5 0 .5-.5z"/></svg>