<?xml version="1.0" standalone="yes"?>
<svg xmlns="http://www.w3.org/2000/svg" version="1.1" width="61" height="61">
  <rect x="0" y="0" width="61" height="61" style="fill:#ffffff;shape-rendering:crispEdges;"/>
  <rect x="5.951219512195122" y="5.951219512195122" width="1.4878048780487805" height="1.4878048780487805" style="fill:#000000;shape-rendering:crispEdges;"/>
  <rect x="7.439024390243903" y="5.951219512195122" width="1.4878048780487805" height="1.4878048780487805" style="fill:#000000;shape-rendering:crispEdges;"/>
  <rect x="8.926829268292682" y="5.951219512195122" width="1.4878048780487805" height="1.4878048780487805" style="fill:#000000;shape-rendering:crispEdges;"/>
  <rect x="10.414634146341463" y="5.951219512195122" width="1.4878048780487805" height="1.4878048780487805" style="fill:#000000;shape-rendering:crispEdges;"/>
  <rect x="11.902439024390244" y="5.951219512195122" width="1.4878048780487805" height="1.4878048780487805" style="fill:#000000;shape-rendering:crispEdges;"/>
  <rect x="13.390243902439025" y="5.951219512195122" width="1.4878048780487805" height="1.4878048780487805" style="fill:#000000;shape-rendering:crispEdges;"/>
  <rect x="14.878048780487804" y="5.951219512195122" width="1.4878048780487805" height="1.4878048780487805" style="fill:#000000;shape-rendering:crispEdges;"/>
  <rect x="17.853658536585364" y="5.951219512195122" width="1.4878048780487805" height="1.4878048780487805" style="fill:#000000;shape-rendering:crispEdges;"/>
  <rect x="20.829268292682926" y="5.951219512195122" width="1.4878048780487805" height="1.4878048780487805" style="fill:#000000;shape-rendering:crispEdges;"/>
  <rect x="22.31707317073171" y="5.951219512195122" width="1.4878048780487805" height="1.4878048780487805" style="fill:#000000;shape-rendering:crispEdges;"/>
  <rect x="25.292682926829265" y="5.951219512195122" width="1.4878048780487805" height="1.4878048780487805" style="fill:#000000;shape-rendering:crispEdges;"/>
  <rect x="34.21951219512195" y="5.951219512195122" width="1.4878048780487805" height="1.4878048780487805" style="fill:#000000;shape-rendering:crispEdges;"/>
  <rect x="35.707317073170735" y="5.951219512195122" width="1.4878048780487805" height="1.4878048780487805" style="fill:#000000;shape-rendering:crispEdges;"/>
  <rect x="37.19512195121951" y="5.951219512195122" width="1.4878048780487805" height="1.4878048780487805" style="fill:#000000;shape-rendering:crispEdges;"/>
  <rect x="41.65853658536585" y="5.951219512195122" width="1.4878048780487805" height="1.4878048780487805" style="fill:#000000;shape-rendering:crispEdges;"/>
  <rect x="44.63414634146341" y="5.951219512195122" width="1.4878048780487805" height="1.4878048780487805" style="fill:#000000;shape-rendering:crispEdges;"/>
  <rect x="46.1219512195122" y="5.951219512195122" width="1.4878048780487805" height="1.4878048780487805" style="fill:#000000;shape-rendering:crispEdges;"/>
  <rect x="47.609756097560975" y="5.951219512195122" width="1.4878048780487805" height="1.4878048780487805" style="fill:#000000;shape-rendering:crispEdges;"/>
  <rect x="49.09756097560976" y="5.951219512195122" width="1.4878048780487805" height="1.4878048780487805" style="fill:#000000;shape-rendering:crispEdges;"/>
  <rect x="50.58536585365854" y="5.951219512195122" width="1.4878048780487805" height="1.4878048780487805" style="fill:#000000;shape-rendering:crispEdges;"/>
  <rect x="52.07317073170732" y="5.951219512195122" width="1.4878048780487805" height="1.4878048780487805" style="fill:#000000;shape-rendering:crispEdges;"/>
  <rect x="53.5609756097561" y="5.951219512195122" width="1.4878048780487805" height="1.4878048780487805" style="fill:#000000;shape-rendering:crispEdges;"/>
  <rect x="5.951219512195122" y="7.439024390243903" width="1.4878048780487805" height="1.4878048780487805" style="fill:#000000;shape-rendering:crispEdges;"/>
  <rect x="14.878048780487804" y="7.439024390243903" width="1.4878048780487805" height="1.4878048780487805" style="fill:#000000;shape-rendering:crispEdges;"/>
  <rect x="19.34146341463415" y="7.439024390243903" width="1.4878048780487805" height="1.4878048780487805" style="fill:#000000;shape-rendering:crispEdges;"/>
  <rect x="20.829268292682926" y="7.439024390243903" width="1.4878048780487805" height="1.4878048780487805" style="fill:#000000;shape-rendering:crispEdges;"/>
  <rect x="23.804878048780488" y="7.439024390243903" width="1.4878048780487805" height="1.4878048780487805" style="fill:#000000;shape-rendering:crispEdges;"/>
  <rect x="28.268292682926827" y="7.439024390243903" width="1.4878048780487805" height="1.4878048780487805" style="fill:#000000;shape-rendering:crispEdges;"/>
  <rect x="37.19512195121951" y="7.439024390243903" width="1.4878048780487805" height="1.4878048780487805" style="fill:#000000;shape-rendering:crispEdges;"/>
  <rect x="40.170731707317074" y="7.439024390243903" width="1.4878048780487805" height="1.4878048780487805" style="fill:#000000;shape-rendering:crispEdges;"/>
  <rect x="44.63414634146341" y="7.439024390243903" width="1.4878048780487805" height="1.4878048780487805" style="fill:#000000;shape-rendering:crispEdges;"/>
  <rect x="53.5609756097561" y="7.439024390243903" width="1.4878048780487805" height="1.4878048780487805" style="fill:#000000;shape-rendering:crispEdges;"/>
  <rect x="5.951219512195122" y="8.926829268292682" width="1.4878048780487805" height="1.4878048780487805" style="fill:#000000;shape-rendering:crispEdges;"/>
  <rect x="8.926829268292682" y="8.926829268292682" width="1.4878048780487805" height="1.4878048780487805" style="fill:#000000;shape-rendering:crispEdges;"/>
  <rect x="10.414634146341463" y="8.926829268292682" width="1.4878048780487805" height="1.4878048780487805" style="fill:#000000;shape-rendering:crispEdges;"/>
  <rect x="11.902439024390244" y="8.926829268292682" width="1.4878048780487805" height="1.4878048780487805" style="fill:#000000;shape-rendering:crispEdges;"/>
  <rect x="14.878048780487804" y="8.926829268292682" width="1.4878048780487805" height="1.4878048780487805" style="fill:#000000;shape-rendering:crispEdges;"/>
  <rect x="17.853658536585364" y="8.926829268292682" width="1.4878048780487805" height="1.4878048780487805" style="fill:#000000;shape-rendering:crispEdges;"/>
  <rect x="23.804878048780488" y="8.926829268292682" width="1.4878048780487805" height="1.4878048780487805" style="fill:#000000;shape-rendering:crispEdges;"/>
  <rect x="25.292682926829265" y="8.926829268292682" width="1.4878048780487805" height="1.4878048780487805" style="fill:#000000;shape-rendering:crispEdges;"/>
  <rect x="34.21951219512195" y="8.926829268292682" width="1.4878048780487805" height="1.4878048780487805" style="fill:#000000;shape-rendering:crispEdges;"/>
  <rect x="35.707317073170735" y="8.926829268292682" width="1.4878048780487805" height="1.4878048780487805" style="fill:#000000;shape-rendering:crispEdges;"/>
  <rect x="37.19512195121951" y="8.926829268292682" width="1.4878048780487805" height="1.4878048780487805" style="fill:#000000;shape-rendering:crispEdges;"/>
  <rect x="38.6829268292683" y="8.926829268292682" width="1.4878048780487805" height="1.4878048780487805" style="fill:#000000;shape-rendering:crispEdges;"/>
  <rect x="40.170731707317074" y="8.926829268292682" width="1.4878048780487805" height="1.4878048780487805" style="fill:#000000;shape-rendering:crispEdges;"/>
  <rect x="41.65853658536585" y="8.926829268292682" width="1.4878048780487805" height="1.4878048780487805" style="fill:#000000;shape-rendering:crispEdges;"/>
  <rect x="44.63414634146341" y="8.926829268292682" width="1.4878048780487805" height="1.4878048780487805" style="fill:#000000;shape-rendering:crispEdges;"/>
  <rect x="47.609756097560975" y="8.926829268292682" width="1.4878048780487805" height="1.4878048780487805" style="fill:#000000;shape-rendering:crispEdges;"/>
  <rect x="49.09756097560976" y="8.926829268292682" width="1.4878048780487805" height="1.4878048780487805" style="fill:#000000;shape-rendering:crispEdges;"/>
  <rect x="50.58536585365854" y="8.926829268292682" width="1.4878048780487805" height="1.4878048780487805" style="fill:#000000;shape-rendering:crispEdges;"/>
  <rect x="53.5609756097561" y="8.926829268292682" width="1.4878048780487805" height="1.4878048780487805" style="fill:#000000;shape-rendering:crispEdges;"/>
  <rect x="5.951219512195122" y="10.414634146341463" width="1.4878048780487805" height="1.4878048780487805" style="fill:#000000;shape-rendering:crispEdges;"/>
  <rect x="8.926829268292682" y="10.414634146341463" width="1.4878048780487805" height="1.4878048780487805" style="fill:#000000;shape-rendering:crispEdges;"/>
  <rect x="10.414634146341463" y="10.414634146341463" width="1.4878048780487805" height="1.4878048780487805" style="fill:#000000;shape-rendering:crispEdges;"/>
  <rect x="11.902439024390244" y="10.414634146341463" width="1.4878048780487805" height="1.4878048780487805" style="fill:#000000;shape-rendering:crispEdges;"/>
  <rect x="14.878048780487804" y="10.414634146341463" width="1.4878048780487805" height="1.4878048780487805" style="fill:#000000;shape-rendering:crispEdges;"/>
  <rect x="17.853658536585364" y="10.414634146341463" width="1.4878048780487805" height="1.4878048780487805" style="fill:#000000;shape-rendering:crispEdges;"/>
  <rect x="20.829268292682926" y="10.414634146341463" width="1.4878048780487805" height="1.4878048780487805" style="fill:#000000;shape-rendering:crispEdges;"/>
  <rect x="23.804878048780488" y="10.414634146341463" width="1.4878048780487805" height="1.4878048780487805" style="fill:#000000;shape-rendering:crispEdges;"/>
  <rect x="28.268292682926827" y="10.414634146341463" width="1.4878048780487805" height="1.4878048780487805" style="fill:#000000;shape-rendering:crispEdges;"/>
  <rect x="29.75609756097561" y="10.414634146341463" width="1.4878048780487805" height="1.4878048780487805" style="fill:#000000;shape-rendering:crispEdges;"/>
  <rect x="31.24390243902439" y="10.414634146341463" width="1.4878048780487805" height="1.4878048780487805" style="fill:#000000;shape-rendering:crispEdges;"/>
  <rect x="34.21951219512195" y="10.414634146341463" width="1.4878048780487805" height="1.4878048780487805" style="fill:#000000;shape-rendering:crispEdges;"/>
  <rect x="35.707317073170735" y="10.414634146341463" width="1.4878048780487805" height="1.4878048780487805" style="fill:#000000;shape-rendering:crispEdges;"/>
  <rect x="37.19512195121951" y="10.414634146341463" width="1.4878048780487805" height="1.4878048780487805" style="fill:#000000;shape-rendering:crispEdges;"/>
  <rect x="38.6829268292683" y="10.414634146341463" width="1.4878048780487805" height="1.4878048780487805" style="fill:#000000;shape-rendering:crispEdges;"/>
  <rect x="40.170731707317074" y="10.414634146341463" width="1.4878048780487805" height="1.4878048780487805" style="fill:#000000;shape-rendering:crispEdges;"/>
  <rect x="44.63414634146341" y="10.414634146341463" width="1.4878048780487805" height="1.4878048780487805" style="fill:#000000;shape-rendering:crispEdges;"/>
  <rect x="47.609756097560975" y="10.414634146341463" width="1.4878048780487805" height="1.4878048780487805" style="fill:#000000;shape-rendering:crispEdges;"/>
  <rect x="49.09756097560976" y="10.414634146341463" width="1.4878048780487805" height="1.4878048780487805" style="fill:#000000;shape-rendering:crispEdges;"/>
  <rect x="50.58536585365854" y="10.414634146341463" width="1.4878048780487805" height="1.4878048780487805" style="fill:#000000;shape-rendering:crispEdges;"/>
  <rect x="53.5609756097561" y="10.414634146341463" width="1.4878048780487805" height="1.4878048780487805" style="fill:#000000;shape-rendering:crispEdges;"/>
  <rect x="5.951219512195122" y="11.902439024390244" width="1.4878048780487805" height="1.4878048780487805" style="fill:#000000;shape-rendering:crispEdges;"/>
  <rect x="8.926829268292682" y="11.902439024390244" width="1.4878048780487805" height="1.4878048780487805" style="fill:#000000;shape-rendering:crispEdges;"/>
  <rect x="10.414634146341463" y="11.902439024390244" width="1.4878048780487805" height="1.4878048780487805" style="fill:#000000;shape-rendering:crispEdges;"/>
  <rect x="11.902439024390244" y="11.902439024390244" width="1.4878048780487805" height="1.4878048780487805" style="fill:#000000;shape-rendering:crispEdges;"/>
  <rect x="14.878048780487804" y="11.902439024390244" width="1.4878048780487805" height="1.4878048780487805" style="fill:#000000;shape-rendering:crispEdges;"/>
  <rect x="20.829268292682926" y="11.902439024390244" width="1.4878048780487805" height="1.4878048780487805" style="fill:#000000;shape-rendering:crispEdges;"/>
  <rect x="29.75609756097561" y="11.902439024390244" width="1.4878048780487805" height="1.4878048780487805" style="fill:#000000;shape-rendering:crispEdges;"/>
  <rect x="31.24390243902439" y="11.902439024390244" width="1.4878048780487805" height="1.4878048780487805" style="fill:#000000;shape-rendering:crispEdges;"/>
  <rect x="34.21951219512195" y="11.902439024390244" width="1.4878048780487805" height="1.4878048780487805" style="fill:#000000;shape-rendering:crispEdges;"/>
  <rect x="35.707317073170735" y="11.902439024390244" width="1.4878048780487805" height="1.4878048780487805" style="fill:#000000;shape-rendering:crispEdges;"/>
  <rect x="37.19512195121951" y="11.902439024390244" width="1.4878048780487805" height="1.4878048780487805" style="fill:#000000;shape-rendering:crispEdges;"/>
  <rect x="44.63414634146341" y="11.902439024390244" width="1.4878048780487805" height="1.4878048780487805" style="fill:#000000;shape-rendering:crispEdges;"/>
  <rect x="47.609756097560975" y="11.902439024390244" width="1.4878048780487805" height="1.4878048780487805" style="fill:#000000;shape-rendering:crispEdges;"/>
  <rect x="49.09756097560976" y="11.902439024390244" width="1.4878048780487805" height="1.4878048780487805" style="fill:#000000;shape-rendering:crispEdges;"/>
  <rect x="50.58536585365854" y="11.902439024390244" width="1.4878048780487805" height="1.4878048780487805" style="fill:#000000;shape-rendering:crispEdges;"/>
  <rect x="53.5609756097561" y="11.902439024390244" width="1.4878048780487805" height="1.4878048780487805" style="fill:#000000;shape-rendering:crispEdges;"/>
  <rect x="5.951219512195122" y="13.390243902439025" width="1.4878048780487805" height="1.4878048780487805" style="fill:#000000;shape-rendering:crispEdges;"/>
  <rect x="14.878048780487804" y="13.390243902439025" width="1.4878048780487805" height="1.4878048780487805" style="fill:#000000;shape-rendering:crispEdges;"/>
  <rect x="17.853658536585364" y="13.390243902439025" width="1.4878048780487805" height="1.4878048780487805" style="fill:#000000;shape-rendering:crispEdges;"/>
  <rect x="20.829268292682926" y="13.390243902439025" width="1.4878048780487805" height="1.4878048780487805" style="fill:#000000;shape-rendering:crispEdges;"/>
  <rect x="22.31707317073171" y="13.390243902439025" width="1.4878048780487805" height="1.4878048780487805" style="fill:#000000;shape-rendering:crispEdges;"/>
  <rect x="34.21951219512195" y="13.390243902439025" width="1.4878048780487805" height="1.4878048780487805" style="fill:#000000;shape-rendering:crispEdges;"/>
  <rect x="35.707317073170735" y="13.390243902439025" width="1.4878048780487805" height="1.4878048780487805" style="fill:#000000;shape-rendering:crispEdges;"/>
  <rect x="37.19512195121951" y="13.390243902439025" width="1.4878048780487805" height="1.4878048780487805" style="fill:#000000;shape-rendering:crispEdges;"/>
  <rect x="38.6829268292683" y="13.390243902439025" width="1.4878048780487805" height="1.4878048780487805" style="fill:#000000;shape-rendering:crispEdges;"/>
  <rect x="44.63414634146341" y="13.390243902439025" width="1.4878048780487805" height="1.4878048780487805" style="fill:#000000;shape-rendering:crispEdges;"/>
  <rect x="53.5609756097561" y="13.390243902439025" width="1.4878048780487805" height="1.4878048780487805" style="fill:#000000;shape-rendering:crispEdges;"/>
  <rect x="5.951219512195122" y="14.878048780487804" width="1.4878048780487805" height="1.4878048780487805" style="fill:#000000;shape-rendering:crispEdges;"/>
  <rect x="7.439024390243903" y="14.878048780487804" width="1.4878048780487805" height="1.4878048780487805" style="fill:#000000;shape-rendering:crispEdges;"/>
  <rect x="8.926829268292682" y="14.878048780487804" width="1.4878048780487805" height="1.4878048780487805" style="fill:#000000;shape-rendering:crispEdges;"/>
  <rect x="10.414634146341463" y="14.878048780487804" width="1.4878048780487805" height="1.4878048780487805" style="fill:#000000;shape-rendering:crispEdges;"/>
  <rect x="11.902439024390244" y="14.878048780487804" width="1.4878048780487805" height="1.4878048780487805" style="fill:#000000;shape-rendering:crispEdges;"/>
  <rect x="13.390243902439025" y="14.878048780487804" width="1.4878048780487805" height="1.4878048780487805" style="fill:#000000;shape-rendering:crispEdges;"/>
  <rect x="14.878048780487804" y="14.878048780487804" width="1.4878048780487805" height="1.4878048780487805" style="fill:#000000;shape-rendering:crispEdges;"/>
  <rect x="17.853658536585364" y="14.878048780487804" width="1.4878048780487805" height="1.4878048780487805" style="fill:#000000;shape-rendering:crispEdges;"/>
  <rect x="20.829268292682926" y="14.878048780487804" width="1.4878048780487805" height="1.4878048780487805" style="fill:#000000;shape-rendering:crispEdges;"/>
  <rect x="23.804878048780488" y="14.878048780487804" width="1.4878048780487805" height="1.4878048780487805" style="fill:#000000;shape-rendering:crispEdges;"/>
  <rect x="26.78048780487805" y="14.878048780487804" width="1.4878048780487805" height="1.4878048780487805" style="fill:#000000;shape-rendering:crispEdges;"/>
  <rect x="29.75609756097561" y="14.878048780487804" width="1.4878048780487805" height="1.4878048780487805" style="fill:#000000;shape-rendering:crispEdges;"/>
  <rect x="32.73170731707317" y="14.878048780487804" width="1.4878048780487805" height="1.4878048780487805" style="fill:#000000;shape-rendering:crispEdges;"/>
  <rect x="35.707317073170735" y="14.878048780487804" width="1.4878048780487805" height="1.4878048780487805" style="fill:#000000;shape-rendering:crispEdges;"/>
  <rect x="38.6829268292683" y="14.878048780487804" width="1.4878048780487805" height="1.4878048780487805" style="fill:#000000;shape-rendering:crispEdges;"/>
  <rect x="41.65853658536585" y="14.878048780487804" width="1.4878048780487805" height="1.4878048780487805" style="fill:#000000;shape-rendering:crispEdges;"/>
  <rect x="44.63414634146341" y="14.878048780487804" width="1.4878048780487805" height="1.4878048780487805" style="fill:#000000;shape-rendering:crispEdges;"/>
  <rect x="46.1219512195122" y="14.878048780487804" width="1.4878048780487805" height="1.4878048780487805" style="fill:#000000;shape-rendering:crispEdges;"/>
  <rect x="47.609756097560975" y="14.878048780487804" width="1.4878048780487805" height="1.4878048780487805" style="fill:#000000;shape-rendering:crispEdges;"/>
  <rect x="49.09756097560976" y="14.878048780487804" width="1.4878048780487805" height="1.4878048780487805" style="fill:#000000;shape-rendering:crispEdges;"/>
  <rect x="50.58536585365854" y="14.878048780487804" width="1.4878048780487805" height="1.4878048780487805" style="fill:#000000;shape-rendering:crispEdges;"/>
  <rect x="52.07317073170732" y="14.878048780487804" width="1.4878048780487805" height="1.4878048780487805" style="fill:#000000;shape-rendering:crispEdges;"/>
  <rect x="53.5609756097561" y="14.878048780487804" width="1.4878048780487805" height="1.4878048780487805" style="fill:#000000;shape-rendering:crispEdges;"/>
  <rect x="17.853658536585364" y="16.365853658536587" width="1.4878048780487805" height="1.4878048780487805" style="fill:#000000;shape-rendering:crispEdges;"/>
  <rect x="19.34146341463415" y="16.365853658536587" width="1.4878048780487805" height="1.4878048780487805" style="fill:#000000;shape-rendering:crispEdges;"/>
  <rect x="22.31707317073171" y="16.365853658536587" width="1.4878048780487805" height="1.4878048780487805" style="fill:#000000;shape-rendering:crispEdges;"/>
  <rect x="28.268292682926827" y="16.365853658536587" width="1.4878048780487805" height="1.4878048780487805" style="fill:#000000;shape-rendering:crispEdges;"/>
  <rect x="29.75609756097561" y="16.365853658536587" width="1.4878048780487805" height="1.4878048780487805" style="fill:#000000;shape-rendering:crispEdges;"/>
  <rect x="32.73170731707317" y="16.365853658536587" width="1.4878048780487805" height="1.4878048780487805" style="fill:#000000;shape-rendering:crispEdges;"/>
  <rect x="35.707317073170735" y="16.365853658536587" width="1.4878048780487805" height="1.4878048780487805" style="fill:#000000;shape-rendering:crispEdges;"/>
  <rect x="38.6829268292683" y="16.365853658536587" width="1.4878048780487805" height="1.4878048780487805" style="fill:#000000;shape-rendering:crispEdges;"/>
  <rect x="5.951219512195122" y="17.853658536585364" width="1.4878048780487805" height="1.4878048780487805" style="fill:#000000;shape-rendering:crispEdges;"/>
  <rect x="7.439024390243903" y="17.853658536585364" width="1.4878048780487805" height="1.4878048780487805" style="fill:#000000;shape-rendering:crispEdges;"/>
  <rect x="10.414634146341463" y="17.853658536585364" width="1.4878048780487805" height="1.4878048780487805" style="fill:#000000;shape-rendering:crispEdges;"/>
  <rect x="14.878048780487804" y="17.853658536585364" width="1.4878048780487805" height="1.4878048780487805" style="fill:#000000;shape-rendering:crispEdges;"/>
  <rect x="16.365853658536587" y="17.853658536585364" width="1.4878048780487805" height="1.4878048780487805" style="fill:#000000;shape-rendering:crispEdges;"/>
  <rect x="20.829268292682926" y="17.853658536585364" width="1.4878048780487805" height="1.4878048780487805" style="fill:#000000;shape-rendering:crispEdges;"/>
  <rect x="23.804878048780488" y="17.853658536585364" width="1.4878048780487805" height="1.4878048780487805" style="fill:#000000;shape-rendering:crispEdges;"/>
  <rect x="25.292682926829265" y="17.853658536585364" width="1.4878048780487805" height="1.4878048780487805" style="fill:#000000;shape-rendering:crispEdges;"/>
  <rect x="29.75609756097561" y="17.853658536585364" width="1.4878048780487805" height="1.4878048780487805" style="fill:#000000;shape-rendering:crispEdges;"/>
  <rect x="31.24390243902439" y="17.853658536585364" width="1.4878048780487805" height="1.4878048780487805" style="fill:#000000;shape-rendering:crispEdges;"/>
  <rect x="34.21951219512195" y="17.853658536585364" width="1.4878048780487805" height="1.4878048780487805" style="fill:#000000;shape-rendering:crispEdges;"/>
  <rect x="35.707317073170735" y="17.853658536585364" width="1.4878048780487805" height="1.4878048780487805" style="fill:#000000;shape-rendering:crispEdges;"/>
  <rect x="37.19512195121951" y="17.853658536585364" width="1.4878048780487805" height="1.4878048780487805" style="fill:#000000;shape-rendering:crispEdges;"/>
  <rect x="38.6829268292683" y="17.853658536585364" width="1.4878048780487805" height="1.4878048780487805" style="fill:#000000;shape-rendering:crispEdges;"/>
  <rect x="43.146341463414636" y="17.853658536585364" width="1.4878048780487805" height="1.4878048780487805" style="fill:#000000;shape-rendering:crispEdges;"/>
  <rect x="44.63414634146341" y="17.853658536585364" width="1.4878048780487805" height="1.4878048780487805" style="fill:#000000;shape-rendering:crispEdges;"/>
  <rect x="46.1219512195122" y="17.853658536585364" width="1.4878048780487805" height="1.4878048780487805" style="fill:#000000;shape-rendering:crispEdges;"/>
  <rect x="49.09756097560976" y="17.853658536585364" width="1.4878048780487805" height="1.4878048780487805" style="fill:#000000;shape-rendering:crispEdges;"/>
  <rect x="50.58536585365854" y="17.853658536585364" width="1.4878048780487805" height="1.4878048780487805" style="fill:#000000;shape-rendering:crispEdges;"/>
  <rect x="53.5609756097561" y="17.853658536585364" width="1.4878048780487805" height="1.4878048780487805" style="fill:#000000;shape-rendering:crispEdges;"/>
  <rect x="7.439024390243903" y="19.34146341463415" width="1.4878048780487805" height="1.4878048780487805" style="fill:#000000;shape-rendering:crispEdges;"/>
  <rect x="8.926829268292682" y="19.34146341463415" width="1.4878048780487805" height="1.4878048780487805" style="fill:#000000;shape-rendering:crispEdges;"/>
  <rect x="10.414634146341463" y="19.34146341463415" width="1.4878048780487805" height="1.4878048780487805" style="fill:#000000;shape-rendering:crispEdges;"/>
  <rect x="17.853658536585364" y="19.34146341463415" width="1.4878048780487805" height="1.4878048780487805" style="fill:#000000;shape-rendering:crispEdges;"/>
  <rect x="20.829268292682926" y="19.34146341463415" width="1.4878048780487805" height="1.4878048780487805" style="fill:#000000;shape-rendering:crispEdges;"/>
  <rect x="22.31707317073171" y="19.34146341463415" width="1.4878048780487805" height="1.4878048780487805" style="fill:#000000;shape-rendering:crispEdges;"/>
  <rect x="23.804878048780488" y="19.34146341463415" width="1.4878048780487805" height="1.4878048780487805" style="fill:#000000;shape-rendering:crispEdges;"/>
  <rect x="25.292682926829265" y="19.34146341463415" width="1.4878048780487805" height="1.4878048780487805" style="fill:#000000;shape-rendering:crispEdges;"/>
  <rect x="26.78048780487805" y="19.34146341463415" width="1.4878048780487805" height="1.4878048780487805" style="fill:#000000;shape-rendering:crispEdges;"/>
  <rect x="28.268292682926827" y="19.34146341463415" width="1.4878048780487805" height="1.4878048780487805" style="fill:#000000;shape-rendering:crispEdges;"/>
  <rect x="29.75609756097561" y="19.34146341463415" width="1.4878048780487805" height="1.4878048780487805" style="fill:#000000;shape-rendering:crispEdges;"/>
  <rect x="31.24390243902439" y="19.34146341463415" width="1.4878048780487805" height="1.4878048780487805" style="fill:#000000;shape-rendering:crispEdges;"/>
  <rect x="32.73170731707317" y="19.34146341463415" width="1.4878048780487805" height="1.4878048780487805" style="fill:#000000;shape-rendering:crispEdges;"/>
  <rect x="44.63414634146341" y="19.34146341463415" width="1.4878048780487805" height="1.4878048780487805" style="fill:#000000;shape-rendering:crispEdges;"/>
  <rect x="46.1219512195122" y="19.34146341463415" width="1.4878048780487805" height="1.4878048780487805" style="fill:#000000;shape-rendering:crispEdges;"/>
  <rect x="49.09756097560976" y="19.34146341463415" width="1.4878048780487805" height="1.4878048780487805" style="fill:#000000;shape-rendering:crispEdges;"/>
  <rect x="50.58536585365854" y="19.34146341463415" width="1.4878048780487805" height="1.4878048780487805" style="fill:#000000;shape-rendering:crispEdges;"/>
  <rect x="53.5609756097561" y="19.34146341463415" width="1.4878048780487805" height="1.4878048780487805" style="fill:#000000;shape-rendering:crispEdges;"/>
  <rect x="7.439024390243903" y="20.829268292682926" width="1.4878048780487805" height="1.4878048780487805" style="fill:#000000;shape-rendering:crispEdges;"/>
  <rect x="8.926829268292682" y="20.829268292682926" width="1.4878048780487805" height="1.4878048780487805" style="fill:#000000;shape-rendering:crispEdges;"/>
  <rect x="10.414634146341463" y="20.829268292682926" width="1.4878048780487805" height="1.4878048780487805" style="fill:#000000;shape-rendering:crispEdges;"/>
  <rect x="11.902439024390244" y="20.829268292682926" width="1.4878048780487805" height="1.4878048780487805" style="fill:#000000;shape-rendering:crispEdges;"/>
  <rect x="13.390243902439025" y="20.829268292682926" width="1.4878048780487805" height="1.4878048780487805" style="fill:#000000;shape-rendering:crispEdges;"/>
  <rect x="14.878048780487804" y="20.829268292682926" width="1.4878048780487805" height="1.4878048780487805" style="fill:#000000;shape-rendering:crispEdges;"/>
  <rect x="16.365853658536587" y="20.829268292682926" width="1.4878048780487805" height="1.4878048780487805" style="fill:#000000;shape-rendering:crispEdges;"/>
  <rect x="19.34146341463415" y="20.829268292682926" width="1.4878048780487805" height="1.4878048780487805" style="fill:#000000;shape-rendering:crispEdges;"/>
  <rect x="23.804878048780488" y="20.829268292682926" width="1.4878048780487805" height="1.4878048780487805" style="fill:#000000;shape-rendering:crispEdges;"/>
  <rect x="25.292682926829265" y="20.829268292682926" width="1.4878048780487805" height="1.4878048780487805" style="fill:#000000;shape-rendering:crispEdges;"/>
  <rect x="28.268292682926827" y="20.829268292682926" width="1.4878048780487805" height="1.4878048780487805" style="fill:#000000;shape-rendering:crispEdges;"/>
  <rect x="29.75609756097561" y="20.829268292682926" width="1.4878048780487805" height="1.4878048780487805" style="fill:#000000;shape-rendering:crispEdges;"/>
  <rect x="32.73170731707317" y="20.829268292682926" width="1.4878048780487805" height="1.4878048780487805" style="fill:#000000;shape-rendering:crispEdges;"/>
  <rect x="37.19512195121951" y="20.829268292682926" width="1.4878048780487805" height="1.4878048780487805" style="fill:#000000;shape-rendering:crispEdges;"/>
  <rect x="40.170731707317074" y="20.829268292682926" width="1.4878048780487805" height="1.4878048780487805" style="fill:#000000;shape-rendering:crispEdges;"/>
  <rect x="41.65853658536585" y="20.829268292682926" width="1.4878048780487805" height="1.4878048780487805" style="fill:#000000;shape-rendering:crispEdges;"/>
  <rect x="43.146341463414636" y="20.829268292682926" width="1.4878048780487805" height="1.4878048780487805" style="fill:#000000;shape-rendering:crispEdges;"/>
  <rect x="44.63414634146341" y="20.829268292682926" width="1.4878048780487805" height="1.4878048780487805" style="fill:#000000;shape-rendering:crispEdges;"/>
  <rect x="46.1219512195122" y="20.829268292682926" width="1.4878048780487805" height="1.4878048780487805" style="fill:#000000;shape-rendering:crispEdges;"/>
  <rect x="47.609756097560975" y="20.829268292682926" width="1.4878048780487805" height="1.4878048780487805" style="fill:#000000;shape-rendering:crispEdges;"/>
  <rect x="49.09756097560976" y="20.829268292682926" width="1.4878048780487805" height="1.4878048780487805" style="fill:#000000;shape-rendering:crispEdges;"/>
  <rect x="50.58536585365854" y="20.829268292682926" width="1.4878048780487805" height="1.4878048780487805" style="fill:#000000;shape-rendering:crispEdges;"/>
  <rect x="52.07317073170732" y="20.829268292682926" width="1.4878048780487805" height="1.4878048780487805" style="fill:#000000;shape-rendering:crispEdges;"/>
  <rect x="7.439024390243903" y="22.31707317073171" width="1.4878048780487805" height="1.4878048780487805" style="fill:#000000;shape-rendering:crispEdges;"/>
  <rect x="10.414634146341463" y="22.31707317073171" width="1.4878048780487805" height="1.4878048780487805" style="fill:#000000;shape-rendering:crispEdges;"/>
  <rect x="16.365853658536587" y="22.31707317073171" width="1.4878048780487805" height="1.4878048780487805" style="fill:#000000;shape-rendering:crispEdges;"/>
  <rect x="19.34146341463415" y="22.31707317073171" width="1.4878048780487805" height="1.4878048780487805" style="fill:#000000;shape-rendering:crispEdges;"/>
  <rect x="22.31707317073171" y="22.31707317073171" width="1.4878048780487805" height="1.4878048780487805" style="fill:#000000;shape-rendering:crispEdges;"/>
  <rect x="28.268292682926827" y="22.31707317073171" width="1.4878048780487805" height="1.4878048780487805" style="fill:#000000;shape-rendering:crispEdges;"/>
  <rect x="29.75609756097561" y="22.31707317073171" width="1.4878048780487805" height="1.4878048780487805" style="fill:#000000;shape-rendering:crispEdges;"/>
  <rect x="31.24390243902439" y="22.31707317073171" width="1.4878048780487805" height="1.4878048780487805" style="fill:#000000;shape-rendering:crispEdges;"/>
  <rect x="32.73170731707317" y="22.31707317073171" width="1.4878048780487805" height="1.4878048780487805" style="fill:#000000;shape-rendering:crispEdges;"/>
  <rect x="37.19512195121951" y="22.31707317073171" width="1.4878048780487805" height="1.4878048780487805" style="fill:#000000;shape-rendering:crispEdges;"/>
  <rect x="38.6829268292683" y="22.31707317073171" width="1.4878048780487805" height="1.4878048780487805" style="fill:#000000;shape-rendering:crispEdges;"/>
  <rect x="41.65853658536585" y="22.31707317073171" width="1.4878048780487805" height="1.4878048780487805" style="fill:#000000;shape-rendering:crispEdges;"/>
  <rect x="44.63414634146341" y="22.31707317073171" width="1.4878048780487805" height="1.4878048780487805" style="fill:#000000;shape-rendering:crispEdges;"/>
  <rect x="46.1219512195122" y="22.31707317073171" width="1.4878048780487805" height="1.4878048780487805" style="fill:#000000;shape-rendering:crispEdges;"/>
  <rect x="47.609756097560975" y="22.31707317073171" width="1.4878048780487805" height="1.4878048780487805" style="fill:#000000;shape-rendering:crispEdges;"/>
  <rect x="5.951219512195122" y="23.804878048780488" width="1.4878048780487805" height="1.4878048780487805" style="fill:#000000;shape-rendering:crispEdges;"/>
  <rect x="7.439024390243903" y="23.804878048780488" width="1.4878048780487805" height="1.4878048780487805" style="fill:#000000;shape-rendering:crispEdges;"/>
  <rect x="8.926829268292682" y="23.804878048780488" width="1.4878048780487805" height="1.4878048780487805" style="fill:#000000;shape-rendering:crispEdges;"/>
  <rect x="10.414634146341463" y="23.804878048780488" width="1.4878048780487805" height="1.4878048780487805" style="fill:#000000;shape-rendering:crispEdges;"/>
  <rect x="11.902439024390244" y="23.804878048780488" width="1.4878048780487805" height="1.4878048780487805" style="fill:#000000;shape-rendering:crispEdges;"/>
  <rect x="14.878048780487804" y="23.804878048780488" width="1.4878048780487805" height="1.4878048780487805" style="fill:#000000;shape-rendering:crispEdges;"/>
  <rect x="16.365853658536587" y="23.804878048780488" width="1.4878048780487805" height="1.4878048780487805" style="fill:#000000;shape-rendering:crispEdges;"/>
  <rect x="19.34146341463415" y="23.804878048780488" width="1.4878048780487805" height="1.4878048780487805" style="fill:#000000;shape-rendering:crispEdges;"/>
  <rect x="20.829268292682926" y="23.804878048780488" width="1.4878048780487805" height="1.4878048780487805" style="fill:#000000;shape-rendering:crispEdges;"/>
  <rect x="26.78048780487805" y="23.804878048780488" width="1.4878048780487805" height="1.4878048780487805" style="fill:#000000;shape-rendering:crispEdges;"/>
  <rect x="31.24390243902439" y="23.804878048780488" width="1.4878048780487805" height="1.4878048780487805" style="fill:#000000;shape-rendering:crispEdges;"/>
  <rect x="32.73170731707317" y="23.804878048780488" width="1.4878048780487805" height="1.4878048780487805" style="fill:#000000;shape-rendering:crispEdges;"/>
  <rect x="34.21951219512195" y="23.804878048780488" width="1.4878048780487805" height="1.4878048780487805" style="fill:#000000;shape-rendering:crispEdges;"/>
  <rect x="35.707317073170735" y="23.804878048780488" width="1.4878048780487805" height="1.4878048780487805" style="fill:#000000;shape-rendering:crispEdges;"/>
  <rect x="38.6829268292683" y="23.804878048780488" width="1.4878048780487805" height="1.4878048780487805" style="fill:#000000;shape-rendering:crispEdges;"/>
  <rect x="40.170731707317074" y="23.804878048780488" width="1.4878048780487805" height="1.4878048780487805" style="fill:#000000;shape-rendering:crispEdges;"/>
  <rect x="41.65853658536585" y="23.804878048780488" width="1.4878048780487805" height="1.4878048780487805" style="fill:#000000;shape-rendering:crispEdges;"/>
  <rect x="46.1219512195122" y="23.804878048780488" width="1.4878048780487805" height="1.4878048780487805" style="fill:#000000;shape-rendering:crispEdges;"/>
  <rect x="47.609756097560975" y="23.804878048780488" width="1.4878048780487805" height="1.4878048780487805" style="fill:#000000;shape-rendering:crispEdges;"/>
  <rect x="52.07317073170732" y="23.804878048780488" width="1.4878048780487805" height="1.4878048780487805" style="fill:#000000;shape-rendering:crispEdges;"/>
  <rect x="53.5609756097561" y="23.804878048780488" width="1.4878048780487805" height="1.4878048780487805" style="fill:#000000;shape-rendering:crispEdges;"/>
  <rect x="8.926829268292682" y="25.292682926829265" width="1.4878048780487805" height="1.4878048780487805" style="fill:#000000;shape-rendering:crispEdges;"/>
  <rect x="11.902439024390244" y="25.292682926829265" width="1.4878048780487805" height="1.4878048780487805" style="fill:#000000;shape-rendering:crispEdges;"/>
  <rect x="19.34146341463415" y="25.292682926829265" width="1.4878048780487805" height="1.4878048780487805" style="fill:#000000;shape-rendering:crispEdges;"/>
  <rect x="20.829268292682926" y="25.292682926829265" width="1.4878048780487805" height="1.4878048780487805" style="fill:#000000;shape-rendering:crispEdges;"/>
  <rect x="29.75609756097561" y="25.292682926829265" width="1.4878048780487805" height="1.4878048780487805" style="fill:#000000;shape-rendering:crispEdges;"/>
  <rect x="32.73170731707317" y="25.292682926829265" width="1.4878048780487805" height="1.4878048780487805" style="fill:#000000;shape-rendering:crispEdges;"/>
  <rect x="34.21951219512195" y="25.292682926829265" width="1.4878048780487805" height="1.4878048780487805" style="fill:#000000;shape-rendering:crispEdges;"/>
  <rect x="38.6829268292683" y="25.292682926829265" width="1.4878048780487805" height="1.4878048780487805" style="fill:#000000;shape-rendering:crispEdges;"/>
  <rect x="41.65853658536585" y="25.292682926829265" width="1.4878048780487805" height="1.4878048780487805" style="fill:#000000;shape-rendering:crispEdges;"/>
  <rect x="43.146341463414636" y="25.292682926829265" width="1.4878048780487805" height="1.4878048780487805" style="fill:#000000;shape-rendering:crispEdges;"/>
  <rect x="46.1219512195122" y="25.292682926829265" width="1.4878048780487805" height="1.4878048780487805" style="fill:#000000;shape-rendering:crispEdges;"/>
  <rect x="47.609756097560975" y="25.292682926829265" width="1.4878048780487805" height="1.4878048780487805" style="fill:#000000;shape-rendering:crispEdges;"/>
  <rect x="49.09756097560976" y="25.292682926829265" width="1.4878048780487805" height="1.4878048780487805" style="fill:#000000;shape-rendering:crispEdges;"/>
  <rect x="53.5609756097561" y="25.292682926829265" width="1.4878048780487805" height="1.4878048780487805" style="fill:#000000;shape-rendering:crispEdges;"/>
  <rect x="5.951219512195122" y="26.78048780487805" width="1.4878048780487805" height="1.4878048780487805" style="fill:#000000;shape-rendering:crispEdges;"/>
  <rect x="7.439024390243903" y="26.78048780487805" width="1.4878048780487805" height="1.4878048780487805" style="fill:#000000;shape-rendering:crispEdges;"/>
  <rect x="8.926829268292682" y="26.78048780487805" width="1.4878048780487805" height="1.4878048780487805" style="fill:#000000;shape-rendering:crispEdges;"/>
  <rect x="14.878048780487804" y="26.78048780487805" width="1.4878048780487805" height="1.4878048780487805" style="fill:#000000;shape-rendering:crispEdges;"/>
  <rect x="16.365853658536587" y="26.78048780487805" width="1.4878048780487805" height="1.4878048780487805" style="fill:#000000;shape-rendering:crispEdges;"/>
  <rect x="17.853658536585364" y="26.78048780487805" width="1.4878048780487805" height="1.4878048780487805" style="fill:#000000;shape-rendering:crispEdges;"/>
  <rect x="19.34146341463415" y="26.78048780487805" width="1.4878048780487805" height="1.4878048780487805" style="fill:#000000;shape-rendering:crispEdges;"/>
  <rect x="23.804878048780488" y="26.78048780487805" width="1.4878048780487805" height="1.4878048780487805" style="fill:#000000;shape-rendering:crispEdges;"/>
  <rect x="25.292682926829265" y="26.78048780487805" width="1.4878048780487805" height="1.4878048780487805" style="fill:#000000;shape-rendering:crispEdges;"/>
  <rect x="28.268292682926827" y="26.78048780487805" width="1.4878048780487805" height="1.4878048780487805" style="fill:#000000;shape-rendering:crispEdges;"/>
  <rect x="32.73170731707317" y="26.78048780487805" width="1.4878048780487805" height="1.4878048780487805" style="fill:#000000;shape-rendering:crispEdges;"/>
  <rect x="35.707317073170735" y="26.78048780487805" width="1.4878048780487805" height="1.4878048780487805" style="fill:#000000;shape-rendering:crispEdges;"/>
  <rect x="37.19512195121951" y="26.78048780487805" width="1.4878048780487805" height="1.4878048780487805" style="fill:#000000;shape-rendering:crispEdges;"/>
  <rect x="38.6829268292683" y="26.78048780487805" width="1.4878048780487805" height="1.4878048780487805" style="fill:#000000;shape-rendering:crispEdges;"/>
  <rect x="44.63414634146341" y="26.78048780487805" width="1.4878048780487805" height="1.4878048780487805" style="fill:#000000;shape-rendering:crispEdges;"/>
  <rect x="46.1219512195122" y="26.78048780487805" width="1.4878048780487805" height="1.4878048780487805" style="fill:#000000;shape-rendering:crispEdges;"/>
  <rect x="52.07317073170732" y="26.78048780487805" width="1.4878048780487805" height="1.4878048780487805" style="fill:#000000;shape-rendering:crispEdges;"/>
  <rect x="8.926829268292682" y="28.268292682926827" width="1.4878048780487805" height="1.4878048780487805" style="fill:#000000;shape-rendering:crispEdges;"/>
  <rect x="10.414634146341463" y="28.268292682926827" width="1.4878048780487805" height="1.4878048780487805" style="fill:#000000;shape-rendering:crispEdges;"/>
  <rect x="13.390243902439025" y="28.268292682926827" width="1.4878048780487805" height="1.4878048780487805" style="fill:#000000;shape-rendering:crispEdges;"/>
  <rect x="16.365853658536587" y="28.268292682926827" width="1.4878048780487805" height="1.4878048780487805" style="fill:#000000;shape-rendering:crispEdges;"/>
  <rect x="17.853658536585364" y="28.268292682926827" width="1.4878048780487805" height="1.4878048780487805" style="fill:#000000;shape-rendering:crispEdges;"/>
  <rect x="23.804878048780488" y="28.268292682926827" width="1.4878048780487805" height="1.4878048780487805" style="fill:#000000;shape-rendering:crispEdges;"/>
  <rect x="28.268292682926827" y="28.268292682926827" width="1.4878048780487805" height="1.4878048780487805" style="fill:#000000;shape-rendering:crispEdges;"/>
  <rect x="31.24390243902439" y="28.268292682926827" width="1.4878048780487805" height="1.4878048780487805" style="fill:#000000;shape-rendering:crispEdges;"/>
  <rect x="32.73170731707317" y="28.268292682926827" width="1.4878048780487805" height="1.4878048780487805" style="fill:#000000;shape-rendering:crispEdges;"/>
  <rect x="34.21951219512195" y="28.268292682926827" width="1.4878048780487805" height="1.4878048780487805" style="fill:#000000;shape-rendering:crispEdges;"/>
  <rect x="35.707317073170735" y="28.268292682926827" width="1.4878048780487805" height="1.4878048780487805" style="fill:#000000;shape-rendering:crispEdges;"/>
  <rect x="37.19512195121951" y="28.268292682926827" width="1.4878048780487805" height="1.4878048780487805" style="fill:#000000;shape-rendering:crispEdges;"/>
  <rect x="38.6829268292683" y="28.268292682926827" width="1.4878048780487805" height="1.4878048780487805" style="fill:#000000;shape-rendering:crispEdges;"/>
  <rect x="40.170731707317074" y="28.268292682926827" width="1.4878048780487805" height="1.4878048780487805" style="fill:#000000;shape-rendering:crispEdges;"/>
  <rect x="43.146341463414636" y="28.268292682926827" width="1.4878048780487805" height="1.4878048780487805" style="fill:#000000;shape-rendering:crispEdges;"/>
  <rect x="47.609756097560975" y="28.268292682926827" width="1.4878048780487805" height="1.4878048780487805" style="fill:#000000;shape-rendering:crispEdges;"/>
  <rect x="50.58536585365854" y="28.268292682926827" width="1.4878048780487805" height="1.4878048780487805" style="fill:#000000;shape-rendering:crispEdges;"/>
  <rect x="5.951219512195122" y="29.75609756097561" width="1.4878048780487805" height="1.4878048780487805" style="fill:#000000;shape-rendering:crispEdges;"/>
  <rect x="7.439024390243903" y="29.75609756097561" width="1.4878048780487805" height="1.4878048780487805" style="fill:#000000;shape-rendering:crispEdges;"/>
  <rect x="8.926829268292682" y="29.75609756097561" width="1.4878048780487805" height="1.4878048780487805" style="fill:#000000;shape-rendering:crispEdges;"/>
  <rect x="11.902439024390244" y="29.75609756097561" width="1.4878048780487805" height="1.4878048780487805" style="fill:#000000;shape-rendering:crispEdges;"/>
  <rect x="13.390243902439025" y="29.75609756097561" width="1.4878048780487805" height="1.4878048780487805" style="fill:#000000;shape-rendering:crispEdges;"/>
  <rect x="14.878048780487804" y="29.75609756097561" width="1.4878048780487805" height="1.4878048780487805" style="fill:#000000;shape-rendering:crispEdges;"/>
  <rect x="16.365853658536587" y="29.75609756097561" width="1.4878048780487805" height="1.4878048780487805" style="fill:#000000;shape-rendering:crispEdges;"/>
  <rect x="19.34146341463415" y="29.75609756097561" width="1.4878048780487805" height="1.4878048780487805" style="fill:#000000;shape-rendering:crispEdges;"/>
  <rect x="20.829268292682926" y="29.75609756097561" width="1.4878048780487805" height="1.4878048780487805" style="fill:#000000;shape-rendering:crispEdges;"/>
  <rect x="22.31707317073171" y="29.75609756097561" width="1.4878048780487805" height="1.4878048780487805" style="fill:#000000;shape-rendering:crispEdges;"/>
  <rect x="23.804878048780488" y="29.75609756097561" width="1.4878048780487805" height="1.4878048780487805" style="fill:#000000;shape-rendering:crispEdges;"/>
  <rect x="35.707317073170735" y="29.75609756097561" width="1.4878048780487805" height="1.4878048780487805" style="fill:#000000;shape-rendering:crispEdges;"/>
  <rect x="37.19512195121951" y="29.75609756097561" width="1.4878048780487805" height="1.4878048780487805" style="fill:#000000;shape-rendering:crispEdges;"/>
  <rect x="43.146341463414636" y="29.75609756097561" width="1.4878048780487805" height="1.4878048780487805" style="fill:#000000;shape-rendering:crispEdges;"/>
  <rect x="44.63414634146341" y="29.75609756097561" width="1.4878048780487805" height="1.4878048780487805" style="fill:#000000;shape-rendering:crispEdges;"/>
  <rect x="46.1219512195122" y="29.75609756097561" width="1.4878048780487805" height="1.4878048780487805" style="fill:#000000;shape-rendering:crispEdges;"/>
  <rect x="47.609756097560975" y="29.75609756097561" width="1.4878048780487805" height="1.4878048780487805" style="fill:#000000;shape-rendering:crispEdges;"/>
  <rect x="49.09756097560976" y="29.75609756097561" width="1.4878048780487805" height="1.4878048780487805" style="fill:#000000;shape-rendering:crispEdges;"/>
  <rect x="50.58536585365854" y="29.75609756097561" width="1.4878048780487805" height="1.4878048780487805" style="fill:#000000;shape-rendering:crispEdges;"/>
  <rect x="53.5609756097561" y="29.75609756097561" width="1.4878048780487805" height="1.4878048780487805" style="fill:#000000;shape-rendering:crispEdges;"/>
  <rect x="7.439024390243903" y="31.24390243902439" width="1.4878048780487805" height="1.4878048780487805" style="fill:#000000;shape-rendering:crispEdges;"/>
  <rect x="13.390243902439025" y="31.24390243902439" width="1.4878048780487805" height="1.4878048780487805" style="fill:#000000;shape-rendering:crispEdges;"/>
  <rect x="16.365853658536587" y="31.24390243902439" width="1.4878048780487805" height="1.4878048780487805" style="fill:#000000;shape-rendering:crispEdges;"/>
  <rect x="17.853658536585364" y="31.24390243902439" width="1.4878048780487805" height="1.4878048780487805" style="fill:#000000;shape-rendering:crispEdges;"/>
  <rect x="19.34146341463415" y="31.24390243902439" width="1.4878048780487805" height="1.4878048780487805" style="fill:#000000;shape-rendering:crispEdges;"/>
  <rect x="22.31707317073171" y="31.24390243902439" width="1.4878048780487805" height="1.4878048780487805" style="fill:#000000;shape-rendering:crispEdges;"/>
  <rect x="25.292682926829265" y="31.24390243902439" width="1.4878048780487805" height="1.4878048780487805" style="fill:#000000;shape-rendering:crispEdges;"/>
  <rect x="34.21951219512195" y="31.24390243902439" width="1.4878048780487805" height="1.4878048780487805" style="fill:#000000;shape-rendering:crispEdges;"/>
  <rect x="38.6829268292683" y="31.24390243902439" width="1.4878048780487805" height="1.4878048780487805" style="fill:#000000;shape-rendering:crispEdges;"/>
  <rect x="41.65853658536585" y="31.24390243902439" width="1.4878048780487805" height="1.4878048780487805" style="fill:#000000;shape-rendering:crispEdges;"/>
  <rect x="44.63414634146341" y="31.24390243902439" width="1.4878048780487805" height="1.4878048780487805" style="fill:#000000;shape-rendering:crispEdges;"/>
  <rect x="46.1219512195122" y="31.24390243902439" width="1.4878048780487805" height="1.4878048780487805" style="fill:#000000;shape-rendering:crispEdges;"/>
  <rect x="47.609756097560975" y="31.24390243902439" width="1.4878048780487805" height="1.4878048780487805" style="fill:#000000;shape-rendering:crispEdges;"/>
  <rect x="52.07317073170732" y="31.24390243902439" width="1.4878048780487805" height="1.4878048780487805" style="fill:#000000;shape-rendering:crispEdges;"/>
  <rect x="53.5609756097561" y="31.24390243902439" width="1.4878048780487805" height="1.4878048780487805" style="fill:#000000;shape-rendering:crispEdges;"/>
  <rect x="5.951219512195122" y="32.73170731707317" width="1.4878048780487805" height="1.4878048780487805" style="fill:#000000;shape-rendering:crispEdges;"/>
  <rect x="8.926829268292682" y="32.73170731707317" width="1.4878048780487805" height="1.4878048780487805" style="fill:#000000;shape-rendering:crispEdges;"/>
  <rect x="10.414634146341463" y="32.73170731707317" width="1.4878048780487805" height="1.4878048780487805" style="fill:#000000;shape-rendering:crispEdges;"/>
  <rect x="11.902439024390244" y="32.73170731707317" width="1.4878048780487805" height="1.4878048780487805" style="fill:#000000;shape-rendering:crispEdges;"/>
  <rect x="14.878048780487804" y="32.73170731707317" width="1.4878048780487805" height="1.4878048780487805" style="fill:#000000;shape-rendering:crispEdges;"/>
  <rect x="17.853658536585364" y="32.73170731707317" width="1.4878048780487805" height="1.4878048780487805" style="fill:#000000;shape-rendering:crispEdges;"/>
  <rect x="19.34146341463415" y="32.73170731707317" width="1.4878048780487805" height="1.4878048780487805" style="fill:#000000;shape-rendering:crispEdges;"/>
  <rect x="20.829268292682926" y="32.73170731707317" width="1.4878048780487805" height="1.4878048780487805" style="fill:#000000;shape-rendering:crispEdges;"/>
  <rect x="26.78048780487805" y="32.73170731707317" width="1.4878048780487805" height="1.4878048780487805" style="fill:#000000;shape-rendering:crispEdges;"/>
  <rect x="29.75609756097561" y="32.73170731707317" width="1.4878048780487805" height="1.4878048780487805" style="fill:#000000;shape-rendering:crispEdges;"/>
  <rect x="31.24390243902439" y="32.73170731707317" width="1.4878048780487805" height="1.4878048780487805" style="fill:#000000;shape-rendering:crispEdges;"/>
  <rect x="32.73170731707317" y="32.73170731707317" width="1.4878048780487805" height="1.4878048780487805" style="fill:#000000;shape-rendering:crispEdges;"/>
  <rect x="34.21951219512195" y="32.73170731707317" width="1.4878048780487805" height="1.4878048780487805" style="fill:#000000;shape-rendering:crispEdges;"/>
  <rect x="38.6829268292683" y="32.73170731707317" width="1.4878048780487805" height="1.4878048780487805" style="fill:#000000;shape-rendering:crispEdges;"/>
  <rect x="44.63414634146341" y="32.73170731707317" width="1.4878048780487805" height="1.4878048780487805" style="fill:#000000;shape-rendering:crispEdges;"/>
  <rect x="46.1219512195122" y="32.73170731707317" width="1.4878048780487805" height="1.4878048780487805" style="fill:#000000;shape-rendering:crispEdges;"/>
  <rect x="47.609756097560975" y="32.73170731707317" width="1.4878048780487805" height="1.4878048780487805" style="fill:#000000;shape-rendering:crispEdges;"/>
  <rect x="50.58536585365854" y="32.73170731707317" width="1.4878048780487805" height="1.4878048780487805" style="fill:#000000;shape-rendering:crispEdges;"/>
  <rect x="52.07317073170732" y="32.73170731707317" width="1.4878048780487805" height="1.4878048780487805" style="fill:#000000;shape-rendering:crispEdges;"/>
  <rect x="53.5609756097561" y="32.73170731707317" width="1.4878048780487805" height="1.4878048780487805" style="fill:#000000;shape-rendering:crispEdges;"/>
  <rect x="5.951219512195122" y="34.21951219512195" width="1.4878048780487805" height="1.4878048780487805" style="fill:#000000;shape-rendering:crispEdges;"/>
  <rect x="8.926829268292682" y="34.21951219512195" width="1.4878048780487805" height="1.4878048780487805" style="fill:#000000;shape-rendering:crispEdges;"/>
  <rect x="16.365853658536587" y="34.21951219512195" width="1.4878048780487805" height="1.4878048780487805" style="fill:#000000;shape-rendering:crispEdges;"/>
  <rect x="19.34146341463415" y="34.21951219512195" width="1.4878048780487805" height="1.4878048780487805" style="fill:#000000;shape-rendering:crispEdges;"/>
  <rect x="23.804878048780488" y="34.21951219512195" width="1.4878048780487805" height="1.4878048780487805" style="fill:#000000;shape-rendering:crispEdges;"/>
  <rect x="26.78048780487805" y="34.21951219512195" width="1.4878048780487805" height="1.4878048780487805" style="fill:#000000;shape-rendering:crispEdges;"/>
  <rect x="34.21951219512195" y="34.21951219512195" width="1.4878048780487805" height="1.4878048780487805" style="fill:#000000;shape-rendering:crispEdges;"/>
  <rect x="38.6829268292683" y="34.21951219512195" width="1.4878048780487805" height="1.4878048780487805" style="fill:#000000;shape-rendering:crispEdges;"/>
  <rect x="41.65853658536585" y="34.21951219512195" width="1.4878048780487805" height="1.4878048780487805" style="fill:#000000;shape-rendering:crispEdges;"/>
  <rect x="43.146341463414636" y="34.21951219512195" width="1.4878048780487805" height="1.4878048780487805" style="fill:#000000;shape-rendering:crispEdges;"/>
  <rect x="44.63414634146341" y="34.21951219512195" width="1.4878048780487805" height="1.4878048780487805" style="fill:#000000;shape-rendering:crispEdges;"/>
  <rect x="47.609756097560975" y="34.21951219512195" width="1.4878048780487805" height="1.4878048780487805" style="fill:#000000;shape-rendering:crispEdges;"/>
  <rect x="49.09756097560976" y="34.21951219512195" width="1.4878048780487805" height="1.4878048780487805" style="fill:#000000;shape-rendering:crispEdges;"/>
  <rect x="53.5609756097561" y="34.21951219512195" width="1.4878048780487805" height="1.4878048780487805" style="fill:#000000;shape-rendering:crispEdges;"/>
  <rect x="5.951219512195122" y="35.707317073170735" width="1.4878048780487805" height="1.4878048780487805" style="fill:#000000;shape-rendering:crispEdges;"/>
  <rect x="14.878048780487804" y="35.707317073170735" width="1.4878048780487805" height="1.4878048780487805" style="fill:#000000;shape-rendering:crispEdges;"/>
  <rect x="19.34146341463415" y="35.707317073170735" width="1.4878048780487805" height="1.4878048780487805" style="fill:#000000;shape-rendering:crispEdges;"/>
  <rect x="23.804878048780488" y="35.707317073170735" width="1.4878048780487805" height="1.4878048780487805" style="fill:#000000;shape-rendering:crispEdges;"/>
  <rect x="25.292682926829265" y="35.707317073170735" width="1.4878048780487805" height="1.4878048780487805" style="fill:#000000;shape-rendering:crispEdges;"/>
  <rect x="26.78048780487805" y="35.707317073170735" width="1.4878048780487805" height="1.4878048780487805" style="fill:#000000;shape-rendering:crispEdges;"/>
  <rect x="29.75609756097561" y="35.707317073170735" width="1.4878048780487805" height="1.4878048780487805" style="fill:#000000;shape-rendering:crispEdges;"/>
  <rect x="31.24390243902439" y="35.707317073170735" width="1.4878048780487805" height="1.4878048780487805" style="fill:#000000;shape-rendering:crispEdges;"/>
  <rect x="32.73170731707317" y="35.707317073170735" width="1.4878048780487805" height="1.4878048780487805" style="fill:#000000;shape-rendering:crispEdges;"/>
  <rect x="37.19512195121951" y="35.707317073170735" width="1.4878048780487805" height="1.4878048780487805" style="fill:#000000;shape-rendering:crispEdges;"/>
  <rect x="38.6829268292683" y="35.707317073170735" width="1.4878048780487805" height="1.4878048780487805" style="fill:#000000;shape-rendering:crispEdges;"/>
  <rect x="40.170731707317074" y="35.707317073170735" width="1.4878048780487805" height="1.4878048780487805" style="fill:#000000;shape-rendering:crispEdges;"/>
  <rect x="43.146341463414636" y="35.707317073170735" width="1.4878048780487805" height="1.4878048780487805" style="fill:#000000;shape-rendering:crispEdges;"/>
  <rect x="44.63414634146341" y="35.707317073170735" width="1.4878048780487805" height="1.4878048780487805" style="fill:#000000;shape-rendering:crispEdges;"/>
  <rect x="46.1219512195122" y="35.707317073170735" width="1.4878048780487805" height="1.4878048780487805" style="fill:#000000;shape-rendering:crispEdges;"/>
  <rect x="50.58536585365854" y="35.707317073170735" width="1.4878048780487805" height="1.4878048780487805" style="fill:#000000;shape-rendering:crispEdges;"/>
  <rect x="52.07317073170732" y="35.707317073170735" width="1.4878048780487805" height="1.4878048780487805" style="fill:#000000;shape-rendering:crispEdges;"/>
  <rect x="5.951219512195122" y="37.19512195121951" width="1.4878048780487805" height="1.4878048780487805" style="fill:#000000;shape-rendering:crispEdges;"/>
  <rect x="7.439024390243903" y="37.19512195121951" width="1.4878048780487805" height="1.4878048780487805" style="fill:#000000;shape-rendering:crispEdges;"/>
  <rect x="13.390243902439025" y="37.19512195121951" width="1.4878048780487805" height="1.4878048780487805" style="fill:#000000;shape-rendering:crispEdges;"/>
  <rect x="17.853658536585364" y="37.19512195121951" width="1.4878048780487805" height="1.4878048780487805" style="fill:#000000;shape-rendering:crispEdges;"/>
  <rect x="19.34146341463415" y="37.19512195121951" width="1.4878048780487805" height="1.4878048780487805" style="fill:#000000;shape-rendering:crispEdges;"/>
  <rect x="25.292682926829265" y="37.19512195121951" width="1.4878048780487805" height="1.4878048780487805" style="fill:#000000;shape-rendering:crispEdges;"/>
  <rect x="26.78048780487805" y="37.19512195121951" width="1.4878048780487805" height="1.4878048780487805" style="fill:#000000;shape-rendering:crispEdges;"/>
  <rect x="28.268292682926827" y="37.19512195121951" width="1.4878048780487805" height="1.4878048780487805" style="fill:#000000;shape-rendering:crispEdges;"/>
  <rect x="29.75609756097561" y="37.19512195121951" width="1.4878048780487805" height="1.4878048780487805" style="fill:#000000;shape-rendering:crispEdges;"/>
  <rect x="37.19512195121951" y="37.19512195121951" width="1.4878048780487805" height="1.4878048780487805" style="fill:#000000;shape-rendering:crispEdges;"/>
  <rect x="38.6829268292683" y="37.19512195121951" width="1.4878048780487805" height="1.4878048780487805" style="fill:#000000;shape-rendering:crispEdges;"/>
  <rect x="43.146341463414636" y="37.19512195121951" width="1.4878048780487805" height="1.4878048780487805" style="fill:#000000;shape-rendering:crispEdges;"/>
  <rect x="44.63414634146341" y="37.19512195121951" width="1.4878048780487805" height="1.4878048780487805" style="fill:#000000;shape-rendering:crispEdges;"/>
  <rect x="49.09756097560976" y="37.19512195121951" width="1.4878048780487805" height="1.4878048780487805" style="fill:#000000;shape-rendering:crispEdges;"/>
  <rect x="53.5609756097561" y="37.19512195121951" width="1.4878048780487805" height="1.4878048780487805" style="fill:#000000;shape-rendering:crispEdges;"/>
  <rect x="10.414634146341463" y="38.6829268292683" width="1.4878048780487805" height="1.4878048780487805" style="fill:#000000;shape-rendering:crispEdges;"/>
  <rect x="13.390243902439025" y="38.6829268292683" width="1.4878048780487805" height="1.4878048780487805" style="fill:#000000;shape-rendering:crispEdges;"/>
  <rect x="14.878048780487804" y="38.6829268292683" width="1.4878048780487805" height="1.4878048780487805" style="fill:#000000;shape-rendering:crispEdges;"/>
  <rect x="17.853658536585364" y="38.6829268292683" width="1.4878048780487805" height="1.4878048780487805" style="fill:#000000;shape-rendering:crispEdges;"/>
  <rect x="20.829268292682926" y="38.6829268292683" width="1.4878048780487805" height="1.4878048780487805" style="fill:#000000;shape-rendering:crispEdges;"/>
  <rect x="23.804878048780488" y="38.6829268292683" width="1.4878048780487805" height="1.4878048780487805" style="fill:#000000;shape-rendering:crispEdges;"/>
  <rect x="25.292682926829265" y="38.6829268292683" width="1.4878048780487805" height="1.4878048780487805" style="fill:#000000;shape-rendering:crispEdges;"/>
  <rect x="29.75609756097561" y="38.6829268292683" width="1.4878048780487805" height="1.4878048780487805" style="fill:#000000;shape-rendering:crispEdges;"/>
  <rect x="31.24390243902439" y="38.6829268292683" width="1.4878048780487805" height="1.4878048780487805" style="fill:#000000;shape-rendering:crispEdges;"/>
  <rect x="35.707317073170735" y="38.6829268292683" width="1.4878048780487805" height="1.4878048780487805" style="fill:#000000;shape-rendering:crispEdges;"/>
  <rect x="41.65853658536585" y="38.6829268292683" width="1.4878048780487805" height="1.4878048780487805" style="fill:#000000;shape-rendering:crispEdges;"/>
  <rect x="47.609756097560975" y="38.6829268292683" width="1.4878048780487805" height="1.4878048780487805" style="fill:#000000;shape-rendering:crispEdges;"/>
  <rect x="49.09756097560976" y="38.6829268292683" width="1.4878048780487805" height="1.4878048780487805" style="fill:#000000;shape-rendering:crispEdges;"/>
  <rect x="50.58536585365854" y="38.6829268292683" width="1.4878048780487805" height="1.4878048780487805" style="fill:#000000;shape-rendering:crispEdges;"/>
  <rect x="52.07317073170732" y="38.6829268292683" width="1.4878048780487805" height="1.4878048780487805" style="fill:#000000;shape-rendering:crispEdges;"/>
  <rect x="5.951219512195122" y="40.170731707317074" width="1.4878048780487805" height="1.4878048780487805" style="fill:#000000;shape-rendering:crispEdges;"/>
  <rect x="7.439024390243903" y="40.170731707317074" width="1.4878048780487805" height="1.4878048780487805" style="fill:#000000;shape-rendering:crispEdges;"/>
  <rect x="16.365853658536587" y="40.170731707317074" width="1.4878048780487805" height="1.4878048780487805" style="fill:#000000;shape-rendering:crispEdges;"/>
  <rect x="19.34146341463415" y="40.170731707317074" width="1.4878048780487805" height="1.4878048780487805" style="fill:#000000;shape-rendering:crispEdges;"/>
  <rect x="20.829268292682926" y="40.170731707317074" width="1.4878048780487805" height="1.4878048780487805" style="fill:#000000;shape-rendering:crispEdges;"/>
  <rect x="23.804878048780488" y="40.170731707317074" width="1.4878048780487805" height="1.4878048780487805" style="fill:#000000;shape-rendering:crispEdges;"/>
  <rect x="28.268292682926827" y="40.170731707317074" width="1.4878048780487805" height="1.4878048780487805" style="fill:#000000;shape-rendering:crispEdges;"/>
  <rect x="29.75609756097561" y="40.170731707317074" width="1.4878048780487805" height="1.4878048780487805" style="fill:#000000;shape-rendering:crispEdges;"/>
  <rect x="31.24390243902439" y="40.170731707317074" width="1.4878048780487805" height="1.4878048780487805" style="fill:#000000;shape-rendering:crispEdges;"/>
  <rect x="34.21951219512195" y="40.170731707317074" width="1.4878048780487805" height="1.4878048780487805" style="fill:#000000;shape-rendering:crispEdges;"/>
  <rect x="37.19512195121951" y="40.170731707317074" width="1.4878048780487805" height="1.4878048780487805" style="fill:#000000;shape-rendering:crispEdges;"/>
  <rect x="38.6829268292683" y="40.170731707317074" width="1.4878048780487805" height="1.4878048780487805" style="fill:#000000;shape-rendering:crispEdges;"/>
  <rect x="44.63414634146341" y="40.170731707317074" width="1.4878048780487805" height="1.4878048780487805" style="fill:#000000;shape-rendering:crispEdges;"/>
  <rect x="46.1219512195122" y="40.170731707317074" width="1.4878048780487805" height="1.4878048780487805" style="fill:#000000;shape-rendering:crispEdges;"/>
  <rect x="47.609756097560975" y="40.170731707317074" width="1.4878048780487805" height="1.4878048780487805" style="fill:#000000;shape-rendering:crispEdges;"/>
  <rect x="49.09756097560976" y="40.170731707317074" width="1.4878048780487805" height="1.4878048780487805" style="fill:#000000;shape-rendering:crispEdges;"/>
  <rect x="53.5609756097561" y="40.170731707317074" width="1.4878048780487805" height="1.4878048780487805" style="fill:#000000;shape-rendering:crispEdges;"/>
  <rect x="7.439024390243903" y="41.65853658536585" width="1.4878048780487805" height="1.4878048780487805" style="fill:#000000;shape-rendering:crispEdges;"/>
  <rect x="8.926829268292682" y="41.65853658536585" width="1.4878048780487805" height="1.4878048780487805" style="fill:#000000;shape-rendering:crispEdges;"/>
  <rect x="10.414634146341463" y="41.65853658536585" width="1.4878048780487805" height="1.4878048780487805" style="fill:#000000;shape-rendering:crispEdges;"/>
  <rect x="11.902439024390244" y="41.65853658536585" width="1.4878048780487805" height="1.4878048780487805" style="fill:#000000;shape-rendering:crispEdges;"/>
  <rect x="13.390243902439025" y="41.65853658536585" width="1.4878048780487805" height="1.4878048780487805" style="fill:#000000;shape-rendering:crispEdges;"/>
  <rect x="14.878048780487804" y="41.65853658536585" width="1.4878048780487805" height="1.4878048780487805" style="fill:#000000;shape-rendering:crispEdges;"/>
  <rect x="17.853658536585364" y="41.65853658536585" width="1.4878048780487805" height="1.4878048780487805" style="fill:#000000;shape-rendering:crispEdges;"/>
  <rect x="23.804878048780488" y="41.65853658536585" width="1.4878048780487805" height="1.4878048780487805" style="fill:#000000;shape-rendering:crispEdges;"/>
  <rect x="25.292682926829265" y="41.65853658536585" width="1.4878048780487805" height="1.4878048780487805" style="fill:#000000;shape-rendering:crispEdges;"/>
  <rect x="28.268292682926827" y="41.65853658536585" width="1.4878048780487805" height="1.4878048780487805" style="fill:#000000;shape-rendering:crispEdges;"/>
  <rect x="31.24390243902439" y="41.65853658536585" width="1.4878048780487805" height="1.4878048780487805" style="fill:#000000;shape-rendering:crispEdges;"/>
  <rect x="32.73170731707317" y="41.65853658536585" width="1.4878048780487805" height="1.4878048780487805" style="fill:#000000;shape-rendering:crispEdges;"/>
  <rect x="34.21951219512195" y="41.65853658536585" width="1.4878048780487805" height="1.4878048780487805" style="fill:#000000;shape-rendering:crispEdges;"/>
  <rect x="35.707317073170735" y="41.65853658536585" width="1.4878048780487805" height="1.4878048780487805" style="fill:#000000;shape-rendering:crispEdges;"/>
  <rect x="40.170731707317074" y="41.65853658536585" width="1.4878048780487805" height="1.4878048780487805" style="fill:#000000;shape-rendering:crispEdges;"/>
  <rect x="41.65853658536585" y="41.65853658536585" width="1.4878048780487805" height="1.4878048780487805" style="fill:#000000;shape-rendering:crispEdges;"/>
  <rect x="43.146341463414636" y="41.65853658536585" width="1.4878048780487805" height="1.4878048780487805" style="fill:#000000;shape-rendering:crispEdges;"/>
  <rect x="44.63414634146341" y="41.65853658536585" width="1.4878048780487805" height="1.4878048780487805" style="fill:#000000;shape-rendering:crispEdges;"/>
  <rect x="46.1219512195122" y="41.65853658536585" width="1.4878048780487805" height="1.4878048780487805" style="fill:#000000;shape-rendering:crispEdges;"/>
  <rect x="47.609756097560975" y="41.65853658536585" width="1.4878048780487805" height="1.4878048780487805" style="fill:#000000;shape-rendering:crispEdges;"/>
  <rect x="52.07317073170732" y="41.65853658536585" width="1.4878048780487805" height="1.4878048780487805" style="fill:#000000;shape-rendering:crispEdges;"/>
  <rect x="23.804878048780488" y="43.146341463414636" width="1.4878048780487805" height="1.4878048780487805" style="fill:#000000;shape-rendering:crispEdges;"/>
  <rect x="25.292682926829265" y="43.146341463414636" width="1.4878048780487805" height="1.4878048780487805" style="fill:#000000;shape-rendering:crispEdges;"/>
  <rect x="28.268292682926827" y="43.146341463414636" width="1.4878048780487805" height="1.4878048780487805" style="fill:#000000;shape-rendering:crispEdges;"/>
  <rect x="29.75609756097561" y="43.146341463414636" width="1.4878048780487805" height="1.4878048780487805" style="fill:#000000;shape-rendering:crispEdges;"/>
  <rect x="31.24390243902439" y="43.146341463414636" width="1.4878048780487805" height="1.4878048780487805" style="fill:#000000;shape-rendering:crispEdges;"/>
  <rect x="35.707317073170735" y="43.146341463414636" width="1.4878048780487805" height="1.4878048780487805" style="fill:#000000;shape-rendering:crispEdges;"/>
  <rect x="38.6829268292683" y="43.146341463414636" width="1.4878048780487805" height="1.4878048780487805" style="fill:#000000;shape-rendering:crispEdges;"/>
  <rect x="41.65853658536585" y="43.146341463414636" width="1.4878048780487805" height="1.4878048780487805" style="fill:#000000;shape-rendering:crispEdges;"/>
  <rect x="47.609756097560975" y="43.146341463414636" width="1.4878048780487805" height="1.4878048780487805" style="fill:#000000;shape-rendering:crispEdges;"/>
  <rect x="52.07317073170732" y="43.146341463414636" width="1.4878048780487805" height="1.4878048780487805" style="fill:#000000;shape-rendering:crispEdges;"/>
  <rect x="5.951219512195122" y="44.63414634146341" width="1.4878048780487805" height="1.4878048780487805" style="fill:#000000;shape-rendering:crispEdges;"/>
  <rect x="7.439024390243903" y="44.63414634146341" width="1.4878048780487805" height="1.4878048780487805" style="fill:#000000;shape-rendering:crispEdges;"/>
  <rect x="8.926829268292682" y="44.63414634146341" width="1.4878048780487805" height="1.4878048780487805" style="fill:#000000;shape-rendering:crispEdges;"/>
  <rect x="10.414634146341463" y="44.63414634146341" width="1.4878048780487805" height="1.4878048780487805" style="fill:#000000;shape-rendering:crispEdges;"/>
  <rect x="11.902439024390244" y="44.63414634146341" width="1.4878048780487805" height="1.4878048780487805" style="fill:#000000;shape-rendering:crispEdges;"/>
  <rect x="13.390243902439025" y="44.63414634146341" width="1.4878048780487805" height="1.4878048780487805" style="fill:#000000;shape-rendering:crispEdges;"/>
  <rect x="14.878048780487804" y="44.63414634146341" width="1.4878048780487805" height="1.4878048780487805" style="fill:#000000;shape-rendering:crispEdges;"/>
  <rect x="17.853658536585364" y="44.63414634146341" width="1.4878048780487805" height="1.4878048780487805" style="fill:#000000;shape-rendering:crispEdges;"/>
  <rect x="19.34146341463415" y="44.63414634146341" width="1.4878048780487805" height="1.4878048780487805" style="fill:#000000;shape-rendering:crispEdges;"/>
  <rect x="26.78048780487805" y="44.63414634146341" width="1.4878048780487805" height="1.4878048780487805" style="fill:#000000;shape-rendering:crispEdges;"/>
  <rect x="28.268292682926827" y="44.63414634146341" width="1.4878048780487805" height="1.4878048780487805" style="fill:#000000;shape-rendering:crispEdges;"/>
  <rect x="29.75609756097561" y="44.63414634146341" width="1.4878048780487805" height="1.4878048780487805" style="fill:#000000;shape-rendering:crispEdges;"/>
  <rect x="31.24390243902439" y="44.63414634146341" width="1.4878048780487805" height="1.4878048780487805" style="fill:#000000;shape-rendering:crispEdges;"/>
  <rect x="32.73170731707317" y="44.63414634146341" width="1.4878048780487805" height="1.4878048780487805" style="fill:#000000;shape-rendering:crispEdges;"/>
  <rect x="34.21951219512195" y="44.63414634146341" width="1.4878048780487805" height="1.4878048780487805" style="fill:#000000;shape-rendering:crispEdges;"/>
  <rect x="37.19512195121951" y="44.63414634146341" width="1.4878048780487805" height="1.4878048780487805" style="fill:#000000;shape-rendering:crispEdges;"/>
  <rect x="38.6829268292683" y="44.63414634146341" width="1.4878048780487805" height="1.4878048780487805" style="fill:#000000;shape-rendering:crispEdges;"/>
  <rect x="40.170731707317074" y="44.63414634146341" width="1.4878048780487805" height="1.4878048780487805" style="fill:#000000;shape-rendering:crispEdges;"/>
  <rect x="41.65853658536585" y="44.63414634146341" width="1.4878048780487805" height="1.4878048780487805" style="fill:#000000;shape-rendering:crispEdges;"/>
  <rect x="44.63414634146341" y="44.63414634146341" width="1.4878048780487805" height="1.4878048780487805" style="fill:#000000;shape-rendering:crispEdges;"/>
  <rect x="47.609756097560975" y="44.63414634146341" width="1.4878048780487805" height="1.4878048780487805" style="fill:#000000;shape-rendering:crispEdges;"/>
  <rect x="50.58536585365854" y="44.63414634146341" width="1.4878048780487805" height="1.4878048780487805" style="fill:#000000;shape-rendering:crispEdges;"/>
  <rect x="5.951219512195122" y="46.1219512195122" width="1.4878048780487805" height="1.4878048780487805" style="fill:#000000;shape-rendering:crispEdges;"/>
  <rect x="14.878048780487804" y="46.1219512195122" width="1.4878048780487805" height="1.4878048780487805" style="fill:#000000;shape-rendering:crispEdges;"/>
  <rect x="19.34146341463415" y="46.1219512195122" width="1.4878048780487805" height="1.4878048780487805" style="fill:#000000;shape-rendering:crispEdges;"/>
  <rect x="20.829268292682926" y="46.1219512195122" width="1.4878048780487805" height="1.4878048780487805" style="fill:#000000;shape-rendering:crispEdges;"/>
  <rect x="22.31707317073171" y="46.1219512195122" width="1.4878048780487805" height="1.4878048780487805" style="fill:#000000;shape-rendering:crispEdges;"/>
  <rect x="23.804878048780488" y="46.1219512195122" width="1.4878048780487805" height="1.4878048780487805" style="fill:#000000;shape-rendering:crispEdges;"/>
  <rect x="25.292682926829265" y="46.1219512195122" width="1.4878048780487805" height="1.4878048780487805" style="fill:#000000;shape-rendering:crispEdges;"/>
  <rect x="28.268292682926827" y="46.1219512195122" width="1.4878048780487805" height="1.4878048780487805" style="fill:#000000;shape-rendering:crispEdges;"/>
  <rect x="32.73170731707317" y="46.1219512195122" width="1.4878048780487805" height="1.4878048780487805" style="fill:#000000;shape-rendering:crispEdges;"/>
  <rect x="35.707317073170735" y="46.1219512195122" width="1.4878048780487805" height="1.4878048780487805" style="fill:#000000;shape-rendering:crispEdges;"/>
  <rect x="40.170731707317074" y="46.1219512195122" width="1.4878048780487805" height="1.4878048780487805" style="fill:#000000;shape-rendering:crispEdges;"/>
  <rect x="41.65853658536585" y="46.1219512195122" width="1.4878048780487805" height="1.4878048780487805" style="fill:#000000;shape-rendering:crispEdges;"/>
  <rect x="47.609756097560975" y="46.1219512195122" width="1.4878048780487805" height="1.4878048780487805" style="fill:#000000;shape-rendering:crispEdges;"/>
  <rect x="49.09756097560976" y="46.1219512195122" width="1.4878048780487805" height="1.4878048780487805" style="fill:#000000;shape-rendering:crispEdges;"/>
  <rect x="50.58536585365854" y="46.1219512195122" width="1.4878048780487805" height="1.4878048780487805" style="fill:#000000;shape-rendering:crispEdges;"/>
  <rect x="52.07317073170732" y="46.1219512195122" width="1.4878048780487805" height="1.4878048780487805" style="fill:#000000;shape-rendering:crispEdges;"/>
  <rect x="5.951219512195122" y="47.609756097560975" width="1.4878048780487805" height="1.4878048780487805" style="fill:#000000;shape-rendering:crispEdges;"/>
  <rect x="8.926829268292682" y="47.609756097560975" width="1.4878048780487805" height="1.4878048780487805" style="fill:#000000;shape-rendering:crispEdges;"/>
  <rect x="10.414634146341463" y="47.609756097560975" width="1.4878048780487805" height="1.4878048780487805" style="fill:#000000;shape-rendering:crispEdges;"/>
  <rect x="11.902439024390244" y="47.609756097560975" width="1.4878048780487805" height="1.4878048780487805" style="fill:#000000;shape-rendering:crispEdges;"/>
  <rect x="14.878048780487804" y="47.609756097560975" width="1.4878048780487805" height="1.4878048780487805" style="fill:#000000;shape-rendering:crispEdges;"/>
  <rect x="20.829268292682926" y="47.609756097560975" width="1.4878048780487805" height="1.4878048780487805" style="fill:#000000;shape-rendering:crispEdges;"/>
  <rect x="23.804878048780488" y="47.609756097560975" width="1.4878048780487805" height="1.4878048780487805" style="fill:#000000;shape-rendering:crispEdges;"/>
  <rect x="29.75609756097561" y="47.609756097560975" width="1.4878048780487805" height="1.4878048780487805" style="fill:#000000;shape-rendering:crispEdges;"/>
  <rect x="31.24390243902439" y="47.609756097560975" width="1.4878048780487805" height="1.4878048780487805" style="fill:#000000;shape-rendering:crispEdges;"/>
  <rect x="32.73170731707317" y="47.609756097560975" width="1.4878048780487805" height="1.4878048780487805" style="fill:#000000;shape-rendering:crispEdges;"/>
  <rect x="34.21951219512195" y="47.609756097560975" width="1.4878048780487805" height="1.4878048780487805" style="fill:#000000;shape-rendering:crispEdges;"/>
  <rect x="40.170731707317074" y="47.609756097560975" width="1.4878048780487805" height="1.4878048780487805" style="fill:#000000;shape-rendering:crispEdges;"/>
  <rect x="41.65853658536585" y="47.609756097560975" width="1.4878048780487805" height="1.4878048780487805" style="fill:#000000;shape-rendering:crispEdges;"/>
  <rect x="43.146341463414636" y="47.609756097560975" width="1.4878048780487805" height="1.4878048780487805" style="fill:#000000;shape-rendering:crispEdges;"/>
  <rect x="44.63414634146341" y="47.609756097560975" width="1.4878048780487805" height="1.4878048780487805" style="fill:#000000;shape-rendering:crispEdges;"/>
  <rect x="46.1219512195122" y="47.609756097560975" width="1.4878048780487805" height="1.4878048780487805" style="fill:#000000;shape-rendering:crispEdges;"/>
  <rect x="47.609756097560975" y="47.609756097560975" width="1.4878048780487805" height="1.4878048780487805" style="fill:#000000;shape-rendering:crispEdges;"/>
  <rect x="52.07317073170732" y="47.609756097560975" width="1.4878048780487805" height="1.4878048780487805" style="fill:#000000;shape-rendering:crispEdges;"/>
  <rect x="53.5609756097561" y="47.609756097560975" width="1.4878048780487805" height="1.4878048780487805" style="fill:#000000;shape-rendering:crispEdges;"/>
  <rect x="5.951219512195122" y="49.09756097560976" width="1.4878048780487805" height="1.4878048780487805" style="fill:#000000;shape-rendering:crispEdges;"/>
  <rect x="8.926829268292682" y="49.09756097560976" width="1.4878048780487805" height="1.4878048780487805" style="fill:#000000;shape-rendering:crispEdges;"/>
  <rect x="10.414634146341463" y="49.09756097560976" width="1.4878048780487805" height="1.4878048780487805" style="fill:#000000;shape-rendering:crispEdges;"/>
  <rect x="11.902439024390244" y="49.09756097560976" width="1.4878048780487805" height="1.4878048780487805" style="fill:#000000;shape-rendering:crispEdges;"/>
  <rect x="14.878048780487804" y="49.09756097560976" width="1.4878048780487805" height="1.4878048780487805" style="fill:#000000;shape-rendering:crispEdges;"/>
  <rect x="17.853658536585364" y="49.09756097560976" width="1.4878048780487805" height="1.4878048780487805" style="fill:#000000;shape-rendering:crispEdges;"/>
  <rect x="19.34146341463415" y="49.09756097560976" width="1.4878048780487805" height="1.4878048780487805" style="fill:#000000;shape-rendering:crispEdges;"/>
  <rect x="20.829268292682926" y="49.09756097560976" width="1.4878048780487805" height="1.4878048780487805" style="fill:#000000;shape-rendering:crispEdges;"/>
  <rect x="22.31707317073171" y="49.09756097560976" width="1.4878048780487805" height="1.4878048780487805" style="fill:#000000;shape-rendering:crispEdges;"/>
  <rect x="23.804878048780488" y="49.09756097560976" width="1.4878048780487805" height="1.4878048780487805" style="fill:#000000;shape-rendering:crispEdges;"/>
  <rect x="26.78048780487805" y="49.09756097560976" width="1.4878048780487805" height="1.4878048780487805" style="fill:#000000;shape-rendering:crispEdges;"/>
  <rect x="28.268292682926827" y="49.09756097560976" width="1.4878048780487805" height="1.4878048780487805" style="fill:#000000;shape-rendering:crispEdges;"/>
  <rect x="29.75609756097561" y="49.09756097560976" width="1.4878048780487805" height="1.4878048780487805" style="fill:#000000;shape-rendering:crispEdges;"/>
  <rect x="31.24390243902439" y="49.09756097560976" width="1.4878048780487805" height="1.4878048780487805" style="fill:#000000;shape-rendering:crispEdges;"/>
  <rect x="35.707317073170735" y="49.09756097560976" width="1.4878048780487805" height="1.4878048780487805" style="fill:#000000;shape-rendering:crispEdges;"/>
  <rect x="37.19512195121951" y="49.09756097560976" width="1.4878048780487805" height="1.4878048780487805" style="fill:#000000;shape-rendering:crispEdges;"/>
  <rect x="40.170731707317074" y="49.09756097560976" width="1.4878048780487805" height="1.4878048780487805" style="fill:#000000;shape-rendering:crispEdges;"/>
  <rect x="43.146341463414636" y="49.09756097560976" width="1.4878048780487805" height="1.4878048780487805" style="fill:#000000;shape-rendering:crispEdges;"/>
  <rect x="46.1219512195122" y="49.09756097560976" width="1.4878048780487805" height="1.4878048780487805" style="fill:#000000;shape-rendering:crispEdges;"/>
  <rect x="50.58536585365854" y="49.09756097560976" width="1.4878048780487805" height="1.4878048780487805" style="fill:#000000;shape-rendering:crispEdges;"/>
  <rect x="53.5609756097561" y="49.09756097560976" width="1.4878048780487805" height="1.4878048780487805" style="fill:#000000;shape-rendering:crispEdges;"/>
  <rect x="5.951219512195122" y="50.58536585365854" width="1.4878048780487805" height="1.4878048780487805" style="fill:#000000;shape-rendering:crispEdges;"/>
  <rect x="8.926829268292682" y="50.58536585365854" width="1.4878048780487805" height="1.4878048780487805" style="fill:#000000;shape-rendering:crispEdges;"/>
  <rect x="10.414634146341463" y="50.58536585365854" width="1.4878048780487805" height="1.4878048780487805" style="fill:#000000;shape-rendering:crispEdges;"/>
  <rect x="11.902439024390244" y="50.58536585365854" width="1.4878048780487805" height="1.4878048780487805" style="fill:#000000;shape-rendering:crispEdges;"/>
  <rect x="14.878048780487804" y="50.58536585365854" width="1.4878048780487805" height="1.4878048780487805" style="fill:#000000;shape-rendering:crispEdges;"/>
  <rect x="19.34146341463415" y="50.58536585365854" width="1.4878048780487805" height="1.4878048780487805" style="fill:#000000;shape-rendering:crispEdges;"/>
  <rect x="25.292682926829265" y="50.58536585365854" width="1.4878048780487805" height="1.4878048780487805" style="fill:#000000;shape-rendering:crispEdges;"/>
  <rect x="26.78048780487805" y="50.58536585365854" width="1.4878048780487805" height="1.4878048780487805" style="fill:#000000;shape-rendering:crispEdges;"/>
  <rect x="28.268292682926827" y="50.58536585365854" width="1.4878048780487805" height="1.4878048780487805" style="fill:#000000;shape-rendering:crispEdges;"/>
  <rect x="29.75609756097561" y="50.58536585365854" width="1.4878048780487805" height="1.4878048780487805" style="fill:#000000;shape-rendering:crispEdges;"/>
  <rect x="32.73170731707317" y="50.58536585365854" width="1.4878048780487805" height="1.4878048780487805" style="fill:#000000;shape-rendering:crispEdges;"/>
  <rect x="35.707317073170735" y="50.58536585365854" width="1.4878048780487805" height="1.4878048780487805" style="fill:#000000;shape-rendering:crispEdges;"/>
  <rect x="46.1219512195122" y="50.58536585365854" width="1.4878048780487805" height="1.4878048780487805" style="fill:#000000;shape-rendering:crispEdges;"/>
  <rect x="47.609756097560975" y="50.58536585365854" width="1.4878048780487805" height="1.4878048780487805" style="fill:#000000;shape-rendering:crispEdges;"/>
  <rect x="50.58536585365854" y="50.58536585365854" width="1.4878048780487805" height="1.4878048780487805" style="fill:#000000;shape-rendering:crispEdges;"/>
  <rect x="53.5609756097561" y="50.58536585365854" width="1.4878048780487805" height="1.4878048780487805" style="fill:#000000;shape-rendering:crispEdges;"/>
  <rect x="5.951219512195122" y="52.07317073170732" width="1.4878048780487805" height="1.4878048780487805" style="fill:#000000;shape-rendering:crispEdges;"/>
  <rect x="14.878048780487804" y="52.07317073170732" width="1.4878048780487805" height="1.4878048780487805" style="fill:#000000;shape-rendering:crispEdges;"/>
  <rect x="17.853658536585364" y="52.07317073170732" width="1.4878048780487805" height="1.4878048780487805" style="fill:#000000;shape-rendering:crispEdges;"/>
  <rect x="22.31707317073171" y="52.07317073170732" width="1.4878048780487805" height="1.4878048780487805" style="fill:#000000;shape-rendering:crispEdges;"/>
  <rect x="23.804878048780488" y="52.07317073170732" width="1.4878048780487805" height="1.4878048780487805" style="fill:#000000;shape-rendering:crispEdges;"/>
  <rect x="25.292682926829265" y="52.07317073170732" width="1.4878048780487805" height="1.4878048780487805" style="fill:#000000;shape-rendering:crispEdges;"/>
  <rect x="31.24390243902439" y="52.07317073170732" width="1.4878048780487805" height="1.4878048780487805" style="fill:#000000;shape-rendering:crispEdges;"/>
  <rect x="32.73170731707317" y="52.07317073170732" width="1.4878048780487805" height="1.4878048780487805" style="fill:#000000;shape-rendering:crispEdges;"/>
  <rect x="34.21951219512195" y="52.07317073170732" width="1.4878048780487805" height="1.4878048780487805" style="fill:#000000;shape-rendering:crispEdges;"/>
  <rect x="35.707317073170735" y="52.07317073170732" width="1.4878048780487805" height="1.4878048780487805" style="fill:#000000;shape-rendering:crispEdges;"/>
  <rect x="38.6829268292683" y="52.07317073170732" width="1.4878048780487805" height="1.4878048780487805" style="fill:#000000;shape-rendering:crispEdges;"/>
  <rect x="41.65853658536585" y="52.07317073170732" width="1.4878048780487805" height="1.4878048780487805" style="fill:#000000;shape-rendering:crispEdges;"/>
  <rect x="47.609756097560975" y="52.07317073170732" width="1.4878048780487805" height="1.4878048780487805" style="fill:#000000;shape-rendering:crispEdges;"/>
  <rect x="49.09756097560976" y="52.07317073170732" width="1.4878048780487805" height="1.4878048780487805" style="fill:#000000;shape-rendering:crispEdges;"/>
  <rect x="5.951219512195122" y="53.5609756097561" width="1.4878048780487805" height="1.4878048780487805" style="fill:#000000;shape-rendering:crispEdges;"/>
  <rect x="7.439024390243903" y="53.5609756097561" width="1.4878048780487805" height="1.4878048780487805" style="fill:#000000;shape-rendering:crispEdges;"/>
  <rect x="8.926829268292682" y="53.5609756097561" width="1.4878048780487805" height="1.4878048780487805" style="fill:#000000;shape-rendering:crispEdges;"/>
  <rect x="10.414634146341463" y="53.5609756097561" width="1.4878048780487805" height="1.4878048780487805" style="fill:#000000;shape-rendering:crispEdges;"/>
  <rect x="11.902439024390244" y="53.5609756097561" width="1.4878048780487805" height="1.4878048780487805" style="fill:#000000;shape-rendering:crispEdges;"/>
  <rect x="13.390243902439025" y="53.5609756097561" width="1.4878048780487805" height="1.4878048780487805" style="fill:#000000;shape-rendering:crispEdges;"/>
  <rect x="14.878048780487804" y="53.5609756097561" width="1.4878048780487805" height="1.4878048780487805" style="fill:#000000;shape-rendering:crispEdges;"/>
  <rect x="17.853658536585364" y="53.5609756097561" width="1.4878048780487805" height="1.4878048780487805" style="fill:#000000;shape-rendering:crispEdges;"/>
  <rect x="19.34146341463415" y="53.5609756097561" width="1.4878048780487805" height="1.4878048780487805" style="fill:#000000;shape-rendering:crispEdges;"/>
  <rect x="20.829268292682926" y="53.5609756097561" width="1.4878048780487805" height="1.4878048780487805" style="fill:#000000;shape-rendering:crispEdges;"/>
  <rect x="23.804878048780488" y="53.5609756097561" width="1.4878048780487805" height="1.4878048780487805" style="fill:#000000;shape-rendering:crispEdges;"/>
  <rect x="31.24390243902439" y="53.5609756097561" width="1.4878048780487805" height="1.4878048780487805" style="fill:#000000;shape-rendering:crispEdges;"/>
  <rect x="34.21951219512195" y="53.5609756097561" width="1.4878048780487805" height="1.4878048780487805" style="fill:#000000;shape-rendering:crispEdges;"/>
  <rect x="37.19512195121951" y="53.5609756097561" width="1.4878048780487805" height="1.4878048780487805" style="fill:#000000;shape-rendering:crispEdges;"/>
  <rect x="38.6829268292683" y="53.5609756097561" width="1.4878048780487805" height="1.4878048780487805" style="fill:#000000;shape-rendering:crispEdges;"/>
  <rect x="40.170731707317074" y="53.5609756097561" width="1.4878048780487805" height="1.4878048780487805" style="fill:#000000;shape-rendering:crispEdges;"/>
  <rect x="41.65853658536585" y="53.5609756097561" width="1.4878048780487805" height="1.4878048780487805" style="fill:#000000;shape-rendering:crispEdges;"/>
  <rect x="47.609756097560975" y="53.5609756097561" width="1.4878048780487805" height="1.4878048780487805" style="fill:#000000;shape-rendering:crispEdges;"/>
  <rect x="49.09756097560976" y="53.5609756097561" width="1.4878048780487805" height="1.4878048780487805" style="fill:#000000;shape-rendering:crispEdges;"/>
  <rect x="52.07317073170732" y="53.5609756097561" width="1.4878048780487805" height="1.4878048780487805" style="fill:#000000;shape-rendering:crispEdges;"/>
</svg>