<?xml version="1.0" standalone="yes"?><svg
    xmlns="http://www.w3.org/2000/svg" version="1.1"
    viewBox="-1 -1 22 22" width="128" height="128"><rect x="-2" y="-2" width="24" height="24" style="fill:#fff"/><path style="fill-rule:evenodd"
    d="M1
0h1v20h1v-20h1v20h1v-9h-5v1h6v1h-6v1h6v6h1v-6h1v6h1v-5h-9v1h20v1h-20v1h20v1h-20v1h1zM5
0h1v7h-6v1h5zM7
0h1v5h-8v1h7zM9
0h1v5h-1zM11
0h1v6h1v-6h1v6h6v1h-6v1h6v1h-5v-9h1v20h1v-20h1v20h1v-20h1v1h-20v1h20v1h-20v1h20v1h-9zM0
9h5v1h-5zM15
10h5v1h-5zM15
12h5v1h-6v7h1zM13
14h7v1h-8v5h1zM10
15h1v5h-1z"/></svg>