<?xml version="1.0" standalone="yes"?><svg
xmlns="http://www.w3.org/2000/svg" version="1.1"
viewBox="-2 -2 24 24" width="128" height="128"><rect
x="-3" y="-3" width="26" height="26" style="fill:#fff"/><path
style="fill-rule:evenodd" d="M1
0.5q0-.5 .5-.5h0q.5 0 .5 .5v19q0 .5 .5 .5h0q.5 0 .5-.5v-19q0-.5 .5-.5h0q.5 0 .5 .5v19q0 .5 .5 .5h0q.5 0 .5-.5v-8q0-.5-.5-.5h-4q-.5 0-.5 .5v0q0 .5 .5 .5h5q.5 0 .5 .5v0q0 .5-.5 .5h-5q-.5 0-.5 .5v0q0 .5 .5 .5h5q.5 0 .5 .5v5q0 .5 .5 .5h0q.5 0 .5-.5v-5q0-.5 .5-.5h0q.5 0 .5 .5v5q0 .5 .5 .5h0q.5 0 .5-.5v-4q0-.5-.5-.5h-8q-.5 0-.5 .5v0q0 .5 .5 .5h19q.5 0 .5 .5v0q0 .5-.5 .5h-19q-.5 0-.5 .5v0q0 .5 .5 .5h19q.5 0 .5 .5v0q0 .5-.5 .5h-19q-.5 0-.5 .5v0q0 .5 .5 .5h0q.5 0 .5-.5zM5
0.5q0-.5 .5-.5h0q.5 0 .5 .5v6q0 .5-.5 .5h-5q-.5 0-.5 .5v0q0 .5 .5 .5h4q.5 0 .5-.5zM7
0.5q0-.5 .5-.5h0q.5 0 .5 .5v4q0 .5-.5 .5h-7q-.5 0-.5 .5v0q0 .5 .5 .5h6q.5 0 .5-.5zM9
0.5q0-.5 .5-.5h0q.5 0 .5 .5v4q0 .5-.5 .5h0q-.5 0-.5-.5zM11
0.5q0-.5 .5-.5h0q.5 0 .5 .5v5q0 .5 .5 .5h0q.5 0 .5-.5v-5q0-.5 .5-.5h0q.5 0 .5 .5v5q0 .5 .5 .5h5q.5 0 .5 .5v0q0 .5-.5 .5h-5q-.5 0-.5 .5v0q0 .5 .5 .5h5q.5 0 .5 .5v0q0 .5-.5 .5h-4q-.5 0-.5-.5v-8q0-.5 .5-.5h0q.5 0 .5 .5v19q0 .5 .5 .5h0q.5 0 .5-.5v-19q0-.5 .5-.5h0q.5 0 .5 .5v19q0 .5 .5 .5h0q.5 0 .5-.5v-19q0-.5 .5-.5h0q.5 0 .5 .5v0q0 .5-.5 .5h-19q-.5 0-.5 .5v0q0 .5 .5 .5h19q.5 0 .5 .5v0q0 .5-.5 .5h-19q-.5 0-.5 .5v0q0 .5 .5 .5h19q.5 0 .5 .5v0q0 .5-.5 .5h-8q-.5 0-.5-.5zM0
9.5q0-.5 .5-.5h4q.5 0 .5 .5v0q0 .5-.5 .5h-4q-.5 0-.5-.5zM15
10.5q0-.5 .5-.5h4q.5 0 .5 .5v0q0 .5-.5 .5h-4q-.5 0-.5-.5zM15
12.5q0-.5 .5-.5h4q.5 0 .5 .5v0q0 .5-.5 .5h-5q-.5 0-.5 .5v6q0 .5 .5 .5h0q.5 0 .5-.5zM13
14.5q0-.5 .5-.5h6q.5 0 .5 .5v0q0 .5-.5 .5h-7q-.5 0-.5 .5v4q0 .5 .5 .5h0q.5 0 .5-.5zM10
15.5q0-.5 .5-.5h0q.5 0 .5 .5v4q0 .5-.5 .5h0q-.5 0-.5-.5z"/></svg>