<?xml version="1.0" standalone="yes"?>
<svg xmlns="http://www.w3.org/2000/svg" version="1.1" width="120" height="120">
  <rect x="0" y="0" width="120" height="120" style="fill:#ffffff;"/>
  <rect x="12.972972972972974" y="12.972972972972974" width="3.2432432432432434" height="3.2432432432432434" style="fill:#000000;"/>
  <rect x="16.216216216216218" y="12.972972972972974" width="3.2432432432432434" height="3.2432432432432434" style="fill:#000000;"/>
  <rect x="19.45945945945946" y="12.972972972972974" width="3.2432432432432434" height="3.2432432432432434" style="fill:#000000;"/>
  <rect x="22.7027027027027" y="12.972972972972974" width="3.2432432432432434" height="3.2432432432432434" style="fill:#000000;"/>
  <rect x="25.945945945945947" y="12.972972972972974" width="3.2432432432432434" height="3.2432432432432434" style="fill:#000000;"/>
  <rect x="29.189189189189193" y="12.972972972972974" width="3.2432432432432434" height="3.2432432432432434" style="fill:#000000;"/>
  <rect x="32.432432432432435" y="12.972972972972974" width="3.2432432432432434" height="3.2432432432432434" style="fill:#000000;"/>
  <rect x="38.91891891891892" y="12.972972972972974" width="3.2432432432432434" height="3.2432432432432434" style="fill:#000000;"/>
  <rect x="45.40540540540541" y="12.972972972972974" width="3.2432432432432434" height="3.2432432432432434" style="fill:#000000;"/>
  <rect x="48.64864864864865" y="12.972972972972974" width="3.2432432432432434" height="3.2432432432432434" style="fill:#000000;"/>
  <rect x="55.13513513513514" y="12.972972972972974" width="3.2432432432432434" height="3.2432432432432434" style="fill:#000000;"/>
  <rect x="61.62162162162163" y="12.972972972972974" width="3.2432432432432434" height="3.2432432432432434" style="fill:#000000;"/>
  <rect x="71.35135135135135" y="12.972972972972974" width="3.2432432432432434" height="3.2432432432432434" style="fill:#000000;"/>
  <rect x="77.83783783783784" y="12.972972972972974" width="3.2432432432432434" height="3.2432432432432434" style="fill:#000000;"/>
  <rect x="84.32432432432432" y="12.972972972972974" width="3.2432432432432434" height="3.2432432432432434" style="fill:#000000;"/>
  <rect x="87.56756756756756" y="12.972972972972974" width="3.2432432432432434" height="3.2432432432432434" style="fill:#000000;"/>
  <rect x="90.8108108108108" y="12.972972972972974" width="3.2432432432432434" height="3.2432432432432434" style="fill:#000000;"/>
  <rect x="94.05405405405405" y="12.972972972972974" width="3.2432432432432434" height="3.2432432432432434" style="fill:#000000;"/>
  <rect x="97.29729729729729" y="12.972972972972974" width="3.2432432432432434" height="3.2432432432432434" style="fill:#000000;"/>
  <rect x="100.54054054054055" y="12.972972972972974" width="3.2432432432432434" height="3.2432432432432434" style="fill:#000000;"/>
  <rect x="103.78378378378379" y="12.972972972972974" width="3.2432432432432434" height="3.2432432432432434" style="fill:#000000;"/>
  <rect x="12.972972972972974" y="16.216216216216218" width="3.2432432432432434" height="3.2432432432432434" style="fill:#000000;"/>
  <rect x="32.432432432432435" y="16.216216216216218" width="3.2432432432432434" height="3.2432432432432434" style="fill:#000000;"/>
  <rect x="42.16216216216216" y="16.216216216216218" width="3.2432432432432434" height="3.2432432432432434" style="fill:#000000;"/>
  <rect x="55.13513513513514" y="16.216216216216218" width="3.2432432432432434" height="3.2432432432432434" style="fill:#000000;"/>
  <rect x="68.10810810810811" y="16.216216216216218" width="3.2432432432432434" height="3.2432432432432434" style="fill:#000000;"/>
  <rect x="84.32432432432432" y="16.216216216216218" width="3.2432432432432434" height="3.2432432432432434" style="fill:#000000;"/>
  <rect x="103.78378378378379" y="16.216216216216218" width="3.2432432432432434" height="3.2432432432432434" style="fill:#000000;"/>
  <rect x="12.972972972972974" y="19.45945945945946" width="3.2432432432432434" height="3.2432432432432434" style="fill:#000000;"/>
  <rect x="19.45945945945946" y="19.45945945945946" width="3.2432432432432434" height="3.2432432432432434" style="fill:#000000;"/>
  <rect x="22.7027027027027" y="19.45945945945946" width="3.2432432432432434" height="3.2432432432432434" style="fill:#000000;"/>
  <rect x="25.945945945945947" y="19.45945945945946" width="3.2432432432432434" height="3.2432432432432434" style="fill:#000000;"/>
  <rect x="32.432432432432435" y="19.45945945945946" width="3.2432432432432434" height="3.2432432432432434" style="fill:#000000;"/>
  <rect x="42.16216216216216" y="19.45945945945946" width="3.2432432432432434" height="3.2432432432432434" style="fill:#000000;"/>
  <rect x="51.891891891891895" y="19.45945945945946" width="3.2432432432432434" height="3.2432432432432434" style="fill:#000000;"/>
  <rect x="58.378378378378386" y="19.45945945945946" width="3.2432432432432434" height="3.2432432432432434" style="fill:#000000;"/>
  <rect x="61.62162162162163" y="19.45945945945946" width="3.2432432432432434" height="3.2432432432432434" style="fill:#000000;"/>
  <rect x="64.86486486486487" y="19.45945945945946" width="3.2432432432432434" height="3.2432432432432434" style="fill:#000000;"/>
  <rect x="71.35135135135135" y="19.45945945945946" width="3.2432432432432434" height="3.2432432432432434" style="fill:#000000;"/>
  <rect x="74.5945945945946" y="19.45945945945946" width="3.2432432432432434" height="3.2432432432432434" style="fill:#000000;"/>
  <rect x="84.32432432432432" y="19.45945945945946" width="3.2432432432432434" height="3.2432432432432434" style="fill:#000000;"/>
  <rect x="90.8108108108108" y="19.45945945945946" width="3.2432432432432434" height="3.2432432432432434" style="fill:#000000;"/>
  <rect x="94.05405405405405" y="19.45945945945946" width="3.2432432432432434" height="3.2432432432432434" style="fill:#000000;"/>
  <rect x="97.29729729729729" y="19.45945945945946" width="3.2432432432432434" height="3.2432432432432434" style="fill:#000000;"/>
  <rect x="103.78378378378379" y="19.45945945945946" width="3.2432432432432434" height="3.2432432432432434" style="fill:#000000;"/>
  <rect x="12.972972972972974" y="22.7027027027027" width="3.2432432432432434" height="3.2432432432432434" style="fill:#000000;"/>
  <rect x="19.45945945945946" y="22.7027027027027" width="3.2432432432432434" height="3.2432432432432434" style="fill:#000000;"/>
  <rect x="22.7027027027027" y="22.7027027027027" width="3.2432432432432434" height="3.2432432432432434" style="fill:#000000;"/>
  <rect x="25.945945945945947" y="22.7027027027027" width="3.2432432432432434" height="3.2432432432432434" style="fill:#000000;"/>
  <rect x="32.432432432432435" y="22.7027027027027" width="3.2432432432432434" height="3.2432432432432434" style="fill:#000000;"/>
  <rect x="38.91891891891892" y="22.7027027027027" width="3.2432432432432434" height="3.2432432432432434" style="fill:#000000;"/>
  <rect x="48.64864864864865" y="22.7027027027027" width="3.2432432432432434" height="3.2432432432432434" style="fill:#000000;"/>
  <rect x="51.891891891891895" y="22.7027027027027" width="3.2432432432432434" height="3.2432432432432434" style="fill:#000000;"/>
  <rect x="55.13513513513514" y="22.7027027027027" width="3.2432432432432434" height="3.2432432432432434" style="fill:#000000;"/>
  <rect x="64.86486486486487" y="22.7027027027027" width="3.2432432432432434" height="3.2432432432432434" style="fill:#000000;"/>
  <rect x="68.10810810810811" y="22.7027027027027" width="3.2432432432432434" height="3.2432432432432434" style="fill:#000000;"/>
  <rect x="71.35135135135135" y="22.7027027027027" width="3.2432432432432434" height="3.2432432432432434" style="fill:#000000;"/>
  <rect x="77.83783783783784" y="22.7027027027027" width="3.2432432432432434" height="3.2432432432432434" style="fill:#000000;"/>
  <rect x="84.32432432432432" y="22.7027027027027" width="3.2432432432432434" height="3.2432432432432434" style="fill:#000000;"/>
  <rect x="90.8108108108108" y="22.7027027027027" width="3.2432432432432434" height="3.2432432432432434" style="fill:#000000;"/>
  <rect x="94.05405405405405" y="22.7027027027027" width="3.2432432432432434" height="3.2432432432432434" style="fill:#000000;"/>
  <rect x="97.29729729729729" y="22.7027027027027" width="3.2432432432432434" height="3.2432432432432434" style="fill:#000000;"/>
  <rect x="103.78378378378379" y="22.7027027027027" width="3.2432432432432434" height="3.2432432432432434" style="fill:#000000;"/>
  <rect x="12.972972972972974" y="25.945945945945947" width="3.2432432432432434" height="3.2432432432432434" style="fill:#000000;"/>
  <rect x="19.45945945945946" y="25.945945945945947" width="3.2432432432432434" height="3.2432432432432434" style="fill:#000000;"/>
  <rect x="22.7027027027027" y="25.945945945945947" width="3.2432432432432434" height="3.2432432432432434" style="fill:#000000;"/>
  <rect x="25.945945945945947" y="25.945945945945947" width="3.2432432432432434" height="3.2432432432432434" style="fill:#000000;"/>
  <rect x="32.432432432432435" y="25.945945945945947" width="3.2432432432432434" height="3.2432432432432434" style="fill:#000000;"/>
  <rect x="42.16216216216216" y="25.945945945945947" width="3.2432432432432434" height="3.2432432432432434" style="fill:#000000;"/>
  <rect x="55.13513513513514" y="25.945945945945947" width="3.2432432432432434" height="3.2432432432432434" style="fill:#000000;"/>
  <rect x="61.62162162162163" y="25.945945945945947" width="3.2432432432432434" height="3.2432432432432434" style="fill:#000000;"/>
  <rect x="64.86486486486487" y="25.945945945945947" width="3.2432432432432434" height="3.2432432432432434" style="fill:#000000;"/>
  <rect x="68.10810810810811" y="25.945945945945947" width="3.2432432432432434" height="3.2432432432432434" style="fill:#000000;"/>
  <rect x="71.35135135135135" y="25.945945945945947" width="3.2432432432432434" height="3.2432432432432434" style="fill:#000000;"/>
  <rect x="74.5945945945946" y="25.945945945945947" width="3.2432432432432434" height="3.2432432432432434" style="fill:#000000;"/>
  <rect x="77.83783783783784" y="25.945945945945947" width="3.2432432432432434" height="3.2432432432432434" style="fill:#000000;"/>
  <rect x="84.32432432432432" y="25.945945945945947" width="3.2432432432432434" height="3.2432432432432434" style="fill:#000000;"/>
  <rect x="90.8108108108108" y="25.945945945945947" width="3.2432432432432434" height="3.2432432432432434" style="fill:#000000;"/>
  <rect x="94.05405405405405" y="25.945945945945947" width="3.2432432432432434" height="3.2432432432432434" style="fill:#000000;"/>
  <rect x="97.29729729729729" y="25.945945945945947" width="3.2432432432432434" height="3.2432432432432434" style="fill:#000000;"/>
  <rect x="103.78378378378379" y="25.945945945945947" width="3.2432432432432434" height="3.2432432432432434" style="fill:#000000;"/>
  <rect x="12.972972972972974" y="29.189189189189193" width="3.2432432432432434" height="3.2432432432432434" style="fill:#000000;"/>
  <rect x="32.432432432432435" y="29.189189189189193" width="3.2432432432432434" height="3.2432432432432434" style="fill:#000000;"/>
  <rect x="38.91891891891892" y="29.189189189189193" width="3.2432432432432434" height="3.2432432432432434" style="fill:#000000;"/>
  <rect x="42.16216216216216" y="29.189189189189193" width="3.2432432432432434" height="3.2432432432432434" style="fill:#000000;"/>
  <rect x="51.891891891891895" y="29.189189189189193" width="3.2432432432432434" height="3.2432432432432434" style="fill:#000000;"/>
  <rect x="55.13513513513514" y="29.189189189189193" width="3.2432432432432434" height="3.2432432432432434" style="fill:#000000;"/>
  <rect x="58.378378378378386" y="29.189189189189193" width="3.2432432432432434" height="3.2432432432432434" style="fill:#000000;"/>
  <rect x="61.62162162162163" y="29.189189189189193" width="3.2432432432432434" height="3.2432432432432434" style="fill:#000000;"/>
  <rect x="74.5945945945946" y="29.189189189189193" width="3.2432432432432434" height="3.2432432432432434" style="fill:#000000;"/>
  <rect x="77.83783783783784" y="29.189189189189193" width="3.2432432432432434" height="3.2432432432432434" style="fill:#000000;"/>
  <rect x="84.32432432432432" y="29.189189189189193" width="3.2432432432432434" height="3.2432432432432434" style="fill:#000000;"/>
  <rect x="103.78378378378379" y="29.189189189189193" width="3.2432432432432434" height="3.2432432432432434" style="fill:#000000;"/>
  <rect x="12.972972972972974" y="32.432432432432435" width="3.2432432432432434" height="3.2432432432432434" style="fill:#000000;"/>
  <rect x="16.216216216216218" y="32.432432432432435" width="3.2432432432432434" height="3.2432432432432434" style="fill:#000000;"/>
  <rect x="19.45945945945946" y="32.432432432432435" width="3.2432432432432434" height="3.2432432432432434" style="fill:#000000;"/>
  <rect x="22.7027027027027" y="32.432432432432435" width="3.2432432432432434" height="3.2432432432432434" style="fill:#000000;"/>
  <rect x="25.945945945945947" y="32.432432432432435" width="3.2432432432432434" height="3.2432432432432434" style="fill:#000000;"/>
  <rect x="29.189189189189193" y="32.432432432432435" width="3.2432432432432434" height="3.2432432432432434" style="fill:#000000;"/>
  <rect x="32.432432432432435" y="32.432432432432435" width="3.2432432432432434" height="3.2432432432432434" style="fill:#000000;"/>
  <rect x="38.91891891891892" y="32.432432432432435" width="3.2432432432432434" height="3.2432432432432434" style="fill:#000000;"/>
  <rect x="45.40540540540541" y="32.432432432432435" width="3.2432432432432434" height="3.2432432432432434" style="fill:#000000;"/>
  <rect x="51.891891891891895" y="32.432432432432435" width="3.2432432432432434" height="3.2432432432432434" style="fill:#000000;"/>
  <rect x="58.378378378378386" y="32.432432432432435" width="3.2432432432432434" height="3.2432432432432434" style="fill:#000000;"/>
  <rect x="64.86486486486487" y="32.432432432432435" width="3.2432432432432434" height="3.2432432432432434" style="fill:#000000;"/>
  <rect x="71.35135135135135" y="32.432432432432435" width="3.2432432432432434" height="3.2432432432432434" style="fill:#000000;"/>
  <rect x="77.83783783783784" y="32.432432432432435" width="3.2432432432432434" height="3.2432432432432434" style="fill:#000000;"/>
  <rect x="84.32432432432432" y="32.432432432432435" width="3.2432432432432434" height="3.2432432432432434" style="fill:#000000;"/>
  <rect x="87.56756756756756" y="32.432432432432435" width="3.2432432432432434" height="3.2432432432432434" style="fill:#000000;"/>
  <rect x="90.8108108108108" y="32.432432432432435" width="3.2432432432432434" height="3.2432432432432434" style="fill:#000000;"/>
  <rect x="94.05405405405405" y="32.432432432432435" width="3.2432432432432434" height="3.2432432432432434" style="fill:#000000;"/>
  <rect x="97.29729729729729" y="32.432432432432435" width="3.2432432432432434" height="3.2432432432432434" style="fill:#000000;"/>
  <rect x="100.54054054054055" y="32.432432432432435" width="3.2432432432432434" height="3.2432432432432434" style="fill:#000000;"/>
  <rect x="103.78378378378379" y="32.432432432432435" width="3.2432432432432434" height="3.2432432432432434" style="fill:#000000;"/>
  <rect x="42.16216216216216" y="35.67567567567568" width="3.2432432432432434" height="3.2432432432432434" style="fill:#000000;"/>
  <rect x="45.40540540540541" y="35.67567567567568" width="3.2432432432432434" height="3.2432432432432434" style="fill:#000000;"/>
  <rect x="48.64864864864865" y="35.67567567567568" width="3.2432432432432434" height="3.2432432432432434" style="fill:#000000;"/>
  <rect x="51.891891891891895" y="35.67567567567568" width="3.2432432432432434" height="3.2432432432432434" style="fill:#000000;"/>
  <rect x="68.10810810810811" y="35.67567567567568" width="3.2432432432432434" height="3.2432432432432434" style="fill:#000000;"/>
  <rect x="71.35135135135135" y="35.67567567567568" width="3.2432432432432434" height="3.2432432432432434" style="fill:#000000;"/>
  <rect x="74.5945945945946" y="35.67567567567568" width="3.2432432432432434" height="3.2432432432432434" style="fill:#000000;"/>
  <rect x="77.83783783783784" y="35.67567567567568" width="3.2432432432432434" height="3.2432432432432434" style="fill:#000000;"/>
  <rect x="29.189189189189193" y="38.91891891891892" width="3.2432432432432434" height="3.2432432432432434" style="fill:#000000;"/>
  <rect x="32.432432432432435" y="38.91891891891892" width="3.2432432432432434" height="3.2432432432432434" style="fill:#000000;"/>
  <rect x="38.91891891891892" y="38.91891891891892" width="3.2432432432432434" height="3.2432432432432434" style="fill:#000000;"/>
  <rect x="45.40540540540541" y="38.91891891891892" width="3.2432432432432434" height="3.2432432432432434" style="fill:#000000;"/>
  <rect x="48.64864864864865" y="38.91891891891892" width="3.2432432432432434" height="3.2432432432432434" style="fill:#000000;"/>
  <rect x="58.378378378378386" y="38.91891891891892" width="3.2432432432432434" height="3.2432432432432434" style="fill:#000000;"/>
  <rect x="64.86486486486487" y="38.91891891891892" width="3.2432432432432434" height="3.2432432432432434" style="fill:#000000;"/>
  <rect x="68.10810810810811" y="38.91891891891892" width="3.2432432432432434" height="3.2432432432432434" style="fill:#000000;"/>
  <rect x="77.83783783783784" y="38.91891891891892" width="3.2432432432432434" height="3.2432432432432434" style="fill:#000000;"/>
  <rect x="81.08108108108108" y="38.91891891891892" width="3.2432432432432434" height="3.2432432432432434" style="fill:#000000;"/>
  <rect x="87.56756756756756" y="38.91891891891892" width="3.2432432432432434" height="3.2432432432432434" style="fill:#000000;"/>
  <rect x="94.05405405405405" y="38.91891891891892" width="3.2432432432432434" height="3.2432432432432434" style="fill:#000000;"/>
  <rect x="103.78378378378379" y="38.91891891891892" width="3.2432432432432434" height="3.2432432432432434" style="fill:#000000;"/>
  <rect x="16.216216216216218" y="42.16216216216216" width="3.2432432432432434" height="3.2432432432432434" style="fill:#000000;"/>
  <rect x="22.7027027027027" y="42.16216216216216" width="3.2432432432432434" height="3.2432432432432434" style="fill:#000000;"/>
  <rect x="29.189189189189193" y="42.16216216216216" width="3.2432432432432434" height="3.2432432432432434" style="fill:#000000;"/>
  <rect x="35.67567567567568" y="42.16216216216216" width="3.2432432432432434" height="3.2432432432432434" style="fill:#000000;"/>
  <rect x="48.64864864864865" y="42.16216216216216" width="3.2432432432432434" height="3.2432432432432434" style="fill:#000000;"/>
  <rect x="51.891891891891895" y="42.16216216216216" width="3.2432432432432434" height="3.2432432432432434" style="fill:#000000;"/>
  <rect x="61.62162162162163" y="42.16216216216216" width="3.2432432432432434" height="3.2432432432432434" style="fill:#000000;"/>
  <rect x="71.35135135135135" y="42.16216216216216" width="3.2432432432432434" height="3.2432432432432434" style="fill:#000000;"/>
  <rect x="74.5945945945946" y="42.16216216216216" width="3.2432432432432434" height="3.2432432432432434" style="fill:#000000;"/>
  <rect x="84.32432432432432" y="42.16216216216216" width="3.2432432432432434" height="3.2432432432432434" style="fill:#000000;"/>
  <rect x="90.8108108108108" y="42.16216216216216" width="3.2432432432432434" height="3.2432432432432434" style="fill:#000000;"/>
  <rect x="94.05405405405405" y="42.16216216216216" width="3.2432432432432434" height="3.2432432432432434" style="fill:#000000;"/>
  <rect x="97.29729729729729" y="42.16216216216216" width="3.2432432432432434" height="3.2432432432432434" style="fill:#000000;"/>
  <rect x="100.54054054054055" y="42.16216216216216" width="3.2432432432432434" height="3.2432432432432434" style="fill:#000000;"/>
  <rect x="103.78378378378379" y="42.16216216216216" width="3.2432432432432434" height="3.2432432432432434" style="fill:#000000;"/>
  <rect x="16.216216216216218" y="45.40540540540541" width="3.2432432432432434" height="3.2432432432432434" style="fill:#000000;"/>
  <rect x="22.7027027027027" y="45.40540540540541" width="3.2432432432432434" height="3.2432432432432434" style="fill:#000000;"/>
  <rect x="32.432432432432435" y="45.40540540540541" width="3.2432432432432434" height="3.2432432432432434" style="fill:#000000;"/>
  <rect x="38.91891891891892" y="45.40540540540541" width="3.2432432432432434" height="3.2432432432432434" style="fill:#000000;"/>
  <rect x="42.16216216216216" y="45.40540540540541" width="3.2432432432432434" height="3.2432432432432434" style="fill:#000000;"/>
  <rect x="45.40540540540541" y="45.40540540540541" width="3.2432432432432434" height="3.2432432432432434" style="fill:#000000;"/>
  <rect x="48.64864864864865" y="45.40540540540541" width="3.2432432432432434" height="3.2432432432432434" style="fill:#000000;"/>
  <rect x="51.891891891891895" y="45.40540540540541" width="3.2432432432432434" height="3.2432432432432434" style="fill:#000000;"/>
  <rect x="58.378378378378386" y="45.40540540540541" width="3.2432432432432434" height="3.2432432432432434" style="fill:#000000;"/>
  <rect x="61.62162162162163" y="45.40540540540541" width="3.2432432432432434" height="3.2432432432432434" style="fill:#000000;"/>
  <rect x="77.83783783783784" y="45.40540540540541" width="3.2432432432432434" height="3.2432432432432434" style="fill:#000000;"/>
  <rect x="81.08108108108108" y="45.40540540540541" width="3.2432432432432434" height="3.2432432432432434" style="fill:#000000;"/>
  <rect x="87.56756756756756" y="45.40540540540541" width="3.2432432432432434" height="3.2432432432432434" style="fill:#000000;"/>
  <rect x="94.05405405405405" y="45.40540540540541" width="3.2432432432432434" height="3.2432432432432434" style="fill:#000000;"/>
  <rect x="97.29729729729729" y="45.40540540540541" width="3.2432432432432434" height="3.2432432432432434" style="fill:#000000;"/>
  <rect x="12.972972972972974" y="48.64864864864865" width="3.2432432432432434" height="3.2432432432432434" style="fill:#000000;"/>
  <rect x="16.216216216216218" y="48.64864864864865" width="3.2432432432432434" height="3.2432432432432434" style="fill:#000000;"/>
  <rect x="22.7027027027027" y="48.64864864864865" width="3.2432432432432434" height="3.2432432432432434" style="fill:#000000;"/>
  <rect x="25.945945945945947" y="48.64864864864865" width="3.2432432432432434" height="3.2432432432432434" style="fill:#000000;"/>
  <rect x="29.189189189189193" y="48.64864864864865" width="3.2432432432432434" height="3.2432432432432434" style="fill:#000000;"/>
  <rect x="48.64864864864865" y="48.64864864864865" width="3.2432432432432434" height="3.2432432432432434" style="fill:#000000;"/>
  <rect x="58.378378378378386" y="48.64864864864865" width="3.2432432432432434" height="3.2432432432432434" style="fill:#000000;"/>
  <rect x="64.86486486486487" y="48.64864864864865" width="3.2432432432432434" height="3.2432432432432434" style="fill:#000000;"/>
  <rect x="68.10810810810811" y="48.64864864864865" width="3.2432432432432434" height="3.2432432432432434" style="fill:#000000;"/>
  <rect x="74.5945945945946" y="48.64864864864865" width="3.2432432432432434" height="3.2432432432432434" style="fill:#000000;"/>
  <rect x="81.08108108108108" y="48.64864864864865" width="3.2432432432432434" height="3.2432432432432434" style="fill:#000000;"/>
  <rect x="90.8108108108108" y="48.64864864864865" width="3.2432432432432434" height="3.2432432432432434" style="fill:#000000;"/>
  <rect x="94.05405405405405" y="48.64864864864865" width="3.2432432432432434" height="3.2432432432432434" style="fill:#000000;"/>
  <rect x="97.29729729729729" y="48.64864864864865" width="3.2432432432432434" height="3.2432432432432434" style="fill:#000000;"/>
  <rect x="32.432432432432435" y="51.891891891891895" width="3.2432432432432434" height="3.2432432432432434" style="fill:#000000;"/>
  <rect x="38.91891891891892" y="51.891891891891895" width="3.2432432432432434" height="3.2432432432432434" style="fill:#000000;"/>
  <rect x="42.16216216216216" y="51.891891891891895" width="3.2432432432432434" height="3.2432432432432434" style="fill:#000000;"/>
  <rect x="48.64864864864865" y="51.891891891891895" width="3.2432432432432434" height="3.2432432432432434" style="fill:#000000;"/>
  <rect x="58.378378378378386" y="51.891891891891895" width="3.2432432432432434" height="3.2432432432432434" style="fill:#000000;"/>
  <rect x="61.62162162162163" y="51.891891891891895" width="3.2432432432432434" height="3.2432432432432434" style="fill:#000000;"/>
  <rect x="64.86486486486487" y="51.891891891891895" width="3.2432432432432434" height="3.2432432432432434" style="fill:#000000;"/>
  <rect x="68.10810810810811" y="51.891891891891895" width="3.2432432432432434" height="3.2432432432432434" style="fill:#000000;"/>
  <rect x="77.83783783783784" y="51.891891891891895" width="3.2432432432432434" height="3.2432432432432434" style="fill:#000000;"/>
  <rect x="94.05405405405405" y="51.891891891891895" width="3.2432432432432434" height="3.2432432432432434" style="fill:#000000;"/>
  <rect x="97.29729729729729" y="51.891891891891895" width="3.2432432432432434" height="3.2432432432432434" style="fill:#000000;"/>
  <rect x="100.54054054054055" y="51.891891891891895" width="3.2432432432432434" height="3.2432432432432434" style="fill:#000000;"/>
  <rect x="103.78378378378379" y="51.891891891891895" width="3.2432432432432434" height="3.2432432432432434" style="fill:#000000;"/>
  <rect x="16.216216216216218" y="55.13513513513514" width="3.2432432432432434" height="3.2432432432432434" style="fill:#000000;"/>
  <rect x="22.7027027027027" y="55.13513513513514" width="3.2432432432432434" height="3.2432432432432434" style="fill:#000000;"/>
  <rect x="25.945945945945947" y="55.13513513513514" width="3.2432432432432434" height="3.2432432432432434" style="fill:#000000;"/>
  <rect x="29.189189189189193" y="55.13513513513514" width="3.2432432432432434" height="3.2432432432432434" style="fill:#000000;"/>
  <rect x="42.16216216216216" y="55.13513513513514" width="3.2432432432432434" height="3.2432432432432434" style="fill:#000000;"/>
  <rect x="48.64864864864865" y="55.13513513513514" width="3.2432432432432434" height="3.2432432432432434" style="fill:#000000;"/>
  <rect x="55.13513513513514" y="55.13513513513514" width="3.2432432432432434" height="3.2432432432432434" style="fill:#000000;"/>
  <rect x="58.378378378378386" y="55.13513513513514" width="3.2432432432432434" height="3.2432432432432434" style="fill:#000000;"/>
  <rect x="64.86486486486487" y="55.13513513513514" width="3.2432432432432434" height="3.2432432432432434" style="fill:#000000;"/>
  <rect x="68.10810810810811" y="55.13513513513514" width="3.2432432432432434" height="3.2432432432432434" style="fill:#000000;"/>
  <rect x="94.05405405405405" y="55.13513513513514" width="3.2432432432432434" height="3.2432432432432434" style="fill:#000000;"/>
  <rect x="97.29729729729729" y="55.13513513513514" width="3.2432432432432434" height="3.2432432432432434" style="fill:#000000;"/>
  <rect x="100.54054054054055" y="55.13513513513514" width="3.2432432432432434" height="3.2432432432432434" style="fill:#000000;"/>
  <rect x="103.78378378378379" y="55.13513513513514" width="3.2432432432432434" height="3.2432432432432434" style="fill:#000000;"/>
  <rect x="12.972972972972974" y="58.378378378378386" width="3.2432432432432434" height="3.2432432432432434" style="fill:#000000;"/>
  <rect x="16.216216216216218" y="58.378378378378386" width="3.2432432432432434" height="3.2432432432432434" style="fill:#000000;"/>
  <rect x="19.45945945945946" y="58.378378378378386" width="3.2432432432432434" height="3.2432432432432434" style="fill:#000000;"/>
  <rect x="22.7027027027027" y="58.378378378378386" width="3.2432432432432434" height="3.2432432432432434" style="fill:#000000;"/>
  <rect x="29.189189189189193" y="58.378378378378386" width="3.2432432432432434" height="3.2432432432432434" style="fill:#000000;"/>
  <rect x="32.432432432432435" y="58.378378378378386" width="3.2432432432432434" height="3.2432432432432434" style="fill:#000000;"/>
  <rect x="35.67567567567568" y="58.378378378378386" width="3.2432432432432434" height="3.2432432432432434" style="fill:#000000;"/>
  <rect x="38.91891891891892" y="58.378378378378386" width="3.2432432432432434" height="3.2432432432432434" style="fill:#000000;"/>
  <rect x="42.16216216216216" y="58.378378378378386" width="3.2432432432432434" height="3.2432432432432434" style="fill:#000000;"/>
  <rect x="45.40540540540541" y="58.378378378378386" width="3.2432432432432434" height="3.2432432432432434" style="fill:#000000;"/>
  <rect x="48.64864864864865" y="58.378378378378386" width="3.2432432432432434" height="3.2432432432432434" style="fill:#000000;"/>
  <rect x="51.891891891891895" y="58.378378378378386" width="3.2432432432432434" height="3.2432432432432434" style="fill:#000000;"/>
  <rect x="58.378378378378386" y="58.378378378378386" width="3.2432432432432434" height="3.2432432432432434" style="fill:#000000;"/>
  <rect x="68.10810810810811" y="58.378378378378386" width="3.2432432432432434" height="3.2432432432432434" style="fill:#000000;"/>
  <rect x="71.35135135135135" y="58.378378378378386" width="3.2432432432432434" height="3.2432432432432434" style="fill:#000000;"/>
  <rect x="74.5945945945946" y="58.378378378378386" width="3.2432432432432434" height="3.2432432432432434" style="fill:#000000;"/>
  <rect x="81.08108108108108" y="58.378378378378386" width="3.2432432432432434" height="3.2432432432432434" style="fill:#000000;"/>
  <rect x="87.56756756756756" y="58.378378378378386" width="3.2432432432432434" height="3.2432432432432434" style="fill:#000000;"/>
  <rect x="100.54054054054055" y="58.378378378378386" width="3.2432432432432434" height="3.2432432432432434" style="fill:#000000;"/>
  <rect x="12.972972972972974" y="61.62162162162163" width="3.2432432432432434" height="3.2432432432432434" style="fill:#000000;"/>
  <rect x="16.216216216216218" y="61.62162162162163" width="3.2432432432432434" height="3.2432432432432434" style="fill:#000000;"/>
  <rect x="19.45945945945946" y="61.62162162162163" width="3.2432432432432434" height="3.2432432432432434" style="fill:#000000;"/>
  <rect x="22.7027027027027" y="61.62162162162163" width="3.2432432432432434" height="3.2432432432432434" style="fill:#000000;"/>
  <rect x="25.945945945945947" y="61.62162162162163" width="3.2432432432432434" height="3.2432432432432434" style="fill:#000000;"/>
  <rect x="29.189189189189193" y="61.62162162162163" width="3.2432432432432434" height="3.2432432432432434" style="fill:#000000;"/>
  <rect x="51.891891891891895" y="61.62162162162163" width="3.2432432432432434" height="3.2432432432432434" style="fill:#000000;"/>
  <rect x="61.62162162162163" y="61.62162162162163" width="3.2432432432432434" height="3.2432432432432434" style="fill:#000000;"/>
  <rect x="64.86486486486487" y="61.62162162162163" width="3.2432432432432434" height="3.2432432432432434" style="fill:#000000;"/>
  <rect x="74.5945945945946" y="61.62162162162163" width="3.2432432432432434" height="3.2432432432432434" style="fill:#000000;"/>
  <rect x="87.56756756756756" y="61.62162162162163" width="3.2432432432432434" height="3.2432432432432434" style="fill:#000000;"/>
  <rect x="103.78378378378379" y="61.62162162162163" width="3.2432432432432434" height="3.2432432432432434" style="fill:#000000;"/>
  <rect x="16.216216216216218" y="64.86486486486487" width="3.2432432432432434" height="3.2432432432432434" style="fill:#000000;"/>
  <rect x="22.7027027027027" y="64.86486486486487" width="3.2432432432432434" height="3.2432432432432434" style="fill:#000000;"/>
  <rect x="25.945945945945947" y="64.86486486486487" width="3.2432432432432434" height="3.2432432432432434" style="fill:#000000;"/>
  <rect x="29.189189189189193" y="64.86486486486487" width="3.2432432432432434" height="3.2432432432432434" style="fill:#000000;"/>
  <rect x="32.432432432432435" y="64.86486486486487" width="3.2432432432432434" height="3.2432432432432434" style="fill:#000000;"/>
  <rect x="35.67567567567568" y="64.86486486486487" width="3.2432432432432434" height="3.2432432432432434" style="fill:#000000;"/>
  <rect x="42.16216216216216" y="64.86486486486487" width="3.2432432432432434" height="3.2432432432432434" style="fill:#000000;"/>
  <rect x="45.40540540540541" y="64.86486486486487" width="3.2432432432432434" height="3.2432432432432434" style="fill:#000000;"/>
  <rect x="48.64864864864865" y="64.86486486486487" width="3.2432432432432434" height="3.2432432432432434" style="fill:#000000;"/>
  <rect x="51.891891891891895" y="64.86486486486487" width="3.2432432432432434" height="3.2432432432432434" style="fill:#000000;"/>
  <rect x="55.13513513513514" y="64.86486486486487" width="3.2432432432432434" height="3.2432432432432434" style="fill:#000000;"/>
  <rect x="58.378378378378386" y="64.86486486486487" width="3.2432432432432434" height="3.2432432432432434" style="fill:#000000;"/>
  <rect x="61.62162162162163" y="64.86486486486487" width="3.2432432432432434" height="3.2432432432432434" style="fill:#000000;"/>
  <rect x="68.10810810810811" y="64.86486486486487" width="3.2432432432432434" height="3.2432432432432434" style="fill:#000000;"/>
  <rect x="74.5945945945946" y="64.86486486486487" width="3.2432432432432434" height="3.2432432432432434" style="fill:#000000;"/>
  <rect x="77.83783783783784" y="64.86486486486487" width="3.2432432432432434" height="3.2432432432432434" style="fill:#000000;"/>
  <rect x="81.08108108108108" y="64.86486486486487" width="3.2432432432432434" height="3.2432432432432434" style="fill:#000000;"/>
  <rect x="87.56756756756756" y="64.86486486486487" width="3.2432432432432434" height="3.2432432432432434" style="fill:#000000;"/>
  <rect x="97.29729729729729" y="64.86486486486487" width="3.2432432432432434" height="3.2432432432432434" style="fill:#000000;"/>
  <rect x="103.78378378378379" y="64.86486486486487" width="3.2432432432432434" height="3.2432432432432434" style="fill:#000000;"/>
  <rect x="16.216216216216218" y="68.10810810810811" width="3.2432432432432434" height="3.2432432432432434" style="fill:#000000;"/>
  <rect x="19.45945945945946" y="68.10810810810811" width="3.2432432432432434" height="3.2432432432432434" style="fill:#000000;"/>
  <rect x="35.67567567567568" y="68.10810810810811" width="3.2432432432432434" height="3.2432432432432434" style="fill:#000000;"/>
  <rect x="42.16216216216216" y="68.10810810810811" width="3.2432432432432434" height="3.2432432432432434" style="fill:#000000;"/>
  <rect x="51.891891891891895" y="68.10810810810811" width="3.2432432432432434" height="3.2432432432432434" style="fill:#000000;"/>
  <rect x="61.62162162162163" y="68.10810810810811" width="3.2432432432432434" height="3.2432432432432434" style="fill:#000000;"/>
  <rect x="64.86486486486487" y="68.10810810810811" width="3.2432432432432434" height="3.2432432432432434" style="fill:#000000;"/>
  <rect x="68.10810810810811" y="68.10810810810811" width="3.2432432432432434" height="3.2432432432432434" style="fill:#000000;"/>
  <rect x="71.35135135135135" y="68.10810810810811" width="3.2432432432432434" height="3.2432432432432434" style="fill:#000000;"/>
  <rect x="74.5945945945946" y="68.10810810810811" width="3.2432432432432434" height="3.2432432432432434" style="fill:#000000;"/>
  <rect x="81.08108108108108" y="68.10810810810811" width="3.2432432432432434" height="3.2432432432432434" style="fill:#000000;"/>
  <rect x="90.8108108108108" y="68.10810810810811" width="3.2432432432432434" height="3.2432432432432434" style="fill:#000000;"/>
  <rect x="94.05405405405405" y="68.10810810810811" width="3.2432432432432434" height="3.2432432432432434" style="fill:#000000;"/>
  <rect x="100.54054054054055" y="68.10810810810811" width="3.2432432432432434" height="3.2432432432432434" style="fill:#000000;"/>
  <rect x="103.78378378378379" y="68.10810810810811" width="3.2432432432432434" height="3.2432432432432434" style="fill:#000000;"/>
  <rect x="12.972972972972974" y="71.35135135135135" width="3.2432432432432434" height="3.2432432432432434" style="fill:#000000;"/>
  <rect x="16.216216216216218" y="71.35135135135135" width="3.2432432432432434" height="3.2432432432432434" style="fill:#000000;"/>
  <rect x="22.7027027027027" y="71.35135135135135" width="3.2432432432432434" height="3.2432432432432434" style="fill:#000000;"/>
  <rect x="29.189189189189193" y="71.35135135135135" width="3.2432432432432434" height="3.2432432432432434" style="fill:#000000;"/>
  <rect x="32.432432432432435" y="71.35135135135135" width="3.2432432432432434" height="3.2432432432432434" style="fill:#000000;"/>
  <rect x="45.40540540540541" y="71.35135135135135" width="3.2432432432432434" height="3.2432432432432434" style="fill:#000000;"/>
  <rect x="48.64864864864865" y="71.35135135135135" width="3.2432432432432434" height="3.2432432432432434" style="fill:#000000;"/>
  <rect x="71.35135135135135" y="71.35135135135135" width="3.2432432432432434" height="3.2432432432432434" style="fill:#000000;"/>
  <rect x="84.32432432432432" y="71.35135135135135" width="3.2432432432432434" height="3.2432432432432434" style="fill:#000000;"/>
  <rect x="87.56756756756756" y="71.35135135135135" width="3.2432432432432434" height="3.2432432432432434" style="fill:#000000;"/>
  <rect x="94.05405405405405" y="71.35135135135135" width="3.2432432432432434" height="3.2432432432432434" style="fill:#000000;"/>
  <rect x="97.29729729729729" y="71.35135135135135" width="3.2432432432432434" height="3.2432432432432434" style="fill:#000000;"/>
  <rect x="100.54054054054055" y="71.35135135135135" width="3.2432432432432434" height="3.2432432432432434" style="fill:#000000;"/>
  <rect x="12.972972972972974" y="74.5945945945946" width="3.2432432432432434" height="3.2432432432432434" style="fill:#000000;"/>
  <rect x="19.45945945945946" y="74.5945945945946" width="3.2432432432432434" height="3.2432432432432434" style="fill:#000000;"/>
  <rect x="29.189189189189193" y="74.5945945945946" width="3.2432432432432434" height="3.2432432432432434" style="fill:#000000;"/>
  <rect x="45.40540540540541" y="74.5945945945946" width="3.2432432432432434" height="3.2432432432432434" style="fill:#000000;"/>
  <rect x="51.891891891891895" y="74.5945945945946" width="3.2432432432432434" height="3.2432432432432434" style="fill:#000000;"/>
  <rect x="55.13513513513514" y="74.5945945945946" width="3.2432432432432434" height="3.2432432432432434" style="fill:#000000;"/>
  <rect x="77.83783783783784" y="74.5945945945946" width="3.2432432432432434" height="3.2432432432432434" style="fill:#000000;"/>
  <rect x="81.08108108108108" y="74.5945945945946" width="3.2432432432432434" height="3.2432432432432434" style="fill:#000000;"/>
  <rect x="94.05405405405405" y="74.5945945945946" width="3.2432432432432434" height="3.2432432432432434" style="fill:#000000;"/>
  <rect x="97.29729729729729" y="74.5945945945946" width="3.2432432432432434" height="3.2432432432432434" style="fill:#000000;"/>
  <rect x="100.54054054054055" y="74.5945945945946" width="3.2432432432432434" height="3.2432432432432434" style="fill:#000000;"/>
  <rect x="32.432432432432435" y="77.83783783783784" width="3.2432432432432434" height="3.2432432432432434" style="fill:#000000;"/>
  <rect x="42.16216216216216" y="77.83783783783784" width="3.2432432432432434" height="3.2432432432432434" style="fill:#000000;"/>
  <rect x="48.64864864864865" y="77.83783783783784" width="3.2432432432432434" height="3.2432432432432434" style="fill:#000000;"/>
  <rect x="51.891891891891895" y="77.83783783783784" width="3.2432432432432434" height="3.2432432432432434" style="fill:#000000;"/>
  <rect x="55.13513513513514" y="77.83783783783784" width="3.2432432432432434" height="3.2432432432432434" style="fill:#000000;"/>
  <rect x="58.378378378378386" y="77.83783783783784" width="3.2432432432432434" height="3.2432432432432434" style="fill:#000000;"/>
  <rect x="61.62162162162163" y="77.83783783783784" width="3.2432432432432434" height="3.2432432432432434" style="fill:#000000;"/>
  <rect x="64.86486486486487" y="77.83783783783784" width="3.2432432432432434" height="3.2432432432432434" style="fill:#000000;"/>
  <rect x="68.10810810810811" y="77.83783783783784" width="3.2432432432432434" height="3.2432432432432434" style="fill:#000000;"/>
  <rect x="74.5945945945946" y="77.83783783783784" width="3.2432432432432434" height="3.2432432432432434" style="fill:#000000;"/>
  <rect x="77.83783783783784" y="77.83783783783784" width="3.2432432432432434" height="3.2432432432432434" style="fill:#000000;"/>
  <rect x="81.08108108108108" y="77.83783783783784" width="3.2432432432432434" height="3.2432432432432434" style="fill:#000000;"/>
  <rect x="84.32432432432432" y="77.83783783783784" width="3.2432432432432434" height="3.2432432432432434" style="fill:#000000;"/>
  <rect x="87.56756756756756" y="77.83783783783784" width="3.2432432432432434" height="3.2432432432432434" style="fill:#000000;"/>
  <rect x="90.8108108108108" y="77.83783783783784" width="3.2432432432432434" height="3.2432432432432434" style="fill:#000000;"/>
  <rect x="94.05405405405405" y="77.83783783783784" width="3.2432432432432434" height="3.2432432432432434" style="fill:#000000;"/>
  <rect x="97.29729729729729" y="77.83783783783784" width="3.2432432432432434" height="3.2432432432432434" style="fill:#000000;"/>
  <rect x="100.54054054054055" y="77.83783783783784" width="3.2432432432432434" height="3.2432432432432434" style="fill:#000000;"/>
  <rect x="103.78378378378379" y="77.83783783783784" width="3.2432432432432434" height="3.2432432432432434" style="fill:#000000;"/>
  <rect x="38.91891891891892" y="81.08108108108108" width="3.2432432432432434" height="3.2432432432432434" style="fill:#000000;"/>
  <rect x="45.40540540540541" y="81.08108108108108" width="3.2432432432432434" height="3.2432432432432434" style="fill:#000000;"/>
  <rect x="51.891891891891895" y="81.08108108108108" width="3.2432432432432434" height="3.2432432432432434" style="fill:#000000;"/>
  <rect x="55.13513513513514" y="81.08108108108108" width="3.2432432432432434" height="3.2432432432432434" style="fill:#000000;"/>
  <rect x="61.62162162162163" y="81.08108108108108" width="3.2432432432432434" height="3.2432432432432434" style="fill:#000000;"/>
  <rect x="68.10810810810811" y="81.08108108108108" width="3.2432432432432434" height="3.2432432432432434" style="fill:#000000;"/>
  <rect x="71.35135135135135" y="81.08108108108108" width="3.2432432432432434" height="3.2432432432432434" style="fill:#000000;"/>
  <rect x="74.5945945945946" y="81.08108108108108" width="3.2432432432432434" height="3.2432432432432434" style="fill:#000000;"/>
  <rect x="77.83783783783784" y="81.08108108108108" width="3.2432432432432434" height="3.2432432432432434" style="fill:#000000;"/>
  <rect x="90.8108108108108" y="81.08108108108108" width="3.2432432432432434" height="3.2432432432432434" style="fill:#000000;"/>
  <rect x="100.54054054054055" y="81.08108108108108" width="3.2432432432432434" height="3.2432432432432434" style="fill:#000000;"/>
  <rect x="103.78378378378379" y="81.08108108108108" width="3.2432432432432434" height="3.2432432432432434" style="fill:#000000;"/>
  <rect x="12.972972972972974" y="84.32432432432432" width="3.2432432432432434" height="3.2432432432432434" style="fill:#000000;"/>
  <rect x="16.216216216216218" y="84.32432432432432" width="3.2432432432432434" height="3.2432432432432434" style="fill:#000000;"/>
  <rect x="19.45945945945946" y="84.32432432432432" width="3.2432432432432434" height="3.2432432432432434" style="fill:#000000;"/>
  <rect x="22.7027027027027" y="84.32432432432432" width="3.2432432432432434" height="3.2432432432432434" style="fill:#000000;"/>
  <rect x="25.945945945945947" y="84.32432432432432" width="3.2432432432432434" height="3.2432432432432434" style="fill:#000000;"/>
  <rect x="29.189189189189193" y="84.32432432432432" width="3.2432432432432434" height="3.2432432432432434" style="fill:#000000;"/>
  <rect x="32.432432432432435" y="84.32432432432432" width="3.2432432432432434" height="3.2432432432432434" style="fill:#000000;"/>
  <rect x="42.16216216216216" y="84.32432432432432" width="3.2432432432432434" height="3.2432432432432434" style="fill:#000000;"/>
  <rect x="51.891891891891895" y="84.32432432432432" width="3.2432432432432434" height="3.2432432432432434" style="fill:#000000;"/>
  <rect x="58.378378378378386" y="84.32432432432432" width="3.2432432432432434" height="3.2432432432432434" style="fill:#000000;"/>
  <rect x="61.62162162162163" y="84.32432432432432" width="3.2432432432432434" height="3.2432432432432434" style="fill:#000000;"/>
  <rect x="68.10810810810811" y="84.32432432432432" width="3.2432432432432434" height="3.2432432432432434" style="fill:#000000;"/>
  <rect x="77.83783783783784" y="84.32432432432432" width="3.2432432432432434" height="3.2432432432432434" style="fill:#000000;"/>
  <rect x="84.32432432432432" y="84.32432432432432" width="3.2432432432432434" height="3.2432432432432434" style="fill:#000000;"/>
  <rect x="90.8108108108108" y="84.32432432432432" width="3.2432432432432434" height="3.2432432432432434" style="fill:#000000;"/>
  <rect x="94.05405405405405" y="84.32432432432432" width="3.2432432432432434" height="3.2432432432432434" style="fill:#000000;"/>
  <rect x="103.78378378378379" y="84.32432432432432" width="3.2432432432432434" height="3.2432432432432434" style="fill:#000000;"/>
  <rect x="12.972972972972974" y="87.56756756756756" width="3.2432432432432434" height="3.2432432432432434" style="fill:#000000;"/>
  <rect x="32.432432432432435" y="87.56756756756756" width="3.2432432432432434" height="3.2432432432432434" style="fill:#000000;"/>
  <rect x="38.91891891891892" y="87.56756756756756" width="3.2432432432432434" height="3.2432432432432434" style="fill:#000000;"/>
  <rect x="58.378378378378386" y="87.56756756756756" width="3.2432432432432434" height="3.2432432432432434" style="fill:#000000;"/>
  <rect x="64.86486486486487" y="87.56756756756756" width="3.2432432432432434" height="3.2432432432432434" style="fill:#000000;"/>
  <rect x="68.10810810810811" y="87.56756756756756" width="3.2432432432432434" height="3.2432432432432434" style="fill:#000000;"/>
  <rect x="71.35135135135135" y="87.56756756756756" width="3.2432432432432434" height="3.2432432432432434" style="fill:#000000;"/>
  <rect x="74.5945945945946" y="87.56756756756756" width="3.2432432432432434" height="3.2432432432432434" style="fill:#000000;"/>
  <rect x="77.83783783783784" y="87.56756756756756" width="3.2432432432432434" height="3.2432432432432434" style="fill:#000000;"/>
  <rect x="90.8108108108108" y="87.56756756756756" width="3.2432432432432434" height="3.2432432432432434" style="fill:#000000;"/>
  <rect x="94.05405405405405" y="87.56756756756756" width="3.2432432432432434" height="3.2432432432432434" style="fill:#000000;"/>
  <rect x="103.78378378378379" y="87.56756756756756" width="3.2432432432432434" height="3.2432432432432434" style="fill:#000000;"/>
  <rect x="12.972972972972974" y="90.8108108108108" width="3.2432432432432434" height="3.2432432432432434" style="fill:#000000;"/>
  <rect x="19.45945945945946" y="90.8108108108108" width="3.2432432432432434" height="3.2432432432432434" style="fill:#000000;"/>
  <rect x="22.7027027027027" y="90.8108108108108" width="3.2432432432432434" height="3.2432432432432434" style="fill:#000000;"/>
  <rect x="25.945945945945947" y="90.8108108108108" width="3.2432432432432434" height="3.2432432432432434" style="fill:#000000;"/>
  <rect x="32.432432432432435" y="90.8108108108108" width="3.2432432432432434" height="3.2432432432432434" style="fill:#000000;"/>
  <rect x="45.40540540540541" y="90.8108108108108" width="3.2432432432432434" height="3.2432432432432434" style="fill:#000000;"/>
  <rect x="48.64864864864865" y="90.8108108108108" width="3.2432432432432434" height="3.2432432432432434" style="fill:#000000;"/>
  <rect x="58.378378378378386" y="90.8108108108108" width="3.2432432432432434" height="3.2432432432432434" style="fill:#000000;"/>
  <rect x="71.35135135135135" y="90.8108108108108" width="3.2432432432432434" height="3.2432432432432434" style="fill:#000000;"/>
  <rect x="74.5945945945946" y="90.8108108108108" width="3.2432432432432434" height="3.2432432432432434" style="fill:#000000;"/>
  <rect x="77.83783783783784" y="90.8108108108108" width="3.2432432432432434" height="3.2432432432432434" style="fill:#000000;"/>
  <rect x="81.08108108108108" y="90.8108108108108" width="3.2432432432432434" height="3.2432432432432434" style="fill:#000000;"/>
  <rect x="84.32432432432432" y="90.8108108108108" width="3.2432432432432434" height="3.2432432432432434" style="fill:#000000;"/>
  <rect x="87.56756756756756" y="90.8108108108108" width="3.2432432432432434" height="3.2432432432432434" style="fill:#000000;"/>
  <rect x="90.8108108108108" y="90.8108108108108" width="3.2432432432432434" height="3.2432432432432434" style="fill:#000000;"/>
  <rect x="94.05405405405405" y="90.8108108108108" width="3.2432432432432434" height="3.2432432432432434" style="fill:#000000;"/>
  <rect x="97.29729729729729" y="90.8108108108108" width="3.2432432432432434" height="3.2432432432432434" style="fill:#000000;"/>
  <rect x="100.54054054054055" y="90.8108108108108" width="3.2432432432432434" height="3.2432432432432434" style="fill:#000000;"/>
  <rect x="103.78378378378379" y="90.8108108108108" width="3.2432432432432434" height="3.2432432432432434" style="fill:#000000;"/>
  <rect x="12.972972972972974" y="94.05405405405405" width="3.2432432432432434" height="3.2432432432432434" style="fill:#000000;"/>
  <rect x="19.45945945945946" y="94.05405405405405" width="3.2432432432432434" height="3.2432432432432434" style="fill:#000000;"/>
  <rect x="22.7027027027027" y="94.05405405405405" width="3.2432432432432434" height="3.2432432432432434" style="fill:#000000;"/>
  <rect x="25.945945945945947" y="94.05405405405405" width="3.2432432432432434" height="3.2432432432432434" style="fill:#000000;"/>
  <rect x="32.432432432432435" y="94.05405405405405" width="3.2432432432432434" height="3.2432432432432434" style="fill:#000000;"/>
  <rect x="42.16216216216216" y="94.05405405405405" width="3.2432432432432434" height="3.2432432432432434" style="fill:#000000;"/>
  <rect x="45.40540540540541" y="94.05405405405405" width="3.2432432432432434" height="3.2432432432432434" style="fill:#000000;"/>
  <rect x="51.891891891891895" y="94.05405405405405" width="3.2432432432432434" height="3.2432432432432434" style="fill:#000000;"/>
  <rect x="58.378378378378386" y="94.05405405405405" width="3.2432432432432434" height="3.2432432432432434" style="fill:#000000;"/>
  <rect x="61.62162162162163" y="94.05405405405405" width="3.2432432432432434" height="3.2432432432432434" style="fill:#000000;"/>
  <rect x="68.10810810810811" y="94.05405405405405" width="3.2432432432432434" height="3.2432432432432434" style="fill:#000000;"/>
  <rect x="87.56756756756756" y="94.05405405405405" width="3.2432432432432434" height="3.2432432432432434" style="fill:#000000;"/>
  <rect x="94.05405405405405" y="94.05405405405405" width="3.2432432432432434" height="3.2432432432432434" style="fill:#000000;"/>
  <rect x="97.29729729729729" y="94.05405405405405" width="3.2432432432432434" height="3.2432432432432434" style="fill:#000000;"/>
  <rect x="103.78378378378379" y="94.05405405405405" width="3.2432432432432434" height="3.2432432432432434" style="fill:#000000;"/>
  <rect x="12.972972972972974" y="97.29729729729729" width="3.2432432432432434" height="3.2432432432432434" style="fill:#000000;"/>
  <rect x="19.45945945945946" y="97.29729729729729" width="3.2432432432432434" height="3.2432432432432434" style="fill:#000000;"/>
  <rect x="22.7027027027027" y="97.29729729729729" width="3.2432432432432434" height="3.2432432432432434" style="fill:#000000;"/>
  <rect x="25.945945945945947" y="97.29729729729729" width="3.2432432432432434" height="3.2432432432432434" style="fill:#000000;"/>
  <rect x="32.432432432432435" y="97.29729729729729" width="3.2432432432432434" height="3.2432432432432434" style="fill:#000000;"/>
  <rect x="45.40540540540541" y="97.29729729729729" width="3.2432432432432434" height="3.2432432432432434" style="fill:#000000;"/>
  <rect x="48.64864864864865" y="97.29729729729729" width="3.2432432432432434" height="3.2432432432432434" style="fill:#000000;"/>
  <rect x="58.378378378378386" y="97.29729729729729" width="3.2432432432432434" height="3.2432432432432434" style="fill:#000000;"/>
  <rect x="77.83783783783784" y="97.29729729729729" width="3.2432432432432434" height="3.2432432432432434" style="fill:#000000;"/>
  <rect x="81.08108108108108" y="97.29729729729729" width="3.2432432432432434" height="3.2432432432432434" style="fill:#000000;"/>
  <rect x="87.56756756756756" y="97.29729729729729" width="3.2432432432432434" height="3.2432432432432434" style="fill:#000000;"/>
  <rect x="94.05405405405405" y="97.29729729729729" width="3.2432432432432434" height="3.2432432432432434" style="fill:#000000;"/>
  <rect x="97.29729729729729" y="97.29729729729729" width="3.2432432432432434" height="3.2432432432432434" style="fill:#000000;"/>
  <rect x="12.972972972972974" y="100.54054054054055" width="3.2432432432432434" height="3.2432432432432434" style="fill:#000000;"/>
  <rect x="32.432432432432435" y="100.54054054054055" width="3.2432432432432434" height="3.2432432432432434" style="fill:#000000;"/>
  <rect x="45.40540540540541" y="100.54054054054055" width="3.2432432432432434" height="3.2432432432432434" style="fill:#000000;"/>
  <rect x="48.64864864864865" y="100.54054054054055" width="3.2432432432432434" height="3.2432432432432434" style="fill:#000000;"/>
  <rect x="51.891891891891895" y="100.54054054054055" width="3.2432432432432434" height="3.2432432432432434" style="fill:#000000;"/>
  <rect x="58.378378378378386" y="100.54054054054055" width="3.2432432432432434" height="3.2432432432432434" style="fill:#000000;"/>
  <rect x="61.62162162162163" y="100.54054054054055" width="3.2432432432432434" height="3.2432432432432434" style="fill:#000000;"/>
  <rect x="64.86486486486487" y="100.54054054054055" width="3.2432432432432434" height="3.2432432432432434" style="fill:#000000;"/>
  <rect x="71.35135135135135" y="100.54054054054055" width="3.2432432432432434" height="3.2432432432432434" style="fill:#000000;"/>
  <rect x="74.5945945945946" y="100.54054054054055" width="3.2432432432432434" height="3.2432432432432434" style="fill:#000000;"/>
  <rect x="81.08108108108108" y="100.54054054054055" width="3.2432432432432434" height="3.2432432432432434" style="fill:#000000;"/>
  <rect x="84.32432432432432" y="100.54054054054055" width="3.2432432432432434" height="3.2432432432432434" style="fill:#000000;"/>
  <rect x="90.8108108108108" y="100.54054054054055" width="3.2432432432432434" height="3.2432432432432434" style="fill:#000000;"/>
  <rect x="94.05405405405405" y="100.54054054054055" width="3.2432432432432434" height="3.2432432432432434" style="fill:#000000;"/>
  <rect x="100.54054054054055" y="100.54054054054055" width="3.2432432432432434" height="3.2432432432432434" style="fill:#000000;"/>
  <rect x="103.78378378378379" y="100.54054054054055" width="3.2432432432432434" height="3.2432432432432434" style="fill:#000000;"/>
  <rect x="12.972972972972974" y="103.78378378378379" width="3.2432432432432434" height="3.2432432432432434" style="fill:#000000;"/>
  <rect x="16.216216216216218" y="103.78378378378379" width="3.2432432432432434" height="3.2432432432432434" style="fill:#000000;"/>
  <rect x="19.45945945945946" y="103.78378378378379" width="3.2432432432432434" height="3.2432432432432434" style="fill:#000000;"/>
  <rect x="22.7027027027027" y="103.78378378378379" width="3.2432432432432434" height="3.2432432432432434" style="fill:#000000;"/>
  <rect x="25.945945945945947" y="103.78378378378379" width="3.2432432432432434" height="3.2432432432432434" style="fill:#000000;"/>
  <rect x="29.189189189189193" y="103.78378378378379" width="3.2432432432432434" height="3.2432432432432434" style="fill:#000000;"/>
  <rect x="32.432432432432435" y="103.78378378378379" width="3.2432432432432434" height="3.2432432432432434" style="fill:#000000;"/>
  <rect x="42.16216216216216" y="103.78378378378379" width="3.2432432432432434" height="3.2432432432432434" style="fill:#000000;"/>
  <rect x="51.891891891891895" y="103.78378378378379" width="3.2432432432432434" height="3.2432432432432434" style="fill:#000000;"/>
  <rect x="58.378378378378386" y="103.78378378378379" width="3.2432432432432434" height="3.2432432432432434" style="fill:#000000;"/>
  <rect x="68.10810810810811" y="103.78378378378379" width="3.2432432432432434" height="3.2432432432432434" style="fill:#000000;"/>
  <rect x="71.35135135135135" y="103.78378378378379" width="3.2432432432432434" height="3.2432432432432434" style="fill:#000000;"/>
  <rect x="74.5945945945946" y="103.78378378378379" width="3.2432432432432434" height="3.2432432432432434" style="fill:#000000;"/>
  <rect x="81.08108108108108" y="103.78378378378379" width="3.2432432432432434" height="3.2432432432432434" style="fill:#000000;"/>
  <rect x="87.56756756756756" y="103.78378378378379" width="3.2432432432432434" height="3.2432432432432434" style="fill:#000000;"/>
  <rect x="90.8108108108108" y="103.78378378378379" width="3.2432432432432434" height="3.2432432432432434" style="fill:#000000;"/>
  <rect x="97.29729729729729" y="103.78378378378379" width="3.2432432432432434" height="3.2432432432432434" style="fill:#000000;"/>
</svg>