<?xml version="1.0" standalone="yes"?>
<svg xmlns="http://www.w3.org/2000/svg" version="1.1" width="120" height="120">
  <rect x="0" y="0" width="120" height="120" style="fill:#ffffff;shape-rendering:crispEdges;"/>
  <rect x="11.707317073170731" y="11.707317073170731" width="2.926829268292683" height="2.926829268292683" style="fill:#000000;shape-rendering:crispEdges;"/>
  <rect x="14.634146341463413" y="11.707317073170731" width="2.926829268292683" height="2.926829268292683" style="fill:#000000;shape-rendering:crispEdges;"/>
  <rect x="17.5609756097561" y="11.707317073170731" width="2.926829268292683" height="2.926829268292683" style="fill:#000000;shape-rendering:crispEdges;"/>
  <rect x="20.48780487804878" y="11.707317073170731" width="2.926829268292683" height="2.926829268292683" style="fill:#000000;shape-rendering:crispEdges;"/>
  <rect x="23.414634146341463" y="11.707317073170731" width="2.926829268292683" height="2.926829268292683" style="fill:#000000;shape-rendering:crispEdges;"/>
  <rect x="26.341463414634145" y="11.707317073170731" width="2.926829268292683" height="2.926829268292683" style="fill:#000000;shape-rendering:crispEdges;"/>
  <rect x="29.26829268292683" y="11.707317073170731" width="2.926829268292683" height="2.926829268292683" style="fill:#000000;shape-rendering:crispEdges;"/>
  <rect x="35.1219512195122" y="11.707317073170731" width="2.926829268292683" height="2.926829268292683" style="fill:#000000;shape-rendering:crispEdges;"/>
  <rect x="40.975609756097555" y="11.707317073170731" width="2.926829268292683" height="2.926829268292683" style="fill:#000000;shape-rendering:crispEdges;"/>
  <rect x="43.90243902439025" y="11.707317073170731" width="2.926829268292683" height="2.926829268292683" style="fill:#000000;shape-rendering:crispEdges;"/>
  <rect x="49.756097560975604" y="11.707317073170731" width="2.926829268292683" height="2.926829268292683" style="fill:#000000;shape-rendering:crispEdges;"/>
  <rect x="67.3170731707317" y="11.707317073170731" width="2.926829268292683" height="2.926829268292683" style="fill:#000000;shape-rendering:crispEdges;"/>
  <rect x="70.24390243902438" y="11.707317073170731" width="2.926829268292683" height="2.926829268292683" style="fill:#000000;shape-rendering:crispEdges;"/>
  <rect x="73.17073170731707" y="11.707317073170731" width="2.926829268292683" height="2.926829268292683" style="fill:#000000;shape-rendering:crispEdges;"/>
  <rect x="81.95121951219512" y="11.707317073170731" width="2.926829268292683" height="2.926829268292683" style="fill:#000000;shape-rendering:crispEdges;"/>
  <rect x="87.80487804878048" y="11.707317073170731" width="2.926829268292683" height="2.926829268292683" style="fill:#000000;shape-rendering:crispEdges;"/>
  <rect x="90.73170731707316" y="11.707317073170731" width="2.926829268292683" height="2.926829268292683" style="fill:#000000;shape-rendering:crispEdges;"/>
  <rect x="93.65853658536585" y="11.707317073170731" width="2.926829268292683" height="2.926829268292683" style="fill:#000000;shape-rendering:crispEdges;"/>
  <rect x="96.58536585365853" y="11.707317073170731" width="2.926829268292683" height="2.926829268292683" style="fill:#000000;shape-rendering:crispEdges;"/>
  <rect x="99.51219512195121" y="11.707317073170731" width="2.926829268292683" height="2.926829268292683" style="fill:#000000;shape-rendering:crispEdges;"/>
  <rect x="102.4390243902439" y="11.707317073170731" width="2.926829268292683" height="2.926829268292683" style="fill:#000000;shape-rendering:crispEdges;"/>
  <rect x="105.36585365853658" y="11.707317073170731" width="2.926829268292683" height="2.926829268292683" style="fill:#000000;shape-rendering:crispEdges;"/>
  <rect x="11.707317073170731" y="14.634146341463413" width="2.926829268292683" height="2.926829268292683" style="fill:#000000;shape-rendering:crispEdges;"/>
  <rect x="29.26829268292683" y="14.634146341463413" width="2.926829268292683" height="2.926829268292683" style="fill:#000000;shape-rendering:crispEdges;"/>
  <rect x="38.048780487804876" y="14.634146341463413" width="2.926829268292683" height="2.926829268292683" style="fill:#000000;shape-rendering:crispEdges;"/>
  <rect x="40.975609756097555" y="14.634146341463413" width="2.926829268292683" height="2.926829268292683" style="fill:#000000;shape-rendering:crispEdges;"/>
  <rect x="46.829268292682926" y="14.634146341463413" width="2.926829268292683" height="2.926829268292683" style="fill:#000000;shape-rendering:crispEdges;"/>
  <rect x="55.609756097560975" y="14.634146341463413" width="2.926829268292683" height="2.926829268292683" style="fill:#000000;shape-rendering:crispEdges;"/>
  <rect x="73.17073170731707" y="14.634146341463413" width="2.926829268292683" height="2.926829268292683" style="fill:#000000;shape-rendering:crispEdges;"/>
  <rect x="79.02439024390243" y="14.634146341463413" width="2.926829268292683" height="2.926829268292683" style="fill:#000000;shape-rendering:crispEdges;"/>
  <rect x="87.80487804878048" y="14.634146341463413" width="2.926829268292683" height="2.926829268292683" style="fill:#000000;shape-rendering:crispEdges;"/>
  <rect x="105.36585365853658" y="14.634146341463413" width="2.926829268292683" height="2.926829268292683" style="fill:#000000;shape-rendering:crispEdges;"/>
  <rect x="11.707317073170731" y="17.5609756097561" width="2.926829268292683" height="2.926829268292683" style="fill:#000000;shape-rendering:crispEdges;"/>
  <rect x="17.5609756097561" y="17.5609756097561" width="2.926829268292683" height="2.926829268292683" style="fill:#000000;shape-rendering:crispEdges;"/>
  <rect x="20.48780487804878" y="17.5609756097561" width="2.926829268292683" height="2.926829268292683" style="fill:#000000;shape-rendering:crispEdges;"/>
  <rect x="23.414634146341463" y="17.5609756097561" width="2.926829268292683" height="2.926829268292683" style="fill:#000000;shape-rendering:crispEdges;"/>
  <rect x="29.26829268292683" y="17.5609756097561" width="2.926829268292683" height="2.926829268292683" style="fill:#000000;shape-rendering:crispEdges;"/>
  <rect x="35.1219512195122" y="17.5609756097561" width="2.926829268292683" height="2.926829268292683" style="fill:#000000;shape-rendering:crispEdges;"/>
  <rect x="46.829268292682926" y="17.5609756097561" width="2.926829268292683" height="2.926829268292683" style="fill:#000000;shape-rendering:crispEdges;"/>
  <rect x="49.756097560975604" y="17.5609756097561" width="2.926829268292683" height="2.926829268292683" style="fill:#000000;shape-rendering:crispEdges;"/>
  <rect x="67.3170731707317" y="17.5609756097561" width="2.926829268292683" height="2.926829268292683" style="fill:#000000;shape-rendering:crispEdges;"/>
  <rect x="70.24390243902438" y="17.5609756097561" width="2.926829268292683" height="2.926829268292683" style="fill:#000000;shape-rendering:crispEdges;"/>
  <rect x="73.17073170731707" y="17.5609756097561" width="2.926829268292683" height="2.926829268292683" style="fill:#000000;shape-rendering:crispEdges;"/>
  <rect x="76.09756097560975" y="17.5609756097561" width="2.926829268292683" height="2.926829268292683" style="fill:#000000;shape-rendering:crispEdges;"/>
  <rect x="79.02439024390243" y="17.5609756097561" width="2.926829268292683" height="2.926829268292683" style="fill:#000000;shape-rendering:crispEdges;"/>
  <rect x="81.95121951219512" y="17.5609756097561" width="2.926829268292683" height="2.926829268292683" style="fill:#000000;shape-rendering:crispEdges;"/>
  <rect x="87.80487804878048" y="17.5609756097561" width="2.926829268292683" height="2.926829268292683" style="fill:#000000;shape-rendering:crispEdges;"/>
  <rect x="93.65853658536585" y="17.5609756097561" width="2.926829268292683" height="2.926829268292683" style="fill:#000000;shape-rendering:crispEdges;"/>
  <rect x="96.58536585365853" y="17.5609756097561" width="2.926829268292683" height="2.926829268292683" style="fill:#000000;shape-rendering:crispEdges;"/>
  <rect x="99.51219512195121" y="17.5609756097561" width="2.926829268292683" height="2.926829268292683" style="fill:#000000;shape-rendering:crispEdges;"/>
  <rect x="105.36585365853658" y="17.5609756097561" width="2.926829268292683" height="2.926829268292683" style="fill:#000000;shape-rendering:crispEdges;"/>
  <rect x="11.707317073170731" y="20.48780487804878" width="2.926829268292683" height="2.926829268292683" style="fill:#000000;shape-rendering:crispEdges;"/>
  <rect x="17.5609756097561" y="20.48780487804878" width="2.926829268292683" height="2.926829268292683" style="fill:#000000;shape-rendering:crispEdges;"/>
  <rect x="20.48780487804878" y="20.48780487804878" width="2.926829268292683" height="2.926829268292683" style="fill:#000000;shape-rendering:crispEdges;"/>
  <rect x="23.414634146341463" y="20.48780487804878" width="2.926829268292683" height="2.926829268292683" style="fill:#000000;shape-rendering:crispEdges;"/>
  <rect x="29.26829268292683" y="20.48780487804878" width="2.926829268292683" height="2.926829268292683" style="fill:#000000;shape-rendering:crispEdges;"/>
  <rect x="35.1219512195122" y="20.48780487804878" width="2.926829268292683" height="2.926829268292683" style="fill:#000000;shape-rendering:crispEdges;"/>
  <rect x="40.975609756097555" y="20.48780487804878" width="2.926829268292683" height="2.926829268292683" style="fill:#000000;shape-rendering:crispEdges;"/>
  <rect x="46.829268292682926" y="20.48780487804878" width="2.926829268292683" height="2.926829268292683" style="fill:#000000;shape-rendering:crispEdges;"/>
  <rect x="55.609756097560975" y="20.48780487804878" width="2.926829268292683" height="2.926829268292683" style="fill:#000000;shape-rendering:crispEdges;"/>
  <rect x="58.536585365853654" y="20.48780487804878" width="2.926829268292683" height="2.926829268292683" style="fill:#000000;shape-rendering:crispEdges;"/>
  <rect x="61.463414634146346" y="20.48780487804878" width="2.926829268292683" height="2.926829268292683" style="fill:#000000;shape-rendering:crispEdges;"/>
  <rect x="67.3170731707317" y="20.48780487804878" width="2.926829268292683" height="2.926829268292683" style="fill:#000000;shape-rendering:crispEdges;"/>
  <rect x="70.24390243902438" y="20.48780487804878" width="2.926829268292683" height="2.926829268292683" style="fill:#000000;shape-rendering:crispEdges;"/>
  <rect x="73.17073170731707" y="20.48780487804878" width="2.926829268292683" height="2.926829268292683" style="fill:#000000;shape-rendering:crispEdges;"/>
  <rect x="76.09756097560975" y="20.48780487804878" width="2.926829268292683" height="2.926829268292683" style="fill:#000000;shape-rendering:crispEdges;"/>
  <rect x="79.02439024390243" y="20.48780487804878" width="2.926829268292683" height="2.926829268292683" style="fill:#000000;shape-rendering:crispEdges;"/>
  <rect x="87.80487804878048" y="20.48780487804878" width="2.926829268292683" height="2.926829268292683" style="fill:#000000;shape-rendering:crispEdges;"/>
  <rect x="93.65853658536585" y="20.48780487804878" width="2.926829268292683" height="2.926829268292683" style="fill:#000000;shape-rendering:crispEdges;"/>
  <rect x="96.58536585365853" y="20.48780487804878" width="2.926829268292683" height="2.926829268292683" style="fill:#000000;shape-rendering:crispEdges;"/>
  <rect x="99.51219512195121" y="20.48780487804878" width="2.926829268292683" height="2.926829268292683" style="fill:#000000;shape-rendering:crispEdges;"/>
  <rect x="105.36585365853658" y="20.48780487804878" width="2.926829268292683" height="2.926829268292683" style="fill:#000000;shape-rendering:crispEdges;"/>
  <rect x="11.707317073170731" y="23.414634146341463" width="2.926829268292683" height="2.926829268292683" style="fill:#000000;shape-rendering:crispEdges;"/>
  <rect x="17.5609756097561" y="23.414634146341463" width="2.926829268292683" height="2.926829268292683" style="fill:#000000;shape-rendering:crispEdges;"/>
  <rect x="20.48780487804878" y="23.414634146341463" width="2.926829268292683" height="2.926829268292683" style="fill:#000000;shape-rendering:crispEdges;"/>
  <rect x="23.414634146341463" y="23.414634146341463" width="2.926829268292683" height="2.926829268292683" style="fill:#000000;shape-rendering:crispEdges;"/>
  <rect x="29.26829268292683" y="23.414634146341463" width="2.926829268292683" height="2.926829268292683" style="fill:#000000;shape-rendering:crispEdges;"/>
  <rect x="40.975609756097555" y="23.414634146341463" width="2.926829268292683" height="2.926829268292683" style="fill:#000000;shape-rendering:crispEdges;"/>
  <rect x="58.536585365853654" y="23.414634146341463" width="2.926829268292683" height="2.926829268292683" style="fill:#000000;shape-rendering:crispEdges;"/>
  <rect x="61.463414634146346" y="23.414634146341463" width="2.926829268292683" height="2.926829268292683" style="fill:#000000;shape-rendering:crispEdges;"/>
  <rect x="67.3170731707317" y="23.414634146341463" width="2.926829268292683" height="2.926829268292683" style="fill:#000000;shape-rendering:crispEdges;"/>
  <rect x="70.24390243902438" y="23.414634146341463" width="2.926829268292683" height="2.926829268292683" style="fill:#000000;shape-rendering:crispEdges;"/>
  <rect x="73.17073170731707" y="23.414634146341463" width="2.926829268292683" height="2.926829268292683" style="fill:#000000;shape-rendering:crispEdges;"/>
  <rect x="87.80487804878048" y="23.414634146341463" width="2.926829268292683" height="2.926829268292683" style="fill:#000000;shape-rendering:crispEdges;"/>
  <rect x="93.65853658536585" y="23.414634146341463" width="2.926829268292683" height="2.926829268292683" style="fill:#000000;shape-rendering:crispEdges;"/>
  <rect x="96.58536585365853" y="23.414634146341463" width="2.926829268292683" height="2.926829268292683" style="fill:#000000;shape-rendering:crispEdges;"/>
  <rect x="99.51219512195121" y="23.414634146341463" width="2.926829268292683" height="2.926829268292683" style="fill:#000000;shape-rendering:crispEdges;"/>
  <rect x="105.36585365853658" y="23.414634146341463" width="2.926829268292683" height="2.926829268292683" style="fill:#000000;shape-rendering:crispEdges;"/>
  <rect x="11.707317073170731" y="26.341463414634145" width="2.926829268292683" height="2.926829268292683" style="fill:#000000;shape-rendering:crispEdges;"/>
  <rect x="29.26829268292683" y="26.341463414634145" width="2.926829268292683" height="2.926829268292683" style="fill:#000000;shape-rendering:crispEdges;"/>
  <rect x="35.1219512195122" y="26.341463414634145" width="2.926829268292683" height="2.926829268292683" style="fill:#000000;shape-rendering:crispEdges;"/>
  <rect x="40.975609756097555" y="26.341463414634145" width="2.926829268292683" height="2.926829268292683" style="fill:#000000;shape-rendering:crispEdges;"/>
  <rect x="43.90243902439025" y="26.341463414634145" width="2.926829268292683" height="2.926829268292683" style="fill:#000000;shape-rendering:crispEdges;"/>
  <rect x="67.3170731707317" y="26.341463414634145" width="2.926829268292683" height="2.926829268292683" style="fill:#000000;shape-rendering:crispEdges;"/>
  <rect x="70.24390243902438" y="26.341463414634145" width="2.926829268292683" height="2.926829268292683" style="fill:#000000;shape-rendering:crispEdges;"/>
  <rect x="73.17073170731707" y="26.341463414634145" width="2.926829268292683" height="2.926829268292683" style="fill:#000000;shape-rendering:crispEdges;"/>
  <rect x="76.09756097560975" y="26.341463414634145" width="2.926829268292683" height="2.926829268292683" style="fill:#000000;shape-rendering:crispEdges;"/>
  <rect x="87.80487804878048" y="26.341463414634145" width="2.926829268292683" height="2.926829268292683" style="fill:#000000;shape-rendering:crispEdges;"/>
  <rect x="105.36585365853658" y="26.341463414634145" width="2.926829268292683" height="2.926829268292683" style="fill:#000000;shape-rendering:crispEdges;"/>
  <rect x="11.707317073170731" y="29.26829268292683" width="2.926829268292683" height="2.926829268292683" style="fill:#000000;shape-rendering:crispEdges;"/>
  <rect x="14.634146341463413" y="29.26829268292683" width="2.926829268292683" height="2.926829268292683" style="fill:#000000;shape-rendering:crispEdges;"/>
  <rect x="17.5609756097561" y="29.26829268292683" width="2.926829268292683" height="2.926829268292683" style="fill:#000000;shape-rendering:crispEdges;"/>
  <rect x="20.48780487804878" y="29.26829268292683" width="2.926829268292683" height="2.926829268292683" style="fill:#000000;shape-rendering:crispEdges;"/>
  <rect x="23.414634146341463" y="29.26829268292683" width="2.926829268292683" height="2.926829268292683" style="fill:#000000;shape-rendering:crispEdges;"/>
  <rect x="26.341463414634145" y="29.26829268292683" width="2.926829268292683" height="2.926829268292683" style="fill:#000000;shape-rendering:crispEdges;"/>
  <rect x="29.26829268292683" y="29.26829268292683" width="2.926829268292683" height="2.926829268292683" style="fill:#000000;shape-rendering:crispEdges;"/>
  <rect x="35.1219512195122" y="29.26829268292683" width="2.926829268292683" height="2.926829268292683" style="fill:#000000;shape-rendering:crispEdges;"/>
  <rect x="40.975609756097555" y="29.26829268292683" width="2.926829268292683" height="2.926829268292683" style="fill:#000000;shape-rendering:crispEdges;"/>
  <rect x="46.829268292682926" y="29.26829268292683" width="2.926829268292683" height="2.926829268292683" style="fill:#000000;shape-rendering:crispEdges;"/>
  <rect x="52.6829268292683" y="29.26829268292683" width="2.926829268292683" height="2.926829268292683" style="fill:#000000;shape-rendering:crispEdges;"/>
  <rect x="58.536585365853654" y="29.26829268292683" width="2.926829268292683" height="2.926829268292683" style="fill:#000000;shape-rendering:crispEdges;"/>
  <rect x="64.39024390243902" y="29.26829268292683" width="2.926829268292683" height="2.926829268292683" style="fill:#000000;shape-rendering:crispEdges;"/>
  <rect x="70.24390243902438" y="29.26829268292683" width="2.926829268292683" height="2.926829268292683" style="fill:#000000;shape-rendering:crispEdges;"/>
  <rect x="76.09756097560975" y="29.26829268292683" width="2.926829268292683" height="2.926829268292683" style="fill:#000000;shape-rendering:crispEdges;"/>
  <rect x="81.95121951219512" y="29.26829268292683" width="2.926829268292683" height="2.926829268292683" style="fill:#000000;shape-rendering:crispEdges;"/>
  <rect x="87.80487804878048" y="29.26829268292683" width="2.926829268292683" height="2.926829268292683" style="fill:#000000;shape-rendering:crispEdges;"/>
  <rect x="90.73170731707316" y="29.26829268292683" width="2.926829268292683" height="2.926829268292683" style="fill:#000000;shape-rendering:crispEdges;"/>
  <rect x="93.65853658536585" y="29.26829268292683" width="2.926829268292683" height="2.926829268292683" style="fill:#000000;shape-rendering:crispEdges;"/>
  <rect x="96.58536585365853" y="29.26829268292683" width="2.926829268292683" height="2.926829268292683" style="fill:#000000;shape-rendering:crispEdges;"/>
  <rect x="99.51219512195121" y="29.26829268292683" width="2.926829268292683" height="2.926829268292683" style="fill:#000000;shape-rendering:crispEdges;"/>
  <rect x="102.4390243902439" y="29.26829268292683" width="2.926829268292683" height="2.926829268292683" style="fill:#000000;shape-rendering:crispEdges;"/>
  <rect x="105.36585365853658" y="29.26829268292683" width="2.926829268292683" height="2.926829268292683" style="fill:#000000;shape-rendering:crispEdges;"/>
  <rect x="35.1219512195122" y="32.19512195121951" width="2.926829268292683" height="2.926829268292683" style="fill:#000000;shape-rendering:crispEdges;"/>
  <rect x="38.048780487804876" y="32.19512195121951" width="2.926829268292683" height="2.926829268292683" style="fill:#000000;shape-rendering:crispEdges;"/>
  <rect x="43.90243902439025" y="32.19512195121951" width="2.926829268292683" height="2.926829268292683" style="fill:#000000;shape-rendering:crispEdges;"/>
  <rect x="55.609756097560975" y="32.19512195121951" width="2.926829268292683" height="2.926829268292683" style="fill:#000000;shape-rendering:crispEdges;"/>
  <rect x="58.536585365853654" y="32.19512195121951" width="2.926829268292683" height="2.926829268292683" style="fill:#000000;shape-rendering:crispEdges;"/>
  <rect x="64.39024390243902" y="32.19512195121951" width="2.926829268292683" height="2.926829268292683" style="fill:#000000;shape-rendering:crispEdges;"/>
  <rect x="70.24390243902438" y="32.19512195121951" width="2.926829268292683" height="2.926829268292683" style="fill:#000000;shape-rendering:crispEdges;"/>
  <rect x="76.09756097560975" y="32.19512195121951" width="2.926829268292683" height="2.926829268292683" style="fill:#000000;shape-rendering:crispEdges;"/>
  <rect x="11.707317073170731" y="35.1219512195122" width="2.926829268292683" height="2.926829268292683" style="fill:#000000;shape-rendering:crispEdges;"/>
  <rect x="14.634146341463413" y="35.1219512195122" width="2.926829268292683" height="2.926829268292683" style="fill:#000000;shape-rendering:crispEdges;"/>
  <rect x="20.48780487804878" y="35.1219512195122" width="2.926829268292683" height="2.926829268292683" style="fill:#000000;shape-rendering:crispEdges;"/>
  <rect x="29.26829268292683" y="35.1219512195122" width="2.926829268292683" height="2.926829268292683" style="fill:#000000;shape-rendering:crispEdges;"/>
  <rect x="32.19512195121951" y="35.1219512195122" width="2.926829268292683" height="2.926829268292683" style="fill:#000000;shape-rendering:crispEdges;"/>
  <rect x="40.975609756097555" y="35.1219512195122" width="2.926829268292683" height="2.926829268292683" style="fill:#000000;shape-rendering:crispEdges;"/>
  <rect x="46.829268292682926" y="35.1219512195122" width="2.926829268292683" height="2.926829268292683" style="fill:#000000;shape-rendering:crispEdges;"/>
  <rect x="49.756097560975604" y="35.1219512195122" width="2.926829268292683" height="2.926829268292683" style="fill:#000000;shape-rendering:crispEdges;"/>
  <rect x="58.536585365853654" y="35.1219512195122" width="2.926829268292683" height="2.926829268292683" style="fill:#000000;shape-rendering:crispEdges;"/>
  <rect x="61.463414634146346" y="35.1219512195122" width="2.926829268292683" height="2.926829268292683" style="fill:#000000;shape-rendering:crispEdges;"/>
  <rect x="67.3170731707317" y="35.1219512195122" width="2.926829268292683" height="2.926829268292683" style="fill:#000000;shape-rendering:crispEdges;"/>
  <rect x="70.24390243902438" y="35.1219512195122" width="2.926829268292683" height="2.926829268292683" style="fill:#000000;shape-rendering:crispEdges;"/>
  <rect x="73.17073170731707" y="35.1219512195122" width="2.926829268292683" height="2.926829268292683" style="fill:#000000;shape-rendering:crispEdges;"/>
  <rect x="76.09756097560975" y="35.1219512195122" width="2.926829268292683" height="2.926829268292683" style="fill:#000000;shape-rendering:crispEdges;"/>
  <rect x="84.8780487804878" y="35.1219512195122" width="2.926829268292683" height="2.926829268292683" style="fill:#000000;shape-rendering:crispEdges;"/>
  <rect x="87.80487804878048" y="35.1219512195122" width="2.926829268292683" height="2.926829268292683" style="fill:#000000;shape-rendering:crispEdges;"/>
  <rect x="90.73170731707316" y="35.1219512195122" width="2.926829268292683" height="2.926829268292683" style="fill:#000000;shape-rendering:crispEdges;"/>
  <rect x="96.58536585365853" y="35.1219512195122" width="2.926829268292683" height="2.926829268292683" style="fill:#000000;shape-rendering:crispEdges;"/>
  <rect x="99.51219512195121" y="35.1219512195122" width="2.926829268292683" height="2.926829268292683" style="fill:#000000;shape-rendering:crispEdges;"/>
  <rect x="105.36585365853658" y="35.1219512195122" width="2.926829268292683" height="2.926829268292683" style="fill:#000000;shape-rendering:crispEdges;"/>
  <rect x="14.634146341463413" y="38.048780487804876" width="2.926829268292683" height="2.926829268292683" style="fill:#000000;shape-rendering:crispEdges;"/>
  <rect x="17.5609756097561" y="38.048780487804876" width="2.926829268292683" height="2.926829268292683" style="fill:#000000;shape-rendering:crispEdges;"/>
  <rect x="20.48780487804878" y="38.048780487804876" width="2.926829268292683" height="2.926829268292683" style="fill:#000000;shape-rendering:crispEdges;"/>
  <rect x="35.1219512195122" y="38.048780487804876" width="2.926829268292683" height="2.926829268292683" style="fill:#000000;shape-rendering:crispEdges;"/>
  <rect x="40.975609756097555" y="38.048780487804876" width="2.926829268292683" height="2.926829268292683" style="fill:#000000;shape-rendering:crispEdges;"/>
  <rect x="43.90243902439025" y="38.048780487804876" width="2.926829268292683" height="2.926829268292683" style="fill:#000000;shape-rendering:crispEdges;"/>
  <rect x="46.829268292682926" y="38.048780487804876" width="2.926829268292683" height="2.926829268292683" style="fill:#000000;shape-rendering:crispEdges;"/>
  <rect x="49.756097560975604" y="38.048780487804876" width="2.926829268292683" height="2.926829268292683" style="fill:#000000;shape-rendering:crispEdges;"/>
  <rect x="52.6829268292683" y="38.048780487804876" width="2.926829268292683" height="2.926829268292683" style="fill:#000000;shape-rendering:crispEdges;"/>
  <rect x="55.609756097560975" y="38.048780487804876" width="2.926829268292683" height="2.926829268292683" style="fill:#000000;shape-rendering:crispEdges;"/>
  <rect x="58.536585365853654" y="38.048780487804876" width="2.926829268292683" height="2.926829268292683" style="fill:#000000;shape-rendering:crispEdges;"/>
  <rect x="61.463414634146346" y="38.048780487804876" width="2.926829268292683" height="2.926829268292683" style="fill:#000000;shape-rendering:crispEdges;"/>
  <rect x="64.39024390243902" y="38.048780487804876" width="2.926829268292683" height="2.926829268292683" style="fill:#000000;shape-rendering:crispEdges;"/>
  <rect x="87.80487804878048" y="38.048780487804876" width="2.926829268292683" height="2.926829268292683" style="fill:#000000;shape-rendering:crispEdges;"/>
  <rect x="90.73170731707316" y="38.048780487804876" width="2.926829268292683" height="2.926829268292683" style="fill:#000000;shape-rendering:crispEdges;"/>
  <rect x="96.58536585365853" y="38.048780487804876" width="2.926829268292683" height="2.926829268292683" style="fill:#000000;shape-rendering:crispEdges;"/>
  <rect x="99.51219512195121" y="38.048780487804876" width="2.926829268292683" height="2.926829268292683" style="fill:#000000;shape-rendering:crispEdges;"/>
  <rect x="105.36585365853658" y="38.048780487804876" width="2.926829268292683" height="2.926829268292683" style="fill:#000000;shape-rendering:crispEdges;"/>
  <rect x="14.634146341463413" y="40.975609756097555" width="2.926829268292683" height="2.926829268292683" style="fill:#000000;shape-rendering:crispEdges;"/>
  <rect x="17.5609756097561" y="40.975609756097555" width="2.926829268292683" height="2.926829268292683" style="fill:#000000;shape-rendering:crispEdges;"/>
  <rect x="20.48780487804878" y="40.975609756097555" width="2.926829268292683" height="2.926829268292683" style="fill:#000000;shape-rendering:crispEdges;"/>
  <rect x="23.414634146341463" y="40.975609756097555" width="2.926829268292683" height="2.926829268292683" style="fill:#000000;shape-rendering:crispEdges;"/>
  <rect x="26.341463414634145" y="40.975609756097555" width="2.926829268292683" height="2.926829268292683" style="fill:#000000;shape-rendering:crispEdges;"/>
  <rect x="29.26829268292683" y="40.975609756097555" width="2.926829268292683" height="2.926829268292683" style="fill:#000000;shape-rendering:crispEdges;"/>
  <rect x="32.19512195121951" y="40.975609756097555" width="2.926829268292683" height="2.926829268292683" style="fill:#000000;shape-rendering:crispEdges;"/>
  <rect x="38.048780487804876" y="40.975609756097555" width="2.926829268292683" height="2.926829268292683" style="fill:#000000;shape-rendering:crispEdges;"/>
  <rect x="46.829268292682926" y="40.975609756097555" width="2.926829268292683" height="2.926829268292683" style="fill:#000000;shape-rendering:crispEdges;"/>
  <rect x="49.756097560975604" y="40.975609756097555" width="2.926829268292683" height="2.926829268292683" style="fill:#000000;shape-rendering:crispEdges;"/>
  <rect x="55.609756097560975" y="40.975609756097555" width="2.926829268292683" height="2.926829268292683" style="fill:#000000;shape-rendering:crispEdges;"/>
  <rect x="58.536585365853654" y="40.975609756097555" width="2.926829268292683" height="2.926829268292683" style="fill:#000000;shape-rendering:crispEdges;"/>
  <rect x="64.39024390243902" y="40.975609756097555" width="2.926829268292683" height="2.926829268292683" style="fill:#000000;shape-rendering:crispEdges;"/>
  <rect x="73.17073170731707" y="40.975609756097555" width="2.926829268292683" height="2.926829268292683" style="fill:#000000;shape-rendering:crispEdges;"/>
  <rect x="79.02439024390243" y="40.975609756097555" width="2.926829268292683" height="2.926829268292683" style="fill:#000000;shape-rendering:crispEdges;"/>
  <rect x="81.95121951219512" y="40.975609756097555" width="2.926829268292683" height="2.926829268292683" style="fill:#000000;shape-rendering:crispEdges;"/>
  <rect x="84.8780487804878" y="40.975609756097555" width="2.926829268292683" height="2.926829268292683" style="fill:#000000;shape-rendering:crispEdges;"/>
  <rect x="87.80487804878048" y="40.975609756097555" width="2.926829268292683" height="2.926829268292683" style="fill:#000000;shape-rendering:crispEdges;"/>
  <rect x="90.73170731707316" y="40.975609756097555" width="2.926829268292683" height="2.926829268292683" style="fill:#000000;shape-rendering:crispEdges;"/>
  <rect x="93.65853658536585" y="40.975609756097555" width="2.926829268292683" height="2.926829268292683" style="fill:#000000;shape-rendering:crispEdges;"/>
  <rect x="96.58536585365853" y="40.975609756097555" width="2.926829268292683" height="2.926829268292683" style="fill:#000000;shape-rendering:crispEdges;"/>
  <rect x="99.51219512195121" y="40.975609756097555" width="2.926829268292683" height="2.926829268292683" style="fill:#000000;shape-rendering:crispEdges;"/>
  <rect x="102.4390243902439" y="40.975609756097555" width="2.926829268292683" height="2.926829268292683" style="fill:#000000;shape-rendering:crispEdges;"/>
  <rect x="14.634146341463413" y="43.90243902439025" width="2.926829268292683" height="2.926829268292683" style="fill:#000000;shape-rendering:crispEdges;"/>
  <rect x="20.48780487804878" y="43.90243902439025" width="2.926829268292683" height="2.926829268292683" style="fill:#000000;shape-rendering:crispEdges;"/>
  <rect x="32.19512195121951" y="43.90243902439025" width="2.926829268292683" height="2.926829268292683" style="fill:#000000;shape-rendering:crispEdges;"/>
  <rect x="38.048780487804876" y="43.90243902439025" width="2.926829268292683" height="2.926829268292683" style="fill:#000000;shape-rendering:crispEdges;"/>
  <rect x="43.90243902439025" y="43.90243902439025" width="2.926829268292683" height="2.926829268292683" style="fill:#000000;shape-rendering:crispEdges;"/>
  <rect x="55.609756097560975" y="43.90243902439025" width="2.926829268292683" height="2.926829268292683" style="fill:#000000;shape-rendering:crispEdges;"/>
  <rect x="58.536585365853654" y="43.90243902439025" width="2.926829268292683" height="2.926829268292683" style="fill:#000000;shape-rendering:crispEdges;"/>
  <rect x="61.463414634146346" y="43.90243902439025" width="2.926829268292683" height="2.926829268292683" style="fill:#000000;shape-rendering:crispEdges;"/>
  <rect x="64.39024390243902" y="43.90243902439025" width="2.926829268292683" height="2.926829268292683" style="fill:#000000;shape-rendering:crispEdges;"/>
  <rect x="73.17073170731707" y="43.90243902439025" width="2.926829268292683" height="2.926829268292683" style="fill:#000000;shape-rendering:crispEdges;"/>
  <rect x="76.09756097560975" y="43.90243902439025" width="2.926829268292683" height="2.926829268292683" style="fill:#000000;shape-rendering:crispEdges;"/>
  <rect x="81.95121951219512" y="43.90243902439025" width="2.926829268292683" height="2.926829268292683" style="fill:#000000;shape-rendering:crispEdges;"/>
  <rect x="87.80487804878048" y="43.90243902439025" width="2.926829268292683" height="2.926829268292683" style="fill:#000000;shape-rendering:crispEdges;"/>
  <rect x="90.73170731707316" y="43.90243902439025" width="2.926829268292683" height="2.926829268292683" style="fill:#000000;shape-rendering:crispEdges;"/>
  <rect x="93.65853658536585" y="43.90243902439025" width="2.926829268292683" height="2.926829268292683" style="fill:#000000;shape-rendering:crispEdges;"/>
  <rect x="11.707317073170731" y="46.829268292682926" width="2.926829268292683" height="2.926829268292683" style="fill:#000000;shape-rendering:crispEdges;"/>
  <rect x="14.634146341463413" y="46.829268292682926" width="2.926829268292683" height="2.926829268292683" style="fill:#000000;shape-rendering:crispEdges;"/>
  <rect x="17.5609756097561" y="46.829268292682926" width="2.926829268292683" height="2.926829268292683" style="fill:#000000;shape-rendering:crispEdges;"/>
  <rect x="20.48780487804878" y="46.829268292682926" width="2.926829268292683" height="2.926829268292683" style="fill:#000000;shape-rendering:crispEdges;"/>
  <rect x="23.414634146341463" y="46.829268292682926" width="2.926829268292683" height="2.926829268292683" style="fill:#000000;shape-rendering:crispEdges;"/>
  <rect x="29.26829268292683" y="46.829268292682926" width="2.926829268292683" height="2.926829268292683" style="fill:#000000;shape-rendering:crispEdges;"/>
  <rect x="32.19512195121951" y="46.829268292682926" width="2.926829268292683" height="2.926829268292683" style="fill:#000000;shape-rendering:crispEdges;"/>
  <rect x="38.048780487804876" y="46.829268292682926" width="2.926829268292683" height="2.926829268292683" style="fill:#000000;shape-rendering:crispEdges;"/>
  <rect x="40.975609756097555" y="46.829268292682926" width="2.926829268292683" height="2.926829268292683" style="fill:#000000;shape-rendering:crispEdges;"/>
  <rect x="52.6829268292683" y="46.829268292682926" width="2.926829268292683" height="2.926829268292683" style="fill:#000000;shape-rendering:crispEdges;"/>
  <rect x="61.463414634146346" y="46.829268292682926" width="2.926829268292683" height="2.926829268292683" style="fill:#000000;shape-rendering:crispEdges;"/>
  <rect x="64.39024390243902" y="46.829268292682926" width="2.926829268292683" height="2.926829268292683" style="fill:#000000;shape-rendering:crispEdges;"/>
  <rect x="67.3170731707317" y="46.829268292682926" width="2.926829268292683" height="2.926829268292683" style="fill:#000000;shape-rendering:crispEdges;"/>
  <rect x="70.24390243902438" y="46.829268292682926" width="2.926829268292683" height="2.926829268292683" style="fill:#000000;shape-rendering:crispEdges;"/>
  <rect x="76.09756097560975" y="46.829268292682926" width="2.926829268292683" height="2.926829268292683" style="fill:#000000;shape-rendering:crispEdges;"/>
  <rect x="79.02439024390243" y="46.829268292682926" width="2.926829268292683" height="2.926829268292683" style="fill:#000000;shape-rendering:crispEdges;"/>
  <rect x="81.95121951219512" y="46.829268292682926" width="2.926829268292683" height="2.926829268292683" style="fill:#000000;shape-rendering:crispEdges;"/>
  <rect x="90.73170731707316" y="46.829268292682926" width="2.926829268292683" height="2.926829268292683" style="fill:#000000;shape-rendering:crispEdges;"/>
  <rect x="93.65853658536585" y="46.829268292682926" width="2.926829268292683" height="2.926829268292683" style="fill:#000000;shape-rendering:crispEdges;"/>
  <rect x="102.4390243902439" y="46.829268292682926" width="2.926829268292683" height="2.926829268292683" style="fill:#000000;shape-rendering:crispEdges;"/>
  <rect x="105.36585365853658" y="46.829268292682926" width="2.926829268292683" height="2.926829268292683" style="fill:#000000;shape-rendering:crispEdges;"/>
  <rect x="17.5609756097561" y="49.756097560975604" width="2.926829268292683" height="2.926829268292683" style="fill:#000000;shape-rendering:crispEdges;"/>
  <rect x="23.414634146341463" y="49.756097560975604" width="2.926829268292683" height="2.926829268292683" style="fill:#000000;shape-rendering:crispEdges;"/>
  <rect x="38.048780487804876" y="49.756097560975604" width="2.926829268292683" height="2.926829268292683" style="fill:#000000;shape-rendering:crispEdges;"/>
  <rect x="40.975609756097555" y="49.756097560975604" width="2.926829268292683" height="2.926829268292683" style="fill:#000000;shape-rendering:crispEdges;"/>
  <rect x="58.536585365853654" y="49.756097560975604" width="2.926829268292683" height="2.926829268292683" style="fill:#000000;shape-rendering:crispEdges;"/>
  <rect x="64.39024390243902" y="49.756097560975604" width="2.926829268292683" height="2.926829268292683" style="fill:#000000;shape-rendering:crispEdges;"/>
  <rect x="67.3170731707317" y="49.756097560975604" width="2.926829268292683" height="2.926829268292683" style="fill:#000000;shape-rendering:crispEdges;"/>
  <rect x="76.09756097560975" y="49.756097560975604" width="2.926829268292683" height="2.926829268292683" style="fill:#000000;shape-rendering:crispEdges;"/>
  <rect x="81.95121951219512" y="49.756097560975604" width="2.926829268292683" height="2.926829268292683" style="fill:#000000;shape-rendering:crispEdges;"/>
  <rect x="84.8780487804878" y="49.756097560975604" width="2.926829268292683" height="2.926829268292683" style="fill:#000000;shape-rendering:crispEdges;"/>
  <rect x="90.73170731707316" y="49.756097560975604" width="2.926829268292683" height="2.926829268292683" style="fill:#000000;shape-rendering:crispEdges;"/>
  <rect x="93.65853658536585" y="49.756097560975604" width="2.926829268292683" height="2.926829268292683" style="fill:#000000;shape-rendering:crispEdges;"/>
  <rect x="96.58536585365853" y="49.756097560975604" width="2.926829268292683" height="2.926829268292683" style="fill:#000000;shape-rendering:crispEdges;"/>
  <rect x="105.36585365853658" y="49.756097560975604" width="2.926829268292683" height="2.926829268292683" style="fill:#000000;shape-rendering:crispEdges;"/>
  <rect x="11.707317073170731" y="52.6829268292683" width="2.926829268292683" height="2.926829268292683" style="fill:#000000;shape-rendering:crispEdges;"/>
  <rect x="14.634146341463413" y="52.6829268292683" width="2.926829268292683" height="2.926829268292683" style="fill:#000000;shape-rendering:crispEdges;"/>
  <rect x="17.5609756097561" y="52.6829268292683" width="2.926829268292683" height="2.926829268292683" style="fill:#000000;shape-rendering:crispEdges;"/>
  <rect x="29.26829268292683" y="52.6829268292683" width="2.926829268292683" height="2.926829268292683" style="fill:#000000;shape-rendering:crispEdges;"/>
  <rect x="32.19512195121951" y="52.6829268292683" width="2.926829268292683" height="2.926829268292683" style="fill:#000000;shape-rendering:crispEdges;"/>
  <rect x="35.1219512195122" y="52.6829268292683" width="2.926829268292683" height="2.926829268292683" style="fill:#000000;shape-rendering:crispEdges;"/>
  <rect x="38.048780487804876" y="52.6829268292683" width="2.926829268292683" height="2.926829268292683" style="fill:#000000;shape-rendering:crispEdges;"/>
  <rect x="46.829268292682926" y="52.6829268292683" width="2.926829268292683" height="2.926829268292683" style="fill:#000000;shape-rendering:crispEdges;"/>
  <rect x="49.756097560975604" y="52.6829268292683" width="2.926829268292683" height="2.926829268292683" style="fill:#000000;shape-rendering:crispEdges;"/>
  <rect x="55.609756097560975" y="52.6829268292683" width="2.926829268292683" height="2.926829268292683" style="fill:#000000;shape-rendering:crispEdges;"/>
  <rect x="64.39024390243902" y="52.6829268292683" width="2.926829268292683" height="2.926829268292683" style="fill:#000000;shape-rendering:crispEdges;"/>
  <rect x="70.24390243902438" y="52.6829268292683" width="2.926829268292683" height="2.926829268292683" style="fill:#000000;shape-rendering:crispEdges;"/>
  <rect x="73.17073170731707" y="52.6829268292683" width="2.926829268292683" height="2.926829268292683" style="fill:#000000;shape-rendering:crispEdges;"/>
  <rect x="76.09756097560975" y="52.6829268292683" width="2.926829268292683" height="2.926829268292683" style="fill:#000000;shape-rendering:crispEdges;"/>
  <rect x="87.80487804878048" y="52.6829268292683" width="2.926829268292683" height="2.926829268292683" style="fill:#000000;shape-rendering:crispEdges;"/>
  <rect x="90.73170731707316" y="52.6829268292683" width="2.926829268292683" height="2.926829268292683" style="fill:#000000;shape-rendering:crispEdges;"/>
  <rect x="102.4390243902439" y="52.6829268292683" width="2.926829268292683" height="2.926829268292683" style="fill:#000000;shape-rendering:crispEdges;"/>
  <rect x="17.5609756097561" y="55.609756097560975" width="2.926829268292683" height="2.926829268292683" style="fill:#000000;shape-rendering:crispEdges;"/>
  <rect x="20.48780487804878" y="55.609756097560975" width="2.926829268292683" height="2.926829268292683" style="fill:#000000;shape-rendering:crispEdges;"/>
  <rect x="26.341463414634145" y="55.609756097560975" width="2.926829268292683" height="2.926829268292683" style="fill:#000000;shape-rendering:crispEdges;"/>
  <rect x="32.19512195121951" y="55.609756097560975" width="2.926829268292683" height="2.926829268292683" style="fill:#000000;shape-rendering:crispEdges;"/>
  <rect x="35.1219512195122" y="55.609756097560975" width="2.926829268292683" height="2.926829268292683" style="fill:#000000;shape-rendering:crispEdges;"/>
  <rect x="46.829268292682926" y="55.609756097560975" width="2.926829268292683" height="2.926829268292683" style="fill:#000000;shape-rendering:crispEdges;"/>
  <rect x="55.609756097560975" y="55.609756097560975" width="2.926829268292683" height="2.926829268292683" style="fill:#000000;shape-rendering:crispEdges;"/>
  <rect x="61.463414634146346" y="55.609756097560975" width="2.926829268292683" height="2.926829268292683" style="fill:#000000;shape-rendering:crispEdges;"/>
  <rect x="64.39024390243902" y="55.609756097560975" width="2.926829268292683" height="2.926829268292683" style="fill:#000000;shape-rendering:crispEdges;"/>
  <rect x="67.3170731707317" y="55.609756097560975" width="2.926829268292683" height="2.926829268292683" style="fill:#000000;shape-rendering:crispEdges;"/>
  <rect x="70.24390243902438" y="55.609756097560975" width="2.926829268292683" height="2.926829268292683" style="fill:#000000;shape-rendering:crispEdges;"/>
  <rect x="73.17073170731707" y="55.609756097560975" width="2.926829268292683" height="2.926829268292683" style="fill:#000000;shape-rendering:crispEdges;"/>
  <rect x="76.09756097560975" y="55.609756097560975" width="2.926829268292683" height="2.926829268292683" style="fill:#000000;shape-rendering:crispEdges;"/>
  <rect x="79.02439024390243" y="55.609756097560975" width="2.926829268292683" height="2.926829268292683" style="fill:#000000;shape-rendering:crispEdges;"/>
  <rect x="84.8780487804878" y="55.609756097560975" width="2.926829268292683" height="2.926829268292683" style="fill:#000000;shape-rendering:crispEdges;"/>
  <rect x="93.65853658536585" y="55.609756097560975" width="2.926829268292683" height="2.926829268292683" style="fill:#000000;shape-rendering:crispEdges;"/>
  <rect x="99.51219512195121" y="55.609756097560975" width="2.926829268292683" height="2.926829268292683" style="fill:#000000;shape-rendering:crispEdges;"/>
  <rect x="11.707317073170731" y="58.536585365853654" width="2.926829268292683" height="2.926829268292683" style="fill:#000000;shape-rendering:crispEdges;"/>
  <rect x="14.634146341463413" y="58.536585365853654" width="2.926829268292683" height="2.926829268292683" style="fill:#000000;shape-rendering:crispEdges;"/>
  <rect x="17.5609756097561" y="58.536585365853654" width="2.926829268292683" height="2.926829268292683" style="fill:#000000;shape-rendering:crispEdges;"/>
  <rect x="23.414634146341463" y="58.536585365853654" width="2.926829268292683" height="2.926829268292683" style="fill:#000000;shape-rendering:crispEdges;"/>
  <rect x="26.341463414634145" y="58.536585365853654" width="2.926829268292683" height="2.926829268292683" style="fill:#000000;shape-rendering:crispEdges;"/>
  <rect x="29.26829268292683" y="58.536585365853654" width="2.926829268292683" height="2.926829268292683" style="fill:#000000;shape-rendering:crispEdges;"/>
  <rect x="32.19512195121951" y="58.536585365853654" width="2.926829268292683" height="2.926829268292683" style="fill:#000000;shape-rendering:crispEdges;"/>
  <rect x="38.048780487804876" y="58.536585365853654" width="2.926829268292683" height="2.926829268292683" style="fill:#000000;shape-rendering:crispEdges;"/>
  <rect x="40.975609756097555" y="58.536585365853654" width="2.926829268292683" height="2.926829268292683" style="fill:#000000;shape-rendering:crispEdges;"/>
  <rect x="43.90243902439025" y="58.536585365853654" width="2.926829268292683" height="2.926829268292683" style="fill:#000000;shape-rendering:crispEdges;"/>
  <rect x="46.829268292682926" y="58.536585365853654" width="2.926829268292683" height="2.926829268292683" style="fill:#000000;shape-rendering:crispEdges;"/>
  <rect x="70.24390243902438" y="58.536585365853654" width="2.926829268292683" height="2.926829268292683" style="fill:#000000;shape-rendering:crispEdges;"/>
  <rect x="73.17073170731707" y="58.536585365853654" width="2.926829268292683" height="2.926829268292683" style="fill:#000000;shape-rendering:crispEdges;"/>
  <rect x="84.8780487804878" y="58.536585365853654" width="2.926829268292683" height="2.926829268292683" style="fill:#000000;shape-rendering:crispEdges;"/>
  <rect x="87.80487804878048" y="58.536585365853654" width="2.926829268292683" height="2.926829268292683" style="fill:#000000;shape-rendering:crispEdges;"/>
  <rect x="90.73170731707316" y="58.536585365853654" width="2.926829268292683" height="2.926829268292683" style="fill:#000000;shape-rendering:crispEdges;"/>
  <rect x="93.65853658536585" y="58.536585365853654" width="2.926829268292683" height="2.926829268292683" style="fill:#000000;shape-rendering:crispEdges;"/>
  <rect x="96.58536585365853" y="58.536585365853654" width="2.926829268292683" height="2.926829268292683" style="fill:#000000;shape-rendering:crispEdges;"/>
  <rect x="99.51219512195121" y="58.536585365853654" width="2.926829268292683" height="2.926829268292683" style="fill:#000000;shape-rendering:crispEdges;"/>
  <rect x="105.36585365853658" y="58.536585365853654" width="2.926829268292683" height="2.926829268292683" style="fill:#000000;shape-rendering:crispEdges;"/>
  <rect x="14.634146341463413" y="61.463414634146346" width="2.926829268292683" height="2.926829268292683" style="fill:#000000;shape-rendering:crispEdges;"/>
  <rect x="26.341463414634145" y="61.463414634146346" width="2.926829268292683" height="2.926829268292683" style="fill:#000000;shape-rendering:crispEdges;"/>
  <rect x="32.19512195121951" y="61.463414634146346" width="2.926829268292683" height="2.926829268292683" style="fill:#000000;shape-rendering:crispEdges;"/>
  <rect x="35.1219512195122" y="61.463414634146346" width="2.926829268292683" height="2.926829268292683" style="fill:#000000;shape-rendering:crispEdges;"/>
  <rect x="38.048780487804876" y="61.463414634146346" width="2.926829268292683" height="2.926829268292683" style="fill:#000000;shape-rendering:crispEdges;"/>
  <rect x="43.90243902439025" y="61.463414634146346" width="2.926829268292683" height="2.926829268292683" style="fill:#000000;shape-rendering:crispEdges;"/>
  <rect x="49.756097560975604" y="61.463414634146346" width="2.926829268292683" height="2.926829268292683" style="fill:#000000;shape-rendering:crispEdges;"/>
  <rect x="67.3170731707317" y="61.463414634146346" width="2.926829268292683" height="2.926829268292683" style="fill:#000000;shape-rendering:crispEdges;"/>
  <rect x="76.09756097560975" y="61.463414634146346" width="2.926829268292683" height="2.926829268292683" style="fill:#000000;shape-rendering:crispEdges;"/>
  <rect x="81.95121951219512" y="61.463414634146346" width="2.926829268292683" height="2.926829268292683" style="fill:#000000;shape-rendering:crispEdges;"/>
  <rect x="87.80487804878048" y="61.463414634146346" width="2.926829268292683" height="2.926829268292683" style="fill:#000000;shape-rendering:crispEdges;"/>
  <rect x="90.73170731707316" y="61.463414634146346" width="2.926829268292683" height="2.926829268292683" style="fill:#000000;shape-rendering:crispEdges;"/>
  <rect x="93.65853658536585" y="61.463414634146346" width="2.926829268292683" height="2.926829268292683" style="fill:#000000;shape-rendering:crispEdges;"/>
  <rect x="102.4390243902439" y="61.463414634146346" width="2.926829268292683" height="2.926829268292683" style="fill:#000000;shape-rendering:crispEdges;"/>
  <rect x="105.36585365853658" y="61.463414634146346" width="2.926829268292683" height="2.926829268292683" style="fill:#000000;shape-rendering:crispEdges;"/>
  <rect x="11.707317073170731" y="64.39024390243902" width="2.926829268292683" height="2.926829268292683" style="fill:#000000;shape-rendering:crispEdges;"/>
  <rect x="17.5609756097561" y="64.39024390243902" width="2.926829268292683" height="2.926829268292683" style="fill:#000000;shape-rendering:crispEdges;"/>
  <rect x="20.48780487804878" y="64.39024390243902" width="2.926829268292683" height="2.926829268292683" style="fill:#000000;shape-rendering:crispEdges;"/>
  <rect x="23.414634146341463" y="64.39024390243902" width="2.926829268292683" height="2.926829268292683" style="fill:#000000;shape-rendering:crispEdges;"/>
  <rect x="29.26829268292683" y="64.39024390243902" width="2.926829268292683" height="2.926829268292683" style="fill:#000000;shape-rendering:crispEdges;"/>
  <rect x="35.1219512195122" y="64.39024390243902" width="2.926829268292683" height="2.926829268292683" style="fill:#000000;shape-rendering:crispEdges;"/>
  <rect x="38.048780487804876" y="64.39024390243902" width="2.926829268292683" height="2.926829268292683" style="fill:#000000;shape-rendering:crispEdges;"/>
  <rect x="40.975609756097555" y="64.39024390243902" width="2.926829268292683" height="2.926829268292683" style="fill:#000000;shape-rendering:crispEdges;"/>
  <rect x="52.6829268292683" y="64.39024390243902" width="2.926829268292683" height="2.926829268292683" style="fill:#000000;shape-rendering:crispEdges;"/>
  <rect x="58.536585365853654" y="64.39024390243902" width="2.926829268292683" height="2.926829268292683" style="fill:#000000;shape-rendering:crispEdges;"/>
  <rect x="61.463414634146346" y="64.39024390243902" width="2.926829268292683" height="2.926829268292683" style="fill:#000000;shape-rendering:crispEdges;"/>
  <rect x="64.39024390243902" y="64.39024390243902" width="2.926829268292683" height="2.926829268292683" style="fill:#000000;shape-rendering:crispEdges;"/>
  <rect x="67.3170731707317" y="64.39024390243902" width="2.926829268292683" height="2.926829268292683" style="fill:#000000;shape-rendering:crispEdges;"/>
  <rect x="76.09756097560975" y="64.39024390243902" width="2.926829268292683" height="2.926829268292683" style="fill:#000000;shape-rendering:crispEdges;"/>
  <rect x="87.80487804878048" y="64.39024390243902" width="2.926829268292683" height="2.926829268292683" style="fill:#000000;shape-rendering:crispEdges;"/>
  <rect x="90.73170731707316" y="64.39024390243902" width="2.926829268292683" height="2.926829268292683" style="fill:#000000;shape-rendering:crispEdges;"/>
  <rect x="93.65853658536585" y="64.39024390243902" width="2.926829268292683" height="2.926829268292683" style="fill:#000000;shape-rendering:crispEdges;"/>
  <rect x="99.51219512195121" y="64.39024390243902" width="2.926829268292683" height="2.926829268292683" style="fill:#000000;shape-rendering:crispEdges;"/>
  <rect x="102.4390243902439" y="64.39024390243902" width="2.926829268292683" height="2.926829268292683" style="fill:#000000;shape-rendering:crispEdges;"/>
  <rect x="105.36585365853658" y="64.39024390243902" width="2.926829268292683" height="2.926829268292683" style="fill:#000000;shape-rendering:crispEdges;"/>
  <rect x="11.707317073170731" y="67.3170731707317" width="2.926829268292683" height="2.926829268292683" style="fill:#000000;shape-rendering:crispEdges;"/>
  <rect x="17.5609756097561" y="67.3170731707317" width="2.926829268292683" height="2.926829268292683" style="fill:#000000;shape-rendering:crispEdges;"/>
  <rect x="32.19512195121951" y="67.3170731707317" width="2.926829268292683" height="2.926829268292683" style="fill:#000000;shape-rendering:crispEdges;"/>
  <rect x="38.048780487804876" y="67.3170731707317" width="2.926829268292683" height="2.926829268292683" style="fill:#000000;shape-rendering:crispEdges;"/>
  <rect x="46.829268292682926" y="67.3170731707317" width="2.926829268292683" height="2.926829268292683" style="fill:#000000;shape-rendering:crispEdges;"/>
  <rect x="52.6829268292683" y="67.3170731707317" width="2.926829268292683" height="2.926829268292683" style="fill:#000000;shape-rendering:crispEdges;"/>
  <rect x="67.3170731707317" y="67.3170731707317" width="2.926829268292683" height="2.926829268292683" style="fill:#000000;shape-rendering:crispEdges;"/>
  <rect x="76.09756097560975" y="67.3170731707317" width="2.926829268292683" height="2.926829268292683" style="fill:#000000;shape-rendering:crispEdges;"/>
  <rect x="81.95121951219512" y="67.3170731707317" width="2.926829268292683" height="2.926829268292683" style="fill:#000000;shape-rendering:crispEdges;"/>
  <rect x="84.8780487804878" y="67.3170731707317" width="2.926829268292683" height="2.926829268292683" style="fill:#000000;shape-rendering:crispEdges;"/>
  <rect x="87.80487804878048" y="67.3170731707317" width="2.926829268292683" height="2.926829268292683" style="fill:#000000;shape-rendering:crispEdges;"/>
  <rect x="93.65853658536585" y="67.3170731707317" width="2.926829268292683" height="2.926829268292683" style="fill:#000000;shape-rendering:crispEdges;"/>
  <rect x="96.58536585365853" y="67.3170731707317" width="2.926829268292683" height="2.926829268292683" style="fill:#000000;shape-rendering:crispEdges;"/>
  <rect x="105.36585365853658" y="67.3170731707317" width="2.926829268292683" height="2.926829268292683" style="fill:#000000;shape-rendering:crispEdges;"/>
  <rect x="11.707317073170731" y="70.24390243902438" width="2.926829268292683" height="2.926829268292683" style="fill:#000000;shape-rendering:crispEdges;"/>
  <rect x="29.26829268292683" y="70.24390243902438" width="2.926829268292683" height="2.926829268292683" style="fill:#000000;shape-rendering:crispEdges;"/>
  <rect x="38.048780487804876" y="70.24390243902438" width="2.926829268292683" height="2.926829268292683" style="fill:#000000;shape-rendering:crispEdges;"/>
  <rect x="46.829268292682926" y="70.24390243902438" width="2.926829268292683" height="2.926829268292683" style="fill:#000000;shape-rendering:crispEdges;"/>
  <rect x="49.756097560975604" y="70.24390243902438" width="2.926829268292683" height="2.926829268292683" style="fill:#000000;shape-rendering:crispEdges;"/>
  <rect x="52.6829268292683" y="70.24390243902438" width="2.926829268292683" height="2.926829268292683" style="fill:#000000;shape-rendering:crispEdges;"/>
  <rect x="58.536585365853654" y="70.24390243902438" width="2.926829268292683" height="2.926829268292683" style="fill:#000000;shape-rendering:crispEdges;"/>
  <rect x="61.463414634146346" y="70.24390243902438" width="2.926829268292683" height="2.926829268292683" style="fill:#000000;shape-rendering:crispEdges;"/>
  <rect x="64.39024390243902" y="70.24390243902438" width="2.926829268292683" height="2.926829268292683" style="fill:#000000;shape-rendering:crispEdges;"/>
  <rect x="73.17073170731707" y="70.24390243902438" width="2.926829268292683" height="2.926829268292683" style="fill:#000000;shape-rendering:crispEdges;"/>
  <rect x="76.09756097560975" y="70.24390243902438" width="2.926829268292683" height="2.926829268292683" style="fill:#000000;shape-rendering:crispEdges;"/>
  <rect x="79.02439024390243" y="70.24390243902438" width="2.926829268292683" height="2.926829268292683" style="fill:#000000;shape-rendering:crispEdges;"/>
  <rect x="84.8780487804878" y="70.24390243902438" width="2.926829268292683" height="2.926829268292683" style="fill:#000000;shape-rendering:crispEdges;"/>
  <rect x="87.80487804878048" y="70.24390243902438" width="2.926829268292683" height="2.926829268292683" style="fill:#000000;shape-rendering:crispEdges;"/>
  <rect x="90.73170731707316" y="70.24390243902438" width="2.926829268292683" height="2.926829268292683" style="fill:#000000;shape-rendering:crispEdges;"/>
  <rect x="99.51219512195121" y="70.24390243902438" width="2.926829268292683" height="2.926829268292683" style="fill:#000000;shape-rendering:crispEdges;"/>
  <rect x="102.4390243902439" y="70.24390243902438" width="2.926829268292683" height="2.926829268292683" style="fill:#000000;shape-rendering:crispEdges;"/>
  <rect x="11.707317073170731" y="73.17073170731707" width="2.926829268292683" height="2.926829268292683" style="fill:#000000;shape-rendering:crispEdges;"/>
  <rect x="14.634146341463413" y="73.17073170731707" width="2.926829268292683" height="2.926829268292683" style="fill:#000000;shape-rendering:crispEdges;"/>
  <rect x="26.341463414634145" y="73.17073170731707" width="2.926829268292683" height="2.926829268292683" style="fill:#000000;shape-rendering:crispEdges;"/>
  <rect x="35.1219512195122" y="73.17073170731707" width="2.926829268292683" height="2.926829268292683" style="fill:#000000;shape-rendering:crispEdges;"/>
  <rect x="38.048780487804876" y="73.17073170731707" width="2.926829268292683" height="2.926829268292683" style="fill:#000000;shape-rendering:crispEdges;"/>
  <rect x="49.756097560975604" y="73.17073170731707" width="2.926829268292683" height="2.926829268292683" style="fill:#000000;shape-rendering:crispEdges;"/>
  <rect x="52.6829268292683" y="73.17073170731707" width="2.926829268292683" height="2.926829268292683" style="fill:#000000;shape-rendering:crispEdges;"/>
  <rect x="55.609756097560975" y="73.17073170731707" width="2.926829268292683" height="2.926829268292683" style="fill:#000000;shape-rendering:crispEdges;"/>
  <rect x="58.536585365853654" y="73.17073170731707" width="2.926829268292683" height="2.926829268292683" style="fill:#000000;shape-rendering:crispEdges;"/>
  <rect x="73.17073170731707" y="73.17073170731707" width="2.926829268292683" height="2.926829268292683" style="fill:#000000;shape-rendering:crispEdges;"/>
  <rect x="76.09756097560975" y="73.17073170731707" width="2.926829268292683" height="2.926829268292683" style="fill:#000000;shape-rendering:crispEdges;"/>
  <rect x="84.8780487804878" y="73.17073170731707" width="2.926829268292683" height="2.926829268292683" style="fill:#000000;shape-rendering:crispEdges;"/>
  <rect x="87.80487804878048" y="73.17073170731707" width="2.926829268292683" height="2.926829268292683" style="fill:#000000;shape-rendering:crispEdges;"/>
  <rect x="96.58536585365853" y="73.17073170731707" width="2.926829268292683" height="2.926829268292683" style="fill:#000000;shape-rendering:crispEdges;"/>
  <rect x="105.36585365853658" y="73.17073170731707" width="2.926829268292683" height="2.926829268292683" style="fill:#000000;shape-rendering:crispEdges;"/>
  <rect x="20.48780487804878" y="76.09756097560975" width="2.926829268292683" height="2.926829268292683" style="fill:#000000;shape-rendering:crispEdges;"/>
  <rect x="26.341463414634145" y="76.09756097560975" width="2.926829268292683" height="2.926829268292683" style="fill:#000000;shape-rendering:crispEdges;"/>
  <rect x="29.26829268292683" y="76.09756097560975" width="2.926829268292683" height="2.926829268292683" style="fill:#000000;shape-rendering:crispEdges;"/>
  <rect x="35.1219512195122" y="76.09756097560975" width="2.926829268292683" height="2.926829268292683" style="fill:#000000;shape-rendering:crispEdges;"/>
  <rect x="40.975609756097555" y="76.09756097560975" width="2.926829268292683" height="2.926829268292683" style="fill:#000000;shape-rendering:crispEdges;"/>
  <rect x="46.829268292682926" y="76.09756097560975" width="2.926829268292683" height="2.926829268292683" style="fill:#000000;shape-rendering:crispEdges;"/>
  <rect x="49.756097560975604" y="76.09756097560975" width="2.926829268292683" height="2.926829268292683" style="fill:#000000;shape-rendering:crispEdges;"/>
  <rect x="58.536585365853654" y="76.09756097560975" width="2.926829268292683" height="2.926829268292683" style="fill:#000000;shape-rendering:crispEdges;"/>
  <rect x="61.463414634146346" y="76.09756097560975" width="2.926829268292683" height="2.926829268292683" style="fill:#000000;shape-rendering:crispEdges;"/>
  <rect x="70.24390243902438" y="76.09756097560975" width="2.926829268292683" height="2.926829268292683" style="fill:#000000;shape-rendering:crispEdges;"/>
  <rect x="81.95121951219512" y="76.09756097560975" width="2.926829268292683" height="2.926829268292683" style="fill:#000000;shape-rendering:crispEdges;"/>
  <rect x="93.65853658536585" y="76.09756097560975" width="2.926829268292683" height="2.926829268292683" style="fill:#000000;shape-rendering:crispEdges;"/>
  <rect x="96.58536585365853" y="76.09756097560975" width="2.926829268292683" height="2.926829268292683" style="fill:#000000;shape-rendering:crispEdges;"/>
  <rect x="99.51219512195121" y="76.09756097560975" width="2.926829268292683" height="2.926829268292683" style="fill:#000000;shape-rendering:crispEdges;"/>
  <rect x="102.4390243902439" y="76.09756097560975" width="2.926829268292683" height="2.926829268292683" style="fill:#000000;shape-rendering:crispEdges;"/>
  <rect x="11.707317073170731" y="79.02439024390243" width="2.926829268292683" height="2.926829268292683" style="fill:#000000;shape-rendering:crispEdges;"/>
  <rect x="14.634146341463413" y="79.02439024390243" width="2.926829268292683" height="2.926829268292683" style="fill:#000000;shape-rendering:crispEdges;"/>
  <rect x="32.19512195121951" y="79.02439024390243" width="2.926829268292683" height="2.926829268292683" style="fill:#000000;shape-rendering:crispEdges;"/>
  <rect x="38.048780487804876" y="79.02439024390243" width="2.926829268292683" height="2.926829268292683" style="fill:#000000;shape-rendering:crispEdges;"/>
  <rect x="40.975609756097555" y="79.02439024390243" width="2.926829268292683" height="2.926829268292683" style="fill:#000000;shape-rendering:crispEdges;"/>
  <rect x="46.829268292682926" y="79.02439024390243" width="2.926829268292683" height="2.926829268292683" style="fill:#000000;shape-rendering:crispEdges;"/>
  <rect x="55.609756097560975" y="79.02439024390243" width="2.926829268292683" height="2.926829268292683" style="fill:#000000;shape-rendering:crispEdges;"/>
  <rect x="58.536585365853654" y="79.02439024390243" width="2.926829268292683" height="2.926829268292683" style="fill:#000000;shape-rendering:crispEdges;"/>
  <rect x="61.463414634146346" y="79.02439024390243" width="2.926829268292683" height="2.926829268292683" style="fill:#000000;shape-rendering:crispEdges;"/>
  <rect x="67.3170731707317" y="79.02439024390243" width="2.926829268292683" height="2.926829268292683" style="fill:#000000;shape-rendering:crispEdges;"/>
  <rect x="73.17073170731707" y="79.02439024390243" width="2.926829268292683" height="2.926829268292683" style="fill:#000000;shape-rendering:crispEdges;"/>
  <rect x="76.09756097560975" y="79.02439024390243" width="2.926829268292683" height="2.926829268292683" style="fill:#000000;shape-rendering:crispEdges;"/>
  <rect x="87.80487804878048" y="79.02439024390243" width="2.926829268292683" height="2.926829268292683" style="fill:#000000;shape-rendering:crispEdges;"/>
  <rect x="90.73170731707316" y="79.02439024390243" width="2.926829268292683" height="2.926829268292683" style="fill:#000000;shape-rendering:crispEdges;"/>
  <rect x="93.65853658536585" y="79.02439024390243" width="2.926829268292683" height="2.926829268292683" style="fill:#000000;shape-rendering:crispEdges;"/>
  <rect x="96.58536585365853" y="79.02439024390243" width="2.926829268292683" height="2.926829268292683" style="fill:#000000;shape-rendering:crispEdges;"/>
  <rect x="105.36585365853658" y="79.02439024390243" width="2.926829268292683" height="2.926829268292683" style="fill:#000000;shape-rendering:crispEdges;"/>
  <rect x="14.634146341463413" y="81.95121951219512" width="2.926829268292683" height="2.926829268292683" style="fill:#000000;shape-rendering:crispEdges;"/>
  <rect x="17.5609756097561" y="81.95121951219512" width="2.926829268292683" height="2.926829268292683" style="fill:#000000;shape-rendering:crispEdges;"/>
  <rect x="20.48780487804878" y="81.95121951219512" width="2.926829268292683" height="2.926829268292683" style="fill:#000000;shape-rendering:crispEdges;"/>
  <rect x="23.414634146341463" y="81.95121951219512" width="2.926829268292683" height="2.926829268292683" style="fill:#000000;shape-rendering:crispEdges;"/>
  <rect x="26.341463414634145" y="81.95121951219512" width="2.926829268292683" height="2.926829268292683" style="fill:#000000;shape-rendering:crispEdges;"/>
  <rect x="29.26829268292683" y="81.95121951219512" width="2.926829268292683" height="2.926829268292683" style="fill:#000000;shape-rendering:crispEdges;"/>
  <rect x="35.1219512195122" y="81.95121951219512" width="2.926829268292683" height="2.926829268292683" style="fill:#000000;shape-rendering:crispEdges;"/>
  <rect x="46.829268292682926" y="81.95121951219512" width="2.926829268292683" height="2.926829268292683" style="fill:#000000;shape-rendering:crispEdges;"/>
  <rect x="49.756097560975604" y="81.95121951219512" width="2.926829268292683" height="2.926829268292683" style="fill:#000000;shape-rendering:crispEdges;"/>
  <rect x="55.609756097560975" y="81.95121951219512" width="2.926829268292683" height="2.926829268292683" style="fill:#000000;shape-rendering:crispEdges;"/>
  <rect x="61.463414634146346" y="81.95121951219512" width="2.926829268292683" height="2.926829268292683" style="fill:#000000;shape-rendering:crispEdges;"/>
  <rect x="64.39024390243902" y="81.95121951219512" width="2.926829268292683" height="2.926829268292683" style="fill:#000000;shape-rendering:crispEdges;"/>
  <rect x="67.3170731707317" y="81.95121951219512" width="2.926829268292683" height="2.926829268292683" style="fill:#000000;shape-rendering:crispEdges;"/>
  <rect x="70.24390243902438" y="81.95121951219512" width="2.926829268292683" height="2.926829268292683" style="fill:#000000;shape-rendering:crispEdges;"/>
  <rect x="79.02439024390243" y="81.95121951219512" width="2.926829268292683" height="2.926829268292683" style="fill:#000000;shape-rendering:crispEdges;"/>
  <rect x="81.95121951219512" y="81.95121951219512" width="2.926829268292683" height="2.926829268292683" style="fill:#000000;shape-rendering:crispEdges;"/>
  <rect x="84.8780487804878" y="81.95121951219512" width="2.926829268292683" height="2.926829268292683" style="fill:#000000;shape-rendering:crispEdges;"/>
  <rect x="87.80487804878048" y="81.95121951219512" width="2.926829268292683" height="2.926829268292683" style="fill:#000000;shape-rendering:crispEdges;"/>
  <rect x="90.73170731707316" y="81.95121951219512" width="2.926829268292683" height="2.926829268292683" style="fill:#000000;shape-rendering:crispEdges;"/>
  <rect x="93.65853658536585" y="81.95121951219512" width="2.926829268292683" height="2.926829268292683" style="fill:#000000;shape-rendering:crispEdges;"/>
  <rect x="102.4390243902439" y="81.95121951219512" width="2.926829268292683" height="2.926829268292683" style="fill:#000000;shape-rendering:crispEdges;"/>
  <rect x="46.829268292682926" y="84.8780487804878" width="2.926829268292683" height="2.926829268292683" style="fill:#000000;shape-rendering:crispEdges;"/>
  <rect x="49.756097560975604" y="84.8780487804878" width="2.926829268292683" height="2.926829268292683" style="fill:#000000;shape-rendering:crispEdges;"/>
  <rect x="55.609756097560975" y="84.8780487804878" width="2.926829268292683" height="2.926829268292683" style="fill:#000000;shape-rendering:crispEdges;"/>
  <rect x="58.536585365853654" y="84.8780487804878" width="2.926829268292683" height="2.926829268292683" style="fill:#000000;shape-rendering:crispEdges;"/>
  <rect x="61.463414634146346" y="84.8780487804878" width="2.926829268292683" height="2.926829268292683" style="fill:#000000;shape-rendering:crispEdges;"/>
  <rect x="70.24390243902438" y="84.8780487804878" width="2.926829268292683" height="2.926829268292683" style="fill:#000000;shape-rendering:crispEdges;"/>
  <rect x="76.09756097560975" y="84.8780487804878" width="2.926829268292683" height="2.926829268292683" style="fill:#000000;shape-rendering:crispEdges;"/>
  <rect x="81.95121951219512" y="84.8780487804878" width="2.926829268292683" height="2.926829268292683" style="fill:#000000;shape-rendering:crispEdges;"/>
  <rect x="93.65853658536585" y="84.8780487804878" width="2.926829268292683" height="2.926829268292683" style="fill:#000000;shape-rendering:crispEdges;"/>
  <rect x="102.4390243902439" y="84.8780487804878" width="2.926829268292683" height="2.926829268292683" style="fill:#000000;shape-rendering:crispEdges;"/>
  <rect x="11.707317073170731" y="87.80487804878048" width="2.926829268292683" height="2.926829268292683" style="fill:#000000;shape-rendering:crispEdges;"/>
  <rect x="14.634146341463413" y="87.80487804878048" width="2.926829268292683" height="2.926829268292683" style="fill:#000000;shape-rendering:crispEdges;"/>
  <rect x="17.5609756097561" y="87.80487804878048" width="2.926829268292683" height="2.926829268292683" style="fill:#000000;shape-rendering:crispEdges;"/>
  <rect x="20.48780487804878" y="87.80487804878048" width="2.926829268292683" height="2.926829268292683" style="fill:#000000;shape-rendering:crispEdges;"/>
  <rect x="23.414634146341463" y="87.80487804878048" width="2.926829268292683" height="2.926829268292683" style="fill:#000000;shape-rendering:crispEdges;"/>
  <rect x="26.341463414634145" y="87.80487804878048" width="2.926829268292683" height="2.926829268292683" style="fill:#000000;shape-rendering:crispEdges;"/>
  <rect x="29.26829268292683" y="87.80487804878048" width="2.926829268292683" height="2.926829268292683" style="fill:#000000;shape-rendering:crispEdges;"/>
  <rect x="35.1219512195122" y="87.80487804878048" width="2.926829268292683" height="2.926829268292683" style="fill:#000000;shape-rendering:crispEdges;"/>
  <rect x="38.048780487804876" y="87.80487804878048" width="2.926829268292683" height="2.926829268292683" style="fill:#000000;shape-rendering:crispEdges;"/>
  <rect x="52.6829268292683" y="87.80487804878048" width="2.926829268292683" height="2.926829268292683" style="fill:#000000;shape-rendering:crispEdges;"/>
  <rect x="55.609756097560975" y="87.80487804878048" width="2.926829268292683" height="2.926829268292683" style="fill:#000000;shape-rendering:crispEdges;"/>
  <rect x="58.536585365853654" y="87.80487804878048" width="2.926829268292683" height="2.926829268292683" style="fill:#000000;shape-rendering:crispEdges;"/>
  <rect x="61.463414634146346" y="87.80487804878048" width="2.926829268292683" height="2.926829268292683" style="fill:#000000;shape-rendering:crispEdges;"/>
  <rect x="64.39024390243902" y="87.80487804878048" width="2.926829268292683" height="2.926829268292683" style="fill:#000000;shape-rendering:crispEdges;"/>
  <rect x="67.3170731707317" y="87.80487804878048" width="2.926829268292683" height="2.926829268292683" style="fill:#000000;shape-rendering:crispEdges;"/>
  <rect x="73.17073170731707" y="87.80487804878048" width="2.926829268292683" height="2.926829268292683" style="fill:#000000;shape-rendering:crispEdges;"/>
  <rect x="76.09756097560975" y="87.80487804878048" width="2.926829268292683" height="2.926829268292683" style="fill:#000000;shape-rendering:crispEdges;"/>
  <rect x="79.02439024390243" y="87.80487804878048" width="2.926829268292683" height="2.926829268292683" style="fill:#000000;shape-rendering:crispEdges;"/>
  <rect x="81.95121951219512" y="87.80487804878048" width="2.926829268292683" height="2.926829268292683" style="fill:#000000;shape-rendering:crispEdges;"/>
  <rect x="87.80487804878048" y="87.80487804878048" width="2.926829268292683" height="2.926829268292683" style="fill:#000000;shape-rendering:crispEdges;"/>
  <rect x="93.65853658536585" y="87.80487804878048" width="2.926829268292683" height="2.926829268292683" style="fill:#000000;shape-rendering:crispEdges;"/>
  <rect x="99.51219512195121" y="87.80487804878048" width="2.926829268292683" height="2.926829268292683" style="fill:#000000;shape-rendering:crispEdges;"/>
  <rect x="11.707317073170731" y="90.73170731707316" width="2.926829268292683" height="2.926829268292683" style="fill:#000000;shape-rendering:crispEdges;"/>
  <rect x="29.26829268292683" y="90.73170731707316" width="2.926829268292683" height="2.926829268292683" style="fill:#000000;shape-rendering:crispEdges;"/>
  <rect x="38.048780487804876" y="90.73170731707316" width="2.926829268292683" height="2.926829268292683" style="fill:#000000;shape-rendering:crispEdges;"/>
  <rect x="40.975609756097555" y="90.73170731707316" width="2.926829268292683" height="2.926829268292683" style="fill:#000000;shape-rendering:crispEdges;"/>
  <rect x="43.90243902439025" y="90.73170731707316" width="2.926829268292683" height="2.926829268292683" style="fill:#000000;shape-rendering:crispEdges;"/>
  <rect x="46.829268292682926" y="90.73170731707316" width="2.926829268292683" height="2.926829268292683" style="fill:#000000;shape-rendering:crispEdges;"/>
  <rect x="49.756097560975604" y="90.73170731707316" width="2.926829268292683" height="2.926829268292683" style="fill:#000000;shape-rendering:crispEdges;"/>
  <rect x="55.609756097560975" y="90.73170731707316" width="2.926829268292683" height="2.926829268292683" style="fill:#000000;shape-rendering:crispEdges;"/>
  <rect x="64.39024390243902" y="90.73170731707316" width="2.926829268292683" height="2.926829268292683" style="fill:#000000;shape-rendering:crispEdges;"/>
  <rect x="70.24390243902438" y="90.73170731707316" width="2.926829268292683" height="2.926829268292683" style="fill:#000000;shape-rendering:crispEdges;"/>
  <rect x="79.02439024390243" y="90.73170731707316" width="2.926829268292683" height="2.926829268292683" style="fill:#000000;shape-rendering:crispEdges;"/>
  <rect x="81.95121951219512" y="90.73170731707316" width="2.926829268292683" height="2.926829268292683" style="fill:#000000;shape-rendering:crispEdges;"/>
  <rect x="93.65853658536585" y="90.73170731707316" width="2.926829268292683" height="2.926829268292683" style="fill:#000000;shape-rendering:crispEdges;"/>
  <rect x="96.58536585365853" y="90.73170731707316" width="2.926829268292683" height="2.926829268292683" style="fill:#000000;shape-rendering:crispEdges;"/>
  <rect x="99.51219512195121" y="90.73170731707316" width="2.926829268292683" height="2.926829268292683" style="fill:#000000;shape-rendering:crispEdges;"/>
  <rect x="102.4390243902439" y="90.73170731707316" width="2.926829268292683" height="2.926829268292683" style="fill:#000000;shape-rendering:crispEdges;"/>
  <rect x="11.707317073170731" y="93.65853658536585" width="2.926829268292683" height="2.926829268292683" style="fill:#000000;shape-rendering:crispEdges;"/>
  <rect x="17.5609756097561" y="93.65853658536585" width="2.926829268292683" height="2.926829268292683" style="fill:#000000;shape-rendering:crispEdges;"/>
  <rect x="20.48780487804878" y="93.65853658536585" width="2.926829268292683" height="2.926829268292683" style="fill:#000000;shape-rendering:crispEdges;"/>
  <rect x="23.414634146341463" y="93.65853658536585" width="2.926829268292683" height="2.926829268292683" style="fill:#000000;shape-rendering:crispEdges;"/>
  <rect x="29.26829268292683" y="93.65853658536585" width="2.926829268292683" height="2.926829268292683" style="fill:#000000;shape-rendering:crispEdges;"/>
  <rect x="40.975609756097555" y="93.65853658536585" width="2.926829268292683" height="2.926829268292683" style="fill:#000000;shape-rendering:crispEdges;"/>
  <rect x="46.829268292682926" y="93.65853658536585" width="2.926829268292683" height="2.926829268292683" style="fill:#000000;shape-rendering:crispEdges;"/>
  <rect x="58.536585365853654" y="93.65853658536585" width="2.926829268292683" height="2.926829268292683" style="fill:#000000;shape-rendering:crispEdges;"/>
  <rect x="61.463414634146346" y="93.65853658536585" width="2.926829268292683" height="2.926829268292683" style="fill:#000000;shape-rendering:crispEdges;"/>
  <rect x="64.39024390243902" y="93.65853658536585" width="2.926829268292683" height="2.926829268292683" style="fill:#000000;shape-rendering:crispEdges;"/>
  <rect x="67.3170731707317" y="93.65853658536585" width="2.926829268292683" height="2.926829268292683" style="fill:#000000;shape-rendering:crispEdges;"/>
  <rect x="79.02439024390243" y="93.65853658536585" width="2.926829268292683" height="2.926829268292683" style="fill:#000000;shape-rendering:crispEdges;"/>
  <rect x="81.95121951219512" y="93.65853658536585" width="2.926829268292683" height="2.926829268292683" style="fill:#000000;shape-rendering:crispEdges;"/>
  <rect x="84.8780487804878" y="93.65853658536585" width="2.926829268292683" height="2.926829268292683" style="fill:#000000;shape-rendering:crispEdges;"/>
  <rect x="87.80487804878048" y="93.65853658536585" width="2.926829268292683" height="2.926829268292683" style="fill:#000000;shape-rendering:crispEdges;"/>
  <rect x="90.73170731707316" y="93.65853658536585" width="2.926829268292683" height="2.926829268292683" style="fill:#000000;shape-rendering:crispEdges;"/>
  <rect x="93.65853658536585" y="93.65853658536585" width="2.926829268292683" height="2.926829268292683" style="fill:#000000;shape-rendering:crispEdges;"/>
  <rect x="102.4390243902439" y="93.65853658536585" width="2.926829268292683" height="2.926829268292683" style="fill:#000000;shape-rendering:crispEdges;"/>
  <rect x="105.36585365853658" y="93.65853658536585" width="2.926829268292683" height="2.926829268292683" style="fill:#000000;shape-rendering:crispEdges;"/>
  <rect x="11.707317073170731" y="96.58536585365853" width="2.926829268292683" height="2.926829268292683" style="fill:#000000;shape-rendering:crispEdges;"/>
  <rect x="17.5609756097561" y="96.58536585365853" width="2.926829268292683" height="2.926829268292683" style="fill:#000000;shape-rendering:crispEdges;"/>
  <rect x="20.48780487804878" y="96.58536585365853" width="2.926829268292683" height="2.926829268292683" style="fill:#000000;shape-rendering:crispEdges;"/>
  <rect x="23.414634146341463" y="96.58536585365853" width="2.926829268292683" height="2.926829268292683" style="fill:#000000;shape-rendering:crispEdges;"/>
  <rect x="29.26829268292683" y="96.58536585365853" width="2.926829268292683" height="2.926829268292683" style="fill:#000000;shape-rendering:crispEdges;"/>
  <rect x="35.1219512195122" y="96.58536585365853" width="2.926829268292683" height="2.926829268292683" style="fill:#000000;shape-rendering:crispEdges;"/>
  <rect x="38.048780487804876" y="96.58536585365853" width="2.926829268292683" height="2.926829268292683" style="fill:#000000;shape-rendering:crispEdges;"/>
  <rect x="40.975609756097555" y="96.58536585365853" width="2.926829268292683" height="2.926829268292683" style="fill:#000000;shape-rendering:crispEdges;"/>
  <rect x="43.90243902439025" y="96.58536585365853" width="2.926829268292683" height="2.926829268292683" style="fill:#000000;shape-rendering:crispEdges;"/>
  <rect x="46.829268292682926" y="96.58536585365853" width="2.926829268292683" height="2.926829268292683" style="fill:#000000;shape-rendering:crispEdges;"/>
  <rect x="52.6829268292683" y="96.58536585365853" width="2.926829268292683" height="2.926829268292683" style="fill:#000000;shape-rendering:crispEdges;"/>
  <rect x="55.609756097560975" y="96.58536585365853" width="2.926829268292683" height="2.926829268292683" style="fill:#000000;shape-rendering:crispEdges;"/>
  <rect x="58.536585365853654" y="96.58536585365853" width="2.926829268292683" height="2.926829268292683" style="fill:#000000;shape-rendering:crispEdges;"/>
  <rect x="61.463414634146346" y="96.58536585365853" width="2.926829268292683" height="2.926829268292683" style="fill:#000000;shape-rendering:crispEdges;"/>
  <rect x="70.24390243902438" y="96.58536585365853" width="2.926829268292683" height="2.926829268292683" style="fill:#000000;shape-rendering:crispEdges;"/>
  <rect x="73.17073170731707" y="96.58536585365853" width="2.926829268292683" height="2.926829268292683" style="fill:#000000;shape-rendering:crispEdges;"/>
  <rect x="79.02439024390243" y="96.58536585365853" width="2.926829268292683" height="2.926829268292683" style="fill:#000000;shape-rendering:crispEdges;"/>
  <rect x="84.8780487804878" y="96.58536585365853" width="2.926829268292683" height="2.926829268292683" style="fill:#000000;shape-rendering:crispEdges;"/>
  <rect x="90.73170731707316" y="96.58536585365853" width="2.926829268292683" height="2.926829268292683" style="fill:#000000;shape-rendering:crispEdges;"/>
  <rect x="99.51219512195121" y="96.58536585365853" width="2.926829268292683" height="2.926829268292683" style="fill:#000000;shape-rendering:crispEdges;"/>
  <rect x="105.36585365853658" y="96.58536585365853" width="2.926829268292683" height="2.926829268292683" style="fill:#000000;shape-rendering:crispEdges;"/>
  <rect x="11.707317073170731" y="99.51219512195121" width="2.926829268292683" height="2.926829268292683" style="fill:#000000;shape-rendering:crispEdges;"/>
  <rect x="17.5609756097561" y="99.51219512195121" width="2.926829268292683" height="2.926829268292683" style="fill:#000000;shape-rendering:crispEdges;"/>
  <rect x="20.48780487804878" y="99.51219512195121" width="2.926829268292683" height="2.926829268292683" style="fill:#000000;shape-rendering:crispEdges;"/>
  <rect x="23.414634146341463" y="99.51219512195121" width="2.926829268292683" height="2.926829268292683" style="fill:#000000;shape-rendering:crispEdges;"/>
  <rect x="29.26829268292683" y="99.51219512195121" width="2.926829268292683" height="2.926829268292683" style="fill:#000000;shape-rendering:crispEdges;"/>
  <rect x="38.048780487804876" y="99.51219512195121" width="2.926829268292683" height="2.926829268292683" style="fill:#000000;shape-rendering:crispEdges;"/>
  <rect x="49.756097560975604" y="99.51219512195121" width="2.926829268292683" height="2.926829268292683" style="fill:#000000;shape-rendering:crispEdges;"/>
  <rect x="52.6829268292683" y="99.51219512195121" width="2.926829268292683" height="2.926829268292683" style="fill:#000000;shape-rendering:crispEdges;"/>
  <rect x="55.609756097560975" y="99.51219512195121" width="2.926829268292683" height="2.926829268292683" style="fill:#000000;shape-rendering:crispEdges;"/>
  <rect x="58.536585365853654" y="99.51219512195121" width="2.926829268292683" height="2.926829268292683" style="fill:#000000;shape-rendering:crispEdges;"/>
  <rect x="64.39024390243902" y="99.51219512195121" width="2.926829268292683" height="2.926829268292683" style="fill:#000000;shape-rendering:crispEdges;"/>
  <rect x="70.24390243902438" y="99.51219512195121" width="2.926829268292683" height="2.926829268292683" style="fill:#000000;shape-rendering:crispEdges;"/>
  <rect x="90.73170731707316" y="99.51219512195121" width="2.926829268292683" height="2.926829268292683" style="fill:#000000;shape-rendering:crispEdges;"/>
  <rect x="93.65853658536585" y="99.51219512195121" width="2.926829268292683" height="2.926829268292683" style="fill:#000000;shape-rendering:crispEdges;"/>
  <rect x="99.51219512195121" y="99.51219512195121" width="2.926829268292683" height="2.926829268292683" style="fill:#000000;shape-rendering:crispEdges;"/>
  <rect x="105.36585365853658" y="99.51219512195121" width="2.926829268292683" height="2.926829268292683" style="fill:#000000;shape-rendering:crispEdges;"/>
  <rect x="11.707317073170731" y="102.4390243902439" width="2.926829268292683" height="2.926829268292683" style="fill:#000000;shape-rendering:crispEdges;"/>
  <rect x="29.26829268292683" y="102.4390243902439" width="2.926829268292683" height="2.926829268292683" style="fill:#000000;shape-rendering:crispEdges;"/>
  <rect x="35.1219512195122" y="102.4390243902439" width="2.926829268292683" height="2.926829268292683" style="fill:#000000;shape-rendering:crispEdges;"/>
  <rect x="43.90243902439025" y="102.4390243902439" width="2.926829268292683" height="2.926829268292683" style="fill:#000000;shape-rendering:crispEdges;"/>
  <rect x="46.829268292682926" y="102.4390243902439" width="2.926829268292683" height="2.926829268292683" style="fill:#000000;shape-rendering:crispEdges;"/>
  <rect x="49.756097560975604" y="102.4390243902439" width="2.926829268292683" height="2.926829268292683" style="fill:#000000;shape-rendering:crispEdges;"/>
  <rect x="61.463414634146346" y="102.4390243902439" width="2.926829268292683" height="2.926829268292683" style="fill:#000000;shape-rendering:crispEdges;"/>
  <rect x="64.39024390243902" y="102.4390243902439" width="2.926829268292683" height="2.926829268292683" style="fill:#000000;shape-rendering:crispEdges;"/>
  <rect x="67.3170731707317" y="102.4390243902439" width="2.926829268292683" height="2.926829268292683" style="fill:#000000;shape-rendering:crispEdges;"/>
  <rect x="70.24390243902438" y="102.4390243902439" width="2.926829268292683" height="2.926829268292683" style="fill:#000000;shape-rendering:crispEdges;"/>
  <rect x="76.09756097560975" y="102.4390243902439" width="2.926829268292683" height="2.926829268292683" style="fill:#000000;shape-rendering:crispEdges;"/>
  <rect x="81.95121951219512" y="102.4390243902439" width="2.926829268292683" height="2.926829268292683" style="fill:#000000;shape-rendering:crispEdges;"/>
  <rect x="93.65853658536585" y="102.4390243902439" width="2.926829268292683" height="2.926829268292683" style="fill:#000000;shape-rendering:crispEdges;"/>
  <rect x="96.58536585365853" y="102.4390243902439" width="2.926829268292683" height="2.926829268292683" style="fill:#000000;shape-rendering:crispEdges;"/>
  <rect x="11.707317073170731" y="105.36585365853658" width="2.926829268292683" height="2.926829268292683" style="fill:#000000;shape-rendering:crispEdges;"/>
  <rect x="14.634146341463413" y="105.36585365853658" width="2.926829268292683" height="2.926829268292683" style="fill:#000000;shape-rendering:crispEdges;"/>
  <rect x="17.5609756097561" y="105.36585365853658" width="2.926829268292683" height="2.926829268292683" style="fill:#000000;shape-rendering:crispEdges;"/>
  <rect x="20.48780487804878" y="105.36585365853658" width="2.926829268292683" height="2.926829268292683" style="fill:#000000;shape-rendering:crispEdges;"/>
  <rect x="23.414634146341463" y="105.36585365853658" width="2.926829268292683" height="2.926829268292683" style="fill:#000000;shape-rendering:crispEdges;"/>
  <rect x="26.341463414634145" y="105.36585365853658" width="2.926829268292683" height="2.926829268292683" style="fill:#000000;shape-rendering:crispEdges;"/>
  <rect x="29.26829268292683" y="105.36585365853658" width="2.926829268292683" height="2.926829268292683" style="fill:#000000;shape-rendering:crispEdges;"/>
  <rect x="35.1219512195122" y="105.36585365853658" width="2.926829268292683" height="2.926829268292683" style="fill:#000000;shape-rendering:crispEdges;"/>
  <rect x="38.048780487804876" y="105.36585365853658" width="2.926829268292683" height="2.926829268292683" style="fill:#000000;shape-rendering:crispEdges;"/>
  <rect x="40.975609756097555" y="105.36585365853658" width="2.926829268292683" height="2.926829268292683" style="fill:#000000;shape-rendering:crispEdges;"/>
  <rect x="46.829268292682926" y="105.36585365853658" width="2.926829268292683" height="2.926829268292683" style="fill:#000000;shape-rendering:crispEdges;"/>
  <rect x="61.463414634146346" y="105.36585365853658" width="2.926829268292683" height="2.926829268292683" style="fill:#000000;shape-rendering:crispEdges;"/>
  <rect x="67.3170731707317" y="105.36585365853658" width="2.926829268292683" height="2.926829268292683" style="fill:#000000;shape-rendering:crispEdges;"/>
  <rect x="73.17073170731707" y="105.36585365853658" width="2.926829268292683" height="2.926829268292683" style="fill:#000000;shape-rendering:crispEdges;"/>
  <rect x="76.09756097560975" y="105.36585365853658" width="2.926829268292683" height="2.926829268292683" style="fill:#000000;shape-rendering:crispEdges;"/>
  <rect x="79.02439024390243" y="105.36585365853658" width="2.926829268292683" height="2.926829268292683" style="fill:#000000;shape-rendering:crispEdges;"/>
  <rect x="81.95121951219512" y="105.36585365853658" width="2.926829268292683" height="2.926829268292683" style="fill:#000000;shape-rendering:crispEdges;"/>
  <rect x="93.65853658536585" y="105.36585365853658" width="2.926829268292683" height="2.926829268292683" style="fill:#000000;shape-rendering:crispEdges;"/>
  <rect x="96.58536585365853" y="105.36585365853658" width="2.926829268292683" height="2.926829268292683" style="fill:#000000;shape-rendering:crispEdges;"/>
  <rect x="102.4390243902439" y="105.36585365853658" width="2.926829268292683" height="2.926829268292683" style="fill:#000000;shape-rendering:crispEdges;"/>
</svg>